<?xml version="1.0" standalone="no"?>
<!DOCTYPE svg PUBLIC "-//W3C//DTD SVG 1.1//EN" "http://www.w3.org/Graphics/SVG/1.1/DTD/svg11.dtd" >
<svg xmlns="http://www.w3.org/2000/svg">
<metadata></metadata>
<defs>
<font id="pratersanstwo-boldbold" horiz-adv-x="1232" >
<font-face units-per-em="2048" ascent="1638" descent="-410" />
<missing-glyph horiz-adv-x="727" />
<glyph unicode="&#xfb01;" horiz-adv-x="1269" d="M38 854q-1 27 0 70t3 94t4 98h70t78 14q6 39 5 102.5t10 128t44 120t104 78.5q31 8 77 17t95.5 16t96.5 11.5t80 2.5q2 -18 3 -53t0 -73l-2 -76t1 -63q-31 -4 -63 -3t-57.5 -4t-42 -20.5t-16.5 -51.5q0 -55 -2 -87t2 -49l588 -20q12 -133 20.5 -264t12.5 -266.5t6 -276.5 t2 -295q-29 -2 -75 -1t-96 1t-98 1t-81 -1q-4 98 -6 171t-3 132.5t-1 112.5t-1 111.5t-3 130t-9 167.5l-223 5l4 -822l-332 -8l-32 825q-43 0 -74 -1t-84 1q-4 -2 -5 25zM801 1450q10 51 34.5 81t56.5 44t67.5 14t70.5 -6q25 -4 47.5 -31.5t34.5 -66.5t10 -85t-26 -89 q-57 -53 -114.5 -56.5t-101.5 23.5t-66.5 75t-12.5 97z" />
<glyph unicode="&#xfb02;" horiz-adv-x="1288" d="M38 946q1 64 5 158q31 0 72 4t80 6q6 39 4 109.5t9 145.5t46 137.5t113 82.5q59 23 133.5 30t140.5 11q113 -4 205 -10q39 -2 77 -5t69.5 -6t53 -6.5t27.5 -5.5q8 -4 12.5 -62t6.5 -153.5t2 -219.5t2 -257t7 -269t15 -255q2 -35 18.5 -51.5t40 -22.5t52 -6t59.5 -2 q2 -33 7 -79t9.5 -92t9.5 -86t7 -60q-55 0 -137 5t-158 25.5t-132 61.5t-63 114q-10 115 -17 220.5t-11 212t-7 216t-5 232.5l-7 283q-18 2 -59 6t-83 0t-73.5 -21.5t-33.5 -56.5q-10 -72 -11.5 -111t2.5 -55l170 -12l6 -264h-167l16 -838h-328l-20 829q-43 0 -74 -3t-84 -1 q-8 57 -7 121z" />
<glyph horiz-adv-x="0" />
<glyph unicode="&#xd;" horiz-adv-x="727" />
<glyph unicode=" "  horiz-adv-x="727" />
<glyph unicode="&#x09;" horiz-adv-x="727" />
<glyph unicode="&#xa0;" horiz-adv-x="727" />
<glyph unicode="!" horiz-adv-x="618" d="M66 1651l346 12q2 -127 7 -263t10 -282.5t8 -304.5t1 -326l-272 -18q-8 117 -16.5 204t-15.5 160.5t-13 142t-12 148.5zM145 209q14 63 47 100t73 52.5t84 13t81 -14.5q31 -10 58.5 -37.5t43 -69.5t11.5 -97.5t-35 -120.5q-78 -61 -148.5 -64.5t-123 29.5t-79 90 t-12.5 119z" />
<glyph unicode="&#x22;" horiz-adv-x="929" d="M59 1628l363 -2q-2 -66 -6 -135.5t-10.5 -149t-14.5 -172t-18 -204.5l-262 8q-6 106 -16.5 196.5t-19.5 170t-14.5 150.5t-1.5 138zM506 1628l360 2q0 -74 -4 -144.5t-11 -148t-15.5 -166t-14.5 -198.5h-266q-2 104 -9 193t-15.5 168t-15.5 150.5t-9 143.5z" />
<glyph unicode="#" horiz-adv-x="1345" d="M59 940h174l-6 315q80 -2 162 -6t141 -2q8 -2 11.5 -36.5t5.5 -84t5 -103.5t9 -95q43 0 63.5 1t36 1h34t57.5 -2q4 68 4 105.5t-1 65t-2 57.5t3 83q80 -2 175 -6t187 -2l2 -295h146q4 -68 7 -126t5 -105q0 -8 -16.5 -10.5t-42 -2.5h-54t-53.5 -2q2 -12 -3 -63.5t1 -110.5 q66 -6 115 -3t59 -1q0 -45 2 -90q0 -39 1 -81t-1 -75l-158 -2l-2 -272q-33 4 -129 -7.5t-237 -0.5l10 252l-176 14q0 -18 -2 -50t-4 -68t-4 -72.5t2 -67.5q-72 -6 -108 -7t-66.5 0t-70.5 2t-118 1l4 282h-135q-2 51 -4 78t-5 45.5t-6 41t-9 69.5q18 0 45 2q23 0 55.5 1 t75.5 1q-2 27 -2 45v33.5t-1 32t-3 38.5q-43 -2 -73 -2t-48 -2q-23 -2 -37 -2zM559 700l16 -196l193 2l-6 194h-203z" />
<glyph unicode="$" horiz-adv-x="942" d="M31 168l202 223q35 -37 55.5 -55.5t34 -25.5t23.5 -8t23 -3q55 -4 89 16.5t29 98.5q-2 74 -22.5 120t-53 80.5t-72.5 65.5t-79 74q-27 20 -53.5 52t-50 68.5t-43 75.5t-29.5 74q-14 43 -25.5 100.5t-6.5 124t33 137t93 140.5q41 45 86 59t88 21q0 49 1 91t1 89q57 2 96 7 t91 5q2 -49 3 -93t-1 -91q80 -6 139 -30.5t102 -55.5t71 -62.5t46 -50.5l-192 -198q-61 47 -104.5 74.5t-74.5 23.5q-66 -10 -77 -48t4 -81q16 -51 59 -111l203 -233q16 -10 37.5 -35t43 -58.5t41 -74.5t29.5 -84q37 -147 17.5 -259t-74.5 -212q-25 -47 -58.5 -71.5 t-68.5 -38t-67.5 -19.5t-55.5 -13v-34.5t-1 -47t-3 -48t-2 -35.5q-51 0 -101 -6.5t-108 -4.5q0 47 1 90t1 93q-78 20 -157.5 62t-161.5 122z" />
<glyph unicode="%" horiz-adv-x="1902" d="M92 1249v97q0 63 31 112t73 83t87 53.5t77 23.5q31 4 87.5 4t117 -12.5t111.5 -43t69 -85.5q12 -37 26.5 -107.5t21 -154.5t-0.5 -173t-38 -163q-23 -55 -52.5 -90t-69.5 -54.5t-92.5 -25.5t-119.5 -6q-47 0 -86 10t-74 38.5t-69.5 78t-73.5 129.5q-10 55 -15.5 103 t-7.5 93t-2 90zM354 1257q0 -86 1 -128t3 -60t7.5 -24.5t15.5 -22.5q10 -18 32.5 -28.5t46 -8.5t43 17.5t25.5 46.5q6 27 9.5 28.5t4.5 14t-1 51.5t-9 137q-2 45 -30.5 64.5t-61 16.5t-59.5 -29.5t-27 -74.5zM526 88l127 315q61 154 114.5 303.5t111 310.5t125 339 t157.5 389l264 -186q-29 -74 -50 -132.5t-39.5 -104.5t-33 -86t-26.5 -77q-4 -10 -24.5 -66.5t-53.5 -143.5t-73 -196.5t-82 -223t-82.5 -223t-73.5 -199t-55.5 -147.5t-26.5 -69zM1153 366.5q0 47.5 2 94.5t2 98q2 63 34 111.5t76 81t91 52t80 23.5q29 4 79 -5t101 -31.5 t95 -61.5t63 -94q12 -96 20 -189q8 -80 11 -167.5t-3 -155.5q-10 -96 -81.5 -140t-200.5 -55q-47 -4 -95.5 5.5t-94.5 36t-89 73.5t-76 123q-8 55 -11 104t-3 96.5zM1397 436q0 -86 2 -124t5 -52t7 -17t8 -22q6 -23 30 -33t52.5 -8t53 18.5t30.5 47.5q6 27 7 25.5t-1 7 t-6 44t-10 134.5q-2 45 -30.5 65.5t-61.5 16.5t-59.5 -30t-26.5 -73z" />
<glyph unicode="&#x26;" horiz-adv-x="1189" d="M47 434q12 98 60.5 197.5t144.5 185.5q-125 170 -158 320.5t21 318.5q86 160 229 216.5t342 -19.5q109 -39 178 -183q39 -78 26 -200.5t-71 -257.5l-135 -248q-8 -4 6.5 -33t38 -65.5t49 -73.5t39.5 -57q29 57 53 102q20 39 40 70.5t26 33.5q16 4 59 -25.5t138 -103.5 l-175 -293l207 -208l-190 -209l-182 180q-43 -35 -70 -53.5t-72 -36.5q-74 -31 -153.5 -45.5t-153.5 -5t-135.5 44t-99.5 102.5q-39 68 -56.5 158t-5.5 188zM389 367q2 -61 19.5 -87t62.5 -30q20 -2 46 6t46.5 22.5t33.5 31t11 30.5q-6 16 -30.5 50t-53.5 69q-33 41 -71 90 q-16 -23 -28.5 -41.5t-21 -38.5t-11.5 -44t-3 -58zM410 1272q6 -35 12 -63.5t16.5 -56.5t25.5 -57.5t40 -68.5q37 47 72.5 95t39.5 118q4 59 -17 91t-81 44q-41 -4 -61.5 -13t-29.5 -22.5t-11 -30t-6 -36.5z" />
<glyph unicode="'" horiz-adv-x="518" d="M59 1647l394 -7q-2 -66 -11.5 -126t-21.5 -129.5t-25.5 -152.5t-23.5 -196l-260 -6q-8 106 -18.5 190.5t-18.5 157t-13.5 137t-1.5 132.5z" />
<glyph unicode="(" horiz-adv-x="997" d="M126 715.5q-24 156.5 0 318.5t98.5 324t211.5 307q51 -27 80 -50.5t51.5 -48t45 -50t63.5 -52.5q-78 -111 -118 -185.5t-58.5 -143t-22.5 -145.5t-10 -193q-2 -43 9 -100.5t29.5 -114t41 -106.5t43.5 -77q20 -25 34.5 -42t34 -36.5t49 -50t83.5 -82.5l-273 -219 q-104 80 -157.5 141.5t-79 115t-38 100.5t-34.5 98q-59 135 -83 291.5z" />
<glyph unicode=")" horiz-adv-x="997" d="M123 68q80 106 138 183t98 149.5t63.5 155.5t34.5 206q4 43 1 100.5t-12.5 117.5t-27 115.5t-41.5 94.5q-16 25 -35.5 58.5t-46.5 75.5t-62.5 90t-87.5 102l250 198q92 -82 152.5 -156.5t101.5 -142t66.5 -127t46.5 -110.5q55 -139 60 -304t-40 -335t-138 -337t-234 -308 q-45 29 -81 49t-69 37.5t-65.5 38t-71.5 49.5z" />
<glyph unicode="*" horiz-adv-x="905" d="M2 1473l82 210l215 -98q-2 20 -6 63.5t-9 87.5t-9.5 79.5t-4.5 44.5q63 4 91 4t46.5 -2t44 -4.5t87.5 -2.5l-47 -270q39 25 76.5 45.5t69.5 35.5t53.5 24.5t25.5 13.5q25 -33 39 -56.5t25.5 -47t20.5 -49t21 -62.5q-35 -16 -78 -32.5t-81 -33.5q-45 -18 -91 -34 q55 -59 99.5 -113.5t87.5 -89.5q-41 -31 -57.5 -45.5t-31 -25.5t-36 -27.5t-70.5 -49.5l-168 226l-155 -226q-23 12 -33 26.5t-31 25.5q-33 27 -47 37t-23.5 14t-20.5 12t-36 33q14 14 55 73.5t111 122.5z" />
<glyph unicode="+" horiz-adv-x="1275" d="M120 749.5q1 32.5 3 63.5t4 63.5t-2 75.5q66 4 150.5 6.5t156.5 6.5l6 344h314q2 -20 5 -61.5t6 -88.5t6 -93t5 -77q55 2 131 -2t162 -4q2 -47 4 -84t3 -72.5t1 -72.5t-2 -80h-297q0 -29 -2 -72t-4 -90t-4 -91t-4 -71q-68 2 -106 3t-70.5 0t-72.5 -1h-110l9 324l-287 -2 q-6 43 -5 75.5z" />
<glyph unicode="," horiz-adv-x="581" d="M-27 -317q41 74 64.5 161.5t38 177t24 171.5t21.5 143q41 0 71.5 -4t56 -12.5t52.5 -15.5t59 -13q29 -4 44.5 -9.5t30 -9.5t34.5 -9t59 -11q-41 -90 -71.5 -180t-65.5 -176t-77 -166t-103 -150z" />
<glyph unicode="-" horiz-adv-x="1071" d="M129 954q111 0 188.5 2t159.5 4.5t187.5 3.5t273.5 1q0 -29 -1 -75t-2 -94t-2 -93.5t-3 -73.5l-789 -27z" />
<glyph unicode="." horiz-adv-x="634" d="M59 266q18 78 55.5 121t85.5 61.5t99 16.5t96 -14t86 -46t64.5 -86.5t21.5 -122t-41 -151.5q-96 -74 -188 -76t-159.5 40t-101.5 113t-18 144z" />
<glyph unicode="/" horiz-adv-x="1236" d="M8 53l211 383l555 1030q6 12 8 17.5t9.5 16.5t23.5 37t51 77q51 -27 107 -51q47 -23 105.5 -49.5t115.5 -49.5q-63 -102 -111.5 -192t-87.5 -169t-71.5 -147.5t-65.5 -126.5q-57 -104 -109.5 -201.5t-110.5 -205t-127 -233.5t-155 -285z" />
<glyph unicode="0" horiz-adv-x="1265" d="M102.5 1003.5q6.5 124.5 8.5 249.5q2 111 50 192t113 116q45 25 128 46t178.5 27t191.5 -7t172 -58q90 -53 135 -142.5t51 -175.5q4 -49 8.5 -113.5t8.5 -140t7 -158.5t5 -167q2 -86 -2 -172t-14 -163t-28.5 -139.5t-47.5 -97.5q-57 -72 -154.5 -99.5t-244.5 -33.5 q-145 -6 -242.5 22.5t-159 82t-92.5 127t-39 159.5q-6 51 -10 114t-7 122t-7.5 112.5t-6.5 86.5q-8 86 -1.5 210.5zM473 873.5q0 -50.5 1 -93.5t3 -92t6 -109.5t13 -146.5q4 -59 38.5 -96t122.5 -31q39 0 63.5 20.5t38 50.5t17.5 61.5t4 51.5q-4 102 -4 180.5t-1 151t-4 148 t-11 174.5q-4 35 -8 64.5t-19.5 51t-45.5 35t-81 15.5q-53 -6 -79.5 -25.5t-38 -44.5t-12.5 -52.5t-3 -49.5v-150.5v-113z" />
<glyph unicode="1" horiz-adv-x="876" d="M57 1386l326 218l279 22q2 -84 4 -211t5 -276.5t5 -311t4 -313.5t2 -284v-224q-74 -2 -110.5 -2h-66.5h-69t-121 -2v384t1 333.5t2 274.5t1 204q-35 -25 -60.5 -41t-50 -32.5t-52 -34t-64.5 -43.5q-14 68 -19 162t-16 177z" />
<glyph unicode="2" horiz-adv-x="1038" d="M105 206q1 79 7.5 135t16.5 105.5t29 114.5q29 104 77 180t117 136q35 29 84 71.5t82 75.5q14 14 35.5 34.5t35 49.5t12.5 66.5t-32 91.5q-72 45 -146.5 30.5t-143.5 -55.5l-150 270q82 47 135 71t99.5 32t94.5 6t120 -2q121 -2 192.5 -46t120.5 -110q41 -55 60.5 -122.5 t18.5 -136t-21.5 -135.5t-59.5 -122q-39 -53 -79 -97t-87 -91q-49 -47 -100.5 -94.5t-92.5 -124.5q-2 -4 -8 -18.5t-12 -39t-11 -56.5t-1 -69q111 6 221 6h258q-4 -61 -7 -102t-5 -78t-2 -76.5v-101.5q-141 0 -243 1t-193 1h-188t-233 -2q-2 123 -1 202z" />
<glyph unicode="3" horiz-adv-x="970" d="M35 96l88 314q20 -18 50 -33t60.5 -27t56 -20t38.5 -11q33 -10 68.5 -3.5t65.5 23.5t49 46t21 68q0 16 -2 45.5t-11 62.5t-27.5 64.5t-49.5 54.5q-16 0 -34.5 3t-43 6t-58.5 6t-81 7l-8 228l158 35q37 8 65.5 29.5t48 49t27.5 56t6 51.5q-8 78 -48 116t-87 42 q-18 2 -50 -5.5t-68 -18.5t-72.5 -26.5t-65.5 -31.5l-29 301q86 49 147.5 74.5t114 34t102.5 2t109 -18.5q41 -8 80 -29.5t71 -49.5t56.5 -57.5t34.5 -56.5q27 -66 43.5 -151.5t11 -170.5t-37 -159t-101.5 -117q59 -29 92 -81t45.5 -115.5t8 -134t-17.5 -135t-32.5 -117.5 t-35.5 -84q-25 -43 -67 -78t-90 -59.5t-98.5 -38t-91.5 -11.5q-90 4 -151.5 14.5t-122.5 37.5q-27 12 -42 18t-29.5 12t-29 14.5t-36.5 24.5z" />
<glyph unicode="4" horiz-adv-x="1126" d="M44 678q-1 39 3 102q23 49 40 95.5t50 105.5t68 118.5t67 125.5q63 125 117.5 225t114.5 170l67.5 -3t50 -2t74.5 -2t144 -3l43 -813l143 2l25 -340l-185 2l6 -471l-335 10q-2 102 -5 195q-2 78 -2 156.5v119.5q-6 0 -30.5 1t-59 2t-76.5 2t-85 3q-100 4 -228 6 q0 41 -2 69t-3 56.5t-2 67.5zM365 805l192 -6l10 413q-20 -33 -41 -67q-16 -29 -35.5 -61.5t-33.5 -61.5q-16 -33 -31.5 -70t-30.5 -69q-16 -37 -30 -78z" />
<glyph unicode="5" horiz-adv-x="946" d="M12 152l183 235q12 -14 17 -19.5t9 -7.5t8 -6t15 -14q35 -39 71.5 -46t67.5 1q66 16 82 58t20 126q2 39 1 78t-10 70.5t-30.5 52t-58.5 25.5q-35 6 -83 4t-95 -6.5t-84 -7.5t-51 3q-2 0 -3 -5t-3 8.5t-3.5 58.5t-5.5 147.5t-9 273.5t-13 437h751l-6 -313 q-92 0 -208.5 -4.5t-215.5 -2.5v-297q111 20 180.5 24.5t113.5 -11t73 -53t59 -103.5q23 -49 38.5 -146.5t16.5 -207t-11.5 -214t-45.5 -171.5q-27 -55 -57.5 -85t-69.5 -44.5t-89 -18.5t-115 -6q-90 -4 -145.5 6.5t-90.5 25.5t-58.5 34.5t-47.5 38.5q-14 10 -20.5 16 t-14.5 14.5t-21.5 19.5t-40.5 32z" />
<glyph unicode="6" horiz-adv-x="1011" d="M85.5 850q3.5 105 23.5 199q6 29 16 79t29.5 106t54.5 112.5t90 99.5q53 41 94 69.5t97.5 45t142.5 24.5t227 8l25 -293q-123 10 -207 -9t-138.5 -68t-83 -131t-40.5 -195q25 10 46 18.5t49 14.5t64.5 7t92.5 -3q154 -12 216 -143.5t58 -354.5q-2 -131 -30.5 -210 t-73.5 -125t-101.5 -69.5t-111.5 -43.5q-119 -4 -201 12t-136.5 45t-85 64.5t-48 70.5t-24.5 65.5t-15 47.5q-6 68 -15.5 159t-13.5 192t-0.5 206zM414 532q0 -37 3 -70.5t1 -51.5q0 -10 5 -26.5t14 -34t21.5 -31t28.5 -19.5q53 -18 96.5 11.5t49.5 92.5q14 133 -18.5 193.5 t-114.5 56.5q-23 0 -38.5 -13t-26.5 -31.5t-16 -40t-5 -36.5z" />
<glyph unicode="7" horiz-adv-x="948" d="M89 1400q1 40 4 75.5t6 70.5t7 78q104 2 189.5 2h174.5h194.5h250.5q-31 -102 -61.5 -193.5t-59 -181.5t-55 -181t-51.5 -191l197 -2l-64 -287l-209 -4q-41 -137 -92 -304t-112 -317l-287 70q49 137 87 280.5t79 268.5q-41 -4 -95.5 -7.5t-97.5 -1.5l21 279l223 6 q14 53 30.5 112.5l33 119t32 115t25.5 102.5h-87t-82 -1t-89 -2t-109 -1q-4 55 -3 95z" />
<glyph unicode="8" horiz-adv-x="1040" d="M82 1129.5q-4 101.5 12.5 192.5t55.5 140l8 11q78 98 221 127.5t354 -3.5q41 -10 65.5 -26.5t42 -38t34 -47t38.5 -55.5q8 -45 17.5 -130.5t7.5 -179.5t-24.5 -183t-79.5 -142q66 -57 94 -143.5t32.5 -181.5t-8 -186t-30.5 -159q-45 -61 -89 -90t-120 -43q-51 -10 -93 -9 t-85 -1q-66 -2 -112 3t-84 20t-75 43t-82 69q-4 4 -12 18.5t-16.5 31.5t-14.5 34.5t-8 27.5q-6 47 -20.5 113t-17.5 139.5t14.5 152.5t78.5 152q-47 55 -73.5 148.5t-30.5 195zM408 1155q0 -98 24.5 -146t83.5 -51q84 -2 103.5 48.5t17.5 150.5q0 39 -5 71t-18.5 55.5 t-38 38.5t-67.5 19q-31 -6 -50.5 -16t-30.5 -31.5t-15 -55.5t-4 -83zM420 438q6 -57 14 -90t22.5 -51t34 -25.5t48.5 -9.5q57 -6 84.5 32t33.5 118q4 70 -3 115.5t-23.5 72.5t-39 38t-46.5 13q-25 2 -50.5 -4t-44 -28.5t-27.5 -65.5t-3 -115z" />
<glyph unicode="9" horiz-adv-x="989" d="M50 1156q1 79 8.5 152.5t17.5 131.5q14 33 29.5 65.5t40 58t63.5 43t100 21.5q82 4 169 5t162 -17.5t131 -61.5t79 -129q12 -51 22.5 -119.5t16.5 -145.5t8 -159.5t2 -162.5q-2 -14 -7 -64.5t-12.5 -110t-15.5 -113.5t-16 -75q-86 -219 -266.5 -347t-456.5 -177l-25 285 q80 20 135.5 40.5t94.5 41t65.5 41t50.5 42.5q12 12 32 33t38.5 56.5t31.5 90t17 132.5q-47 -23 -75.5 -34t-55 -14t-55.5 1t-76 14q-78 14 -127 61t-76.5 113t-39 144.5t-10.5 157.5zM344 1198q0 -74 5 -114t17.5 -61.5t35 -28.5t59.5 -13q18 -4 37.5 6t34 25.5t24.5 34 t10 32.5q2 39 5 60.5t6 62.5q-4 55 -12.5 81t-23 36t-35 10t-46.5 4q-72 0 -95.5 -27.5t-21.5 -107.5z" />
<glyph unicode=":" horiz-adv-x="665" d="M70 1010q18 80 55 122t85 59t99.5 14t96.5 -15t82.5 -44t58 -81t16.5 -115.5t-45 -148.5q-96 -74 -184 -78t-152.5 36t-96.5 108.5t-15 142.5zM90 319q18 78 55 120t83 58.5t97.5 13.5t98.5 -15q45 -12 83 -43t58.5 -80t16.5 -117t-43 -150q-98 -74 -186.5 -76.5t-153 37 t-95 109.5t-14.5 143z" />
<glyph unicode=";" horiz-adv-x="614" d="M-27 -307q43 86 70 194.5t44 219t28.5 212t23.5 173.5q41 -10 65.5 -18.5t43 -15.5t37 -13.5t49.5 -14.5q33 -8 55.5 -14t46 -12.5t53 -13.5t72.5 -19q-35 -111 -69.5 -218.5t-74.5 -208t-88 -192.5t-110 -172zM51 1038q18 78 55 120t85.5 58.5t99.5 13t96 -15.5 t84 -43.5t58.5 -81t15.5 -116t-43 -148.5q-96 -74 -185.5 -77t-154 37t-96 110t-15.5 143z" />
<glyph unicode="&#x3c;" horiz-adv-x="1308" d="M158 786q82 86 175 167.5t171 144.5q55 45 91 73.5t67.5 52t67.5 49t91 64.5q41 -55 67.5 -82.5t55.5 -60.5q27 -31 47.5 -54.5t50.5 -62.5q-66 -47 -152.5 -123.5t-205.5 -158.5q106 -76 190 -138.5t177 -132.5l-187 -262q-98 68 -180 127.5t-164 119.5t-169 128 t-193 149z" />
<glyph unicode="=" horiz-adv-x="1298" d="M244 328l16 325q74 0 130 1t107.5 0t102.5 -2t114.5 -1t144.5 -1t194 -1q0 -86 5 -163.5t1 -159.5zM254 819l16 309q74 2 130.5 2h106.5h101t113.5 -1t143.5 -1h194q0 -86 1 -154.5t-3 -152.5z" />
<glyph unicode="&#x3e;" horiz-adv-x="1269" d="M205 492q37 29 85 64.5t100 74.5t105.5 77.5t96.5 73.5q-113 86 -213 163t-172 130q14 18 20 28.5t10.5 16.5t9.5 13.5t17 21.5q29 31 70 82t98 88q51 -27 104.5 -70t107.5 -92t108.5 -98t105.5 -90t79 -64.5t43 -39t21.5 -24.5t15.5 -18.5t23.5 -23.5t46.5 -39 q-57 -53 -99 -94t-82 -78t-81 -74t-95 -81t-126 -97t-172 -123z" />
<glyph unicode="?" horiz-adv-x="911" d="M55 1571q45 18 87 33.5t85 26.5t87 16.5t98 -0.5q59 -6 103 -10.5t79 -12.5t64.5 -23.5t62.5 -44.5q55 -49 81.5 -108t34 -120.5t-4 -118t-31.5 -97.5q-2 -25 -27.5 -60.5t-62.5 -79.5t-76 -96.5t-70 -107.5q-18 -35 -27.5 -75t-12.5 -77.5t-2 -72.5t1 -60 q-70 6 -107.5 8.5t-67.5 2.5t-61.5 -1t-86.5 1q2 4 -5.5 50t-6.5 113.5t17.5 149.5t69.5 156q37 51 80 100t69 94t21.5 86t-61.5 76q-29 18 -76 14t-93 -16t-83 -26.5t-45 -18.5zM180 213q14 63 47 100t73 52.5t84 13.5t81 -14q31 -10 58.5 -38t43 -70t11 -97.5 t-34.5 -120.5q-78 -61 -148.5 -64.5t-123 29.5t-79 90.5t-12.5 118.5z" />
<glyph unicode="@" horiz-adv-x="1984" d="M136 575.5q3 145.5 15.5 269.5t24.5 220q6 43 35 98.5t68.5 106.5t85 91t84.5 52q41 14 107.5 31.5t150.5 33t182 24.5t202.5 5t211 -22.5t206.5 -59.5q63 -25 107.5 -63.5t75 -87.5t52 -105.5t40.5 -115.5q6 -74 24.5 -194t29.5 -258t6 -281.5t-46 -262.5 q-20 -61 -64 -99t-95.5 -58.5t-99.5 -28.5t-75 -10q-57 -4 -105 3t-77 19q-8 4 -32.5 37t-37.5 94q-33 -47 -87 -73.5t-118.5 -35.5t-136 -1t-139.5 33q-45 25 -73.5 71.5t-43 102t-17.5 116t3 115.5t19.5 98t33.5 64q23 25 55.5 54.5t86 47t131.5 13t192 -47.5l-2 195 q-10 47 -38.5 59.5t-82.5 20.5q-6 0 -12 -1t-18.5 -3t-36 -4t-64.5 -2t-81 -6.5t-52 -10.5q-4 27 -8 50.5t-9 51t-12.5 61.5t-17.5 81q123 8 217 15t164 7t118 -8t79 -33q18 -14 34.5 -32.5t29.5 -37t22.5 -35.5t11.5 -26q4 -18 7 -63t6 -107.5t6 -139.5t5 -157t6.5 -134 t8.5 -89l10 -65q8 -27 27.5 -36t41 -4t40 23.5t26.5 48.5q8 29 10 49.5t2 60.5t-3 117t-5 218q-2 72 -13 142.5t-26.5 132t-33 107.5t-31.5 68q-16 27 -71.5 58t-121.5 53q-12 4 -50 6t-91 3t-115.5 -1t-122 -7t-111.5 -13t-83 -21q-84 -33 -123 -73.5t-61 -112.5 q-18 -59 -26.5 -133t-10.5 -150t-1 -148.5t5 -127.5q2 -59 5 -133t13 -146.5t30.5 -135t57.5 -97.5q25 -25 45.5 -47.5t50 -43t76.5 -38t125 -28.5t197 -15t291 2q4 -8 3 -39t-1 -53q0 -23 -3 -53.5t-7.5 -59.5t-6.5 -51.5t0 -26.5q0 -8 -44 -10t-114.5 0t-159.5 10 t-180 22.5t-176 36t-149 50.5q-84 39 -145.5 95t-101.5 111.5t-60.5 98.5t-22.5 55q-31 178 -41 343t-7 310.5zM843 269.5q1 -29.5 13 -56.5t43 -35q61 -18 113.5 12.5t68.5 110.5l-8 70q-78 25 -125 14.5t-76 -27.5q-12 -8 -21 -33.5t-8 -55z" />
<glyph unicode="A" horiz-adv-x="1212" d="M2 2l209 899l137 653l27 80q18 2 38 2t43 -2q46 -4 109 -4q35 0 89.5 -3t131.5 -13q53 -152 97.5 -306.5t85.5 -317.5t82 -337t88 -360q18 -72 34.5 -142.5t36.5 -148.5l-426 -2q-4 31 -8 56.5t-8 54t-11 60.5t-20 75q-31 0 -69.5 1t-77.5 3t-77 3t-67 1l-45 -258 q-61 0 -105 1t-85 2t-89 2t-120 1zM502 594q-2 0 18.5 -2t50 -4t63.5 -3h22q21 0 38 1l-94 553q-12 -63 -28.5 -145.5t-30.5 -166.5q-18 -104 -27.5 -168.5t-11.5 -64.5z" />
<glyph unicode="B" horiz-adv-x="1050" d="M119 1632q51 0 94 3t85 4t88 1t106 -4q43 -4 99 -9t111.5 -19.5t100.5 -39t65 -65.5q10 -20 23.5 -65t25 -104.5t16.5 -129.5q3 -39 2 -77q0 -31 -1 -62q-4 -70 -20.5 -134.5t-51.5 -115.5q35 -41 55.5 -90t32 -102.5t12.5 -109.5v-37q0 -36 -1 -70q-8 -123 -39 -250 q-16 -29 -44 -54.5t-61 -44t-69.5 -31t-73.5 -14.5q-61 -4 -108.5 -8t-100.5 -7q-40 -2 -91 -2h-35q-73 1 -187 7q0 203 -2.5 401.5t-5.5 382t-8 344t-9 289.5zM422 1319l4 -410q25 -2 47 -2q44 1 71 9q40 12 58 38q14 18 20.5 62.5t8.5 105.5v21q-1 54 -9 93q-10 46 -61 67 q-27 10 -30 13t-8 2t-25 -2h-9q-21 0 -67 3zM463 623l5 -347q23 -7 46 -7q15 1 30 3q40 8 68 39q14 16 20.5 26.5t9.5 24t3 34v55.5q0 27 -2 53t-10 50t-25.5 40t-46.5 22q-23 4 -36 5.5t-22 1.5h-17.5h-22.5z" />
<glyph unicode="C" horiz-adv-x="1017" d="M91 700q-2 68 -2 137q0 83 3 169q6 158 29 301q12 68 33.5 117t56.5 82.5t84 57t115 40.5q59 14 104 21q44 7 100 9q28 1 60 1t70 -1q74 -2 192 -2l-49 -375h-83h-58.5t-45 -2t-47.5 -4q-45 -4 -76.5 -14t-64.5 -61q-8 -104 -12 -196q-3 -73 -3 -142v-35q1 -86 5 -170 t14 -172q4 -37 23.5 -59.5t46 -35t56.5 -17.5t56 -5q23 0 42.5 -1t41 -1h48t63.5 4q4 -53 9 -94t10.5 -80t10.5 -83t9 -101q-47 -2 -105.5 -2h-115.5q-72 0 -130.5 8t-131.5 18q-74 10 -128.5 24.5t-93.5 38t-62.5 60.5t-31.5 92q-12 74 -24.5 199.5t-17.5 273.5z" />
<glyph unicode="D" horiz-adv-x="1103" d="M90 1360q0 84 1 153.5t1 116.5q166 0 306.5 -11t253 -45t195.5 -94.5t136 -158.5q20 -92 30.5 -199.5t13.5 -215.5q1 -46 1 -92q0 -62 -2 -120q-4 -102 -12 -186t-20.5 -141.5t-26.5 -75.5q-29 -47 -55.5 -78t-56.5 -53.5t-64.5 -40t-79.5 -39.5q-61 -29 -129 -45.5 t-141.5 -24.5t-153.5 -11t-168 -5q-4 63 -6 168.5t-3 237.5t-4.5 281.5t-9.5 299.5q-4 100 -5 197.5t-1 181.5zM442 1239l7 -440l12 -420q72 6 126 44t77 118q14 53 21 144t7 200q0 45 -1 88t-8 81t-23.5 69.5t-49.5 54.5t-72.5 41t-95.5 20z" />
<glyph unicode="E" horiz-adv-x="1040" d="M102 6q-1 91 -1 180q0 134 2 266q3 218 6 449q2 166 7 339t7 341q125 6 226.5 11t198.5 10.5t201.5 11.5t235.5 14q0 -49 -1 -84t-1 -70.5v-78.5t4 -109l-498 -35l-6 -270q86 -4 188.5 -4t209.5 -6q4 -51 5 -90v-19q0 -29 -2 -56q-3 -36 -9.5 -76t-14.5 -93l-393 14 q2 -30 2 -62q0 -39 -3 -79q-2 -33 -2 -66q0 -38 3 -73q114 -8 228 -9q23 0 45 1h49q106 0 186 -7q-1 -37 -1 -68v-30q1 -43 3 -83t3 -79v-16q0 -32 -3 -66q-115 -6 -219 -7q-52 0 -103 -0.5t-102 0.5q-102 1 -212 2h-45q-91 0 -194 -3z" />
<glyph unicode="F" horiz-adv-x="1077" d="M92 1591q137 8 251 10.5t222.5 3.5t223 2t253.5 7l-8 -352l-522 -17v-87t2 -80t6 -58.5t12 -22.5q31 0 93.5 3.5t128.5 7.5q76 6 161 12l15 -354l-400 -37q2 -80 4.5 -148.5t4.5 -140.5t4 -151.5t2 -180.5l-395 -4l-19 676z" />
<glyph unicode="G" horiz-adv-x="1163" d="M89 1006q3 122 3 204q0 100 49 178t126 132.5t173.5 82t193.5 29.5h14q90 0 173 -24q90 -25 152 -80q100 -88 102 -182l4 -152q-25 -2 -61.5 -3t-78.5 -4t-86 -7t-85 -11v14q0 49 -12 74q-15 29 -36.5 40.5t-48 11.5t-50.5 2q-18 2 -44 -4.5t-49.5 -23.5t-42 -47 t-22.5 -75q-8 -86 -13 -184q-2 -55 -2 -110q0 -43 2 -87q3 -98 12 -190t27 -166q12 -47 42 -71.5t68 -34.5q30 -9 62 -9q9 0 19 1q43 3 82 14q4 0 9 43t9 94q6 59 11 135l-156 2q-2 61 -3 93t-2 53.5t-4 45t-10 70.5q74 6 122 7q24 1 47.5 1t46.5 -1q45 -1 99 -3t140 -2 q-2 -86 -4 -179t-5 -184t-8 -174t-12.5 -146.5t-15.5 -103.5t-18 -44q-61 -25 -145.5 -36t-174.5 -11t-180 14t-165 42t-127 71t-66 100q-31 121 -43.5 261t-16.5 276q-2 78 -2 152q0 54 1 106z" />
<glyph unicode="H" horiz-adv-x="1267" d="M117 1346l8 278h115t73.5 -1t71.5 -3t111 -2l-9 -592l308 -14q0 63 1 139t2 157t2 161.5t1 154.5q63 0 99 2t67.5 4t70.5 3h30q34 0 83 -1q5 -139 5 -273q0 -100 -3 -196q-6 -225 -8 -454q0 -171 4 -345q3 -116 3 -240q0 -62 -1 -126l-375 6l2 660l-289 16 q-2 -137 -2 -264q0 -55 -1 -112.5t-1 -112t-1 -103.5t-3 -86q-41 0 -71.5 1t-66.5 1t-85 1t-129 3z" />
<glyph unicode="I" horiz-adv-x="655" d="M123 403v545v202v146.5t2 141t6 186.5q43 6 82 6t84 -3t101 -5q18 -1 38 -1q40 0 88 3q6 -212 7 -412v-200v-199q-1 -199 -2 -400.5t-1 -412.5l-403 12q-2 207 -2 391z" />
<glyph unicode="J" horiz-adv-x="944" d="M39 2q2 47 8 83t12.5 70.5t13.5 76.5t13 102q63 4 106.5 5t77 4t62 14.5t63.5 35.5q20 31 30.5 88.5t15.5 113.5t5 99v45v169t-1 128.5t-1 110.5v116.5v144.5v194q72 2 114 4t79 5t80 7t114 8q0 -199 2.5 -366.5t2.5 -321.5t-5.5 -302.5t-17.5 -309.5 q-4 -57 -27.5 -110.5t-63.5 -96.5t-95.5 -73t-122.5 -40q-72 -10 -146 -13q-44 -2 -88 -2q-29 0 -59 1q-31 0 -51.5 2t-39 3t-38 3t-43.5 2z" />
<glyph unicode="K" horiz-adv-x="1157" d="M90 8l12 832l2 757l359 9q0 -20 1 -85t1 -154t-1 -193.5t-5 -206.5q51 82 107.5 177t107.5 183t91 156.5t58 99.5q18 -4 43 -9t62 -14.5t88 -20.5t125 -26q-66 -121 -114 -213t-87 -169.5t-75 -147.5t-74 -143q49 -98 93 -189.5t90 -190t94 -209t103 -247.5l-393 -6 q-31 68 -47 105.5t-26.5 64.5t-21.5 52.5t-32 68.5l-131 264l-74 -98q-6 -43 -7 -85v-22q0 -32 2 -72q3 -52 6.5 -119t3.5 -159z" />
<glyph unicode="L" horiz-adv-x="987" d="M117 1348l6 284l362 -37l66 -1210q43 0 84 -2t86 -4t96 -4q26 -1 54.5 -1t60.5 1q2 -55 6 -99.5t7 -86.5t7 -88t9 -105l-705 12l-98 -4z" />
<glyph unicode="M" horiz-adv-x="1738" d="M119 568.5q0 146.5 2 273.5q1 74 1 155v83q-1 128 -1 242v193.5t4 96.5q74 -4 147 -8q61 -4 131 -7.5t123 -3.5q39 -72 65.5 -122t53.5 -103t59.5 -119.5t83.5 -173.5q6 -12 22.5 -51t35 -89t36 -105.5t27.5 -100.5q25 82 44.5 167t35.5 144q31 106 69 203.5t73.5 174.5 t63.5 124t34 53q8 6 43 9.5t86 4.5t114.5 1t131.5 4l16 -1616h-375l-4 600l23 297l-103 -299l-112 -297q-10 -27 -23.5 -57.5l-27 -61t-24.5 -57.5t-18 -41q-18 -37 -48 -42q-4 -1 -8 -1q-25 0 -50 27q-4 12 -30.5 71.5t-63.5 139t-79 166.5t-77 155q-10 18 -26.5 62.5 t-33 90.5t-28.5 83.5t-14 44.5q0 -16 2 -57.5t5 -87.5t5 -88t2 -58q-2 -86 -5 -176t-6 -170t-6 -142.5t-3 -95.5q-72 0 -110 -1t-70.5 -3t-72.5 -2t-116 2q-2 147 -2 295q-2 127 -2 273.5z" />
<glyph unicode="N" horiz-adv-x="1374" d="M106 -4l7 975l-7 649l318 4q31 -57 81 -159.5t110.5 -225.5t125 -255t123.5 -249l27 873l377 20q-6 -213 -13 -410.5t-15.5 -394t-17 -398.5t-14.5 -421q-66 -4 -109.5 -5t-80.5 -1t-74 1t-88 1q-27 53 -83 161.5t-116 248.5q-20 47 -40.5 87t-40 78.5t-40.5 76.5t-44 83 q2 -100 4 -205.5t2 -204t-1 -180.5t-3 -137z" />
<glyph unicode="O" horiz-adv-x="1183" d="M74 817q0 43 1 99.5t5 119t9 127t11 121.5q4 37 14.5 79t32 81t53 71.5t79.5 51.5q49 20 134 35.5t182 15.5t194.5 -20.5t168.5 -69.5q43 -29 68 -60.5t39 -65.5t20.5 -68t10.5 -68q6 -49 9 -125t5 -165q1 -44 1 -90t-1 -92q-2 -94 -6 -178q-4 -86 -11.5 -165.5 t-19.5 -148.5t-31.5 -123t-50.5 -87q-23 -25 -42 -44t-47 -36.5t-65.5 -32t-93.5 -28.5l-143 2q-145 2 -241.5 42t-156 106.5t-87 155.5t-33.5 189q-7 94 -7 184v22v63q0 59 -1 102zM448 748q0 -17 -1 -34q1 -62 5 -123q6 -77 19 -173q4 -29 17.5 -49.5t31.5 -32.5t38 -16 q10 -2 21 -3q9 0 17 2q8 -1 15 -1q23 0 41 14q22 20 35 50t20.5 63t7.5 53q4 102 7 181t3 151.5t-3 148.5t-9 172q-4 67 -41 91q-34 22 -77 22h-7q-43 -10 -79 -38t-44 -75q-6 -135 -10.5 -229t-6.5 -174z" />
<glyph unicode="P" horiz-adv-x="983" d="M78 1325q0 76 1 136.5t5 100.5t10 46q4 4 48 7t108.5 6t139.5 5q50 1 97 2q25 0 47 -1q68 -1 118 -4t67 -9q66 -29 112 -59.5t58 -92.5q12 -64 21 -166q7 -79 6 -162v-50q-2 -110 -13.5 -207t-38.5 -148q-27 -53 -58.5 -79.5t-62 -39t-56 -14.5t-40.5 -6 q-29 -10 -68.5 -12.5t-76.5 -4.5q-22 -1 -44 -1t-44 1l22 -571l-348 -2q-2 230 -7 446q-3 120 -3 243q0 98 2 198v132t-1 152.5t-1 153.5zM426 883q16 -1 31 -1q55 0 83 12q36 15 54 42q14 18 17 66.5t3 109.5q0 32 4 66q2 17 2 32q0 16 -2 31q-4 29 -15 49.5t-36 30.5 q-29 10 -32 13t-7 3t-24 -1h-17q-21 0 -59 1z" />
<glyph unicode="Q" horiz-adv-x="1206" d="M77 910q-1 27 -1 54.5t1 56.5q1 58 4 117.5t11 116.5q6 55 16.5 105.5t28 94.5t46 78t75.5 54t131 33q78 13 166 13h13q94 -1 187 -17.5t160 -52.5q74 -41 111 -127t41 -174q2 -45 6 -113t7 -145.5t5 -161.5t2 -162q0 -135 -16 -269.5t-63 -265.5l166 -221l-93 -92 l-123 -106q-39 49 -64.5 80.5t-46 56t-41 46t-50.5 52.5q-123 -17 -218 -17q-44 0 -82 4q-120 11 -195 65.5t-113 153.5t-52 253q-10 98 -13 200.5t-5 194.5q0 43 -1 95zM461 781q2 -87 7 -181t15 -223q2 -31 17.5 -47.5t37.5 -24.5q19 -7 40 -7h6q24 1 45 5h4q38 0 67 41 q31 43 33 129q2 96 9 189q3 53 3 102q0 37 -2 72q-4 92 -9 174t-15 184q-8 68 -46 83q-30 12 -66 12q-9 0 -19 -1q-8 1 -16 1q-34 0 -64 -21q-37 -25 -43 -72q-2 -135 -4 -232q-1 -48 -1 -94t1 -89z" />
<glyph unicode="R" horiz-adv-x="1128" d="M112 1280v107q0 106 1 206q72 8 120 11q49 4 85 6q24 1 46 1h22q32 -1 73 -1q55 0 115.5 -5.5t115.5 -14.5t100.5 -26.5t69.5 -41.5q49 -49 72.5 -88t34 -89.5t12.5 -122t6 -188.5q1 -22 1 -44q0 -38 -4 -78q-7 -62 -32 -138l-98 -149l260 -557l-287 -142l-87 203 t-64.5 152.5t-54 131t-56.5 136.5l-86 2q-4 -147 -8 -266q-2 -51 -3 -100.5t-2 -89.5t-2 -66.5t-1 -30.5q-47 -1 -78 -1h-28q-36 1 -63.5 3t-60 4t-98.5 6q-4 137 -5 257t-3 234.5t-4 229.5t-4 244q-4 143 -5 305zM454 1237q1 -49 5 -118.5t8 -145.5t8 -127q34 -8 59 -8 q12 0 22 2q30 6 46 18q18 14 23 35q9 106 9 195v17q-1 95 -26 146q-12 25 -36.5 34t-50 9t-45 -4t-21.5 -4q-1 0 -1 -22v-27z" />
<glyph unicode="S" horiz-adv-x="948" d="M55 2l33 379q35 -8 63.5 -10t45.5 0q39 2 76.5 2t70.5 6t59.5 23.5t45.5 54.5q5 16 5 34q0 29 -12 60q-20 51 -45 88q-25 39 -57.5 85t-65.5 81q-66 72 -108.5 152.5t-48.5 162.5q-3 41 -3 88v24q1 60 19.5 122.5t62.5 122t126 108.5q70 41 200 61q118 19 295 19h35 l-23 -367q-29 -4 -43 -5t-21 -2t-14.5 -1t-19.5 -2q-31 -4 -66.5 -18.5t-56.5 -24.5q-18 -10 -25.5 -32.5t-5 -50t11.5 -58.5t23 -57q45 -86 89 -144.5t73 -109.5q51 -95 82 -183q32 -91 32 -176q0 -82 -36 -165q-37 -85 -121 -173q-59 -45 -117 -66q-60 -20 -134 -26 q-56 -4 -126 -4h-50q-102 2 -249 2z" />
<glyph unicode="T" horiz-adv-x="1120" d="M60 1516v25q0 26 1 54q150 6 269 9.5t231.5 4.5t233 2t274.5 1q2 -45 6 -81t7 -76t5.5 -90t2.5 -122q-47 0 -85 -1t-73 -1t-72 -1t-82 -3v-104.5t-2 -47t-3 -42t-1 -87.5v-109.5t1 -148.5t2 -173t1 -183t-1 -180t-1 -162l-371 4q2 48 2 97q0 72 -4 144q-6 120 -10 275 q-4 106 -5 194.5t-2 171.5t-3 168t-6 187q-35 -2 -63.5 -2t-60.5 2t-73 3t-102 1q0 63 -4 109.5t-7.5 86t-4.5 75.5z" />
<glyph unicode="U" horiz-adv-x="1167" d="M67 961q1 81 6 172.5t9 202t6 263.5l354 -2l-6 -899q0 -70 -1 -133v-10q1 -57 11 -103q12 -50 40 -80t85 -34h10q38 0 60 26q25 30 36 80t13 111t4 121l31 923l373 9q-2 -170 -4 -349.5t-11 -353.5q-4 -92 -11 -198.5t-18.5 -202.5t-25.5 -172t-33 -107q-49 -86 -99 -128 t-98 -61.5t-95.5 -24.5t-90.5 -13q-154 2 -250 19.5t-153 61.5t-85 123t-44 204q-6 37 -7 92t-1 111.5v105.5t-2 73q-3 74 -3 140v33z" />
<glyph unicode="V" horiz-adv-x="1261" d="M12 1536l150 33l231 53q14 -43 32.5 -113.5t40 -158.5t45.5 -188.5t47.5 -203t47 -201t41.5 -184.5q16 76 35.5 171.5t40 195.5t41 202.5t40 196t35 171t27.5 128.5l183 -57l200 -82q-53 -186 -99 -365.5t-93 -347.5q-47 -180 -110.5 -372.5t-125.5 -409.5l-358 -8 l-234 768z" />
<glyph unicode="W" horiz-adv-x="1863" d="M20 1554l369 52q16 -66 42 -140.5t61 -165.5q23 -102 49 -206.5t49 -200.5q4 -18 9 -62.5t9 -92.5t8.5 -91t8.5 -59q4 16 11 59t14 93.5t14.5 101.5t13.5 84q18 106 39.5 208.5t40 188.5t33 150.5t22.5 99.5l281 -12q8 -33 21 -95.5t29.5 -145.5t36 -182.5t40.5 -205.5 q4 -18 9 -66.5t11 -101.5t11 -101.5t10 -66.5q4 20 9 64.5t11 92.5t11 91t10 63q47 190 88 370.5t75 326.5l377 -48q-47 -166 -98 -370.5t-101.5 -415.5t-100.5 -412.5t-95 -359.5q-44 -1 -74 -1h-26q-34 1 -60 2t-59 1t-94 -2q-10 27 -24.5 80t-31 122.5t-36 152.5 t-39.5 173q-6 25 -11.5 46.5t-13.5 51t-16.5 71.5t-20.5 108q-6 -70 -15 -112t-17.5 -70.5t-16.5 -50t-14 -52.5q-39 -184 -75 -313t-59 -199q-55 -4 -88.5 -7t-61.5 -4q-29 -1 -57 -2h-12q-26 0 -63 3q-61 197 -116.5 387t-108 381.5t-106.5 387.5t-112 402z" />
<glyph unicode="X" horiz-adv-x="1413" d="M29 84l428 762q-18 27 -51 76t-72 110.5t-82 128t-82 129t-70.5 114.5t-50.5 83q23 18 44.5 30.5t42 22.5t43 20.5t48.5 26.5q25 14 45.5 24.5t41 18.5t43 17.5t49.5 25.5q35 -55 72.5 -120.5t76.5 -135t79 -140.5t83 -136q39 63 75.5 132.5t73.5 139.5t75 136.5 t79 125.5l350 -166l-403 -671q100 -154 201.5 -320t215.5 -356q-23 -18 -41 -29.5t-35.5 -21t-37.5 -19.5t-45 -26q-47 -29 -106.5 -57.5t-110.5 -53.5q-72 117 -147 258t-163 283q-43 -63 -87 -138t-89 -153t-89 -153t-87 -136z" />
<glyph unicode="Y" horiz-adv-x="1359" d="M23 1360q57 49 111 110.5t142 137.5q104 -94 194.5 -210t195.5 -229q92 100 185 212t198 216l288 -219l-475 -520l37 -854q-2 -2 -16 -4q-12 -2 -41 -2t-82 4h-33t-58.5 -1t-74.5 -1h-84l-16 834l-179 227z" />
<glyph unicode="Z" horiz-adv-x="1128" d="M53 1614q137 -4 246 -4t213 1q52 0 107 0.5t113 -0.5q116 -1 267 -9q-4 -23 -4 -42.5t-4 -39.5q-39 -152 -75.5 -293.5t-71.5 -281.5t-70 -282.5t-69 -293.5q53 0 89.5 -2t71.5 -5.5t77 -5.5t106 -2q2 -61 6 -100t9 -75t8 -74.5t3 -98.5q-98 -2 -173 -3t-138.5 -1h-122.5 h-125.5t-148.5 1t-189 1q45 176 98.5 373.5t112.5 402.5q35 117 61.5 236t61.5 231q-61 2 -106.5 5t-88.5 4t-94 3.5t-127 4.5q2 27 0 45t-5 34.5t-6 34t-5 41.5q-4 49 -13.5 97.5t-13.5 97.5z" />
<glyph unicode="[" horiz-adv-x="1038" d="M219 1991q123 -2 204 -3t150.5 -1t142.5 -2.5t177 -6.5v-153q0 -8 -1 -9t-2 -11.5t-2 -40t-1 -93.5q-90 -4 -168 -19.5t-164 -19.5q4 -70 9 -192.5t8 -273t6.5 -316.5t5.5 -321.5t3 -289t1 -219.5q72 -4 145.5 -22t175.5 -31l-10 -291l-655 27q-4 162 -7.5 356.5 t-6.5 403.5t-5 421t-3 412.5t-2 378.5t-1 316z" />
<glyph unicode="\" horiz-adv-x="1169" d="M76 1757q68 25 107.5 38t74.5 23.5t75 20.5t105 29l371 -1270l162 -590l-379 -100q-37 109 -83 271.5t-95 347t-100.5 377t-96.5 361.5t-82 299t-59 193z" />
<glyph unicode="]" horiz-adv-x="993" d="M53 -229.5q2 20.5 5 35t5.5 32t2.5 62.5q0 14 4 50t10 95q59 0 113.5 5t138.5 3q0 86 1 220.5t2 290t1 320.5v315.5t-1 272t-3 191.5l-256 33l12 305q109 -4 254 -12.5t340 -8.5l8 -198q4 -119 7 -281t4 -348t1 -387v-394.5v-370.5t3 -316l-652 14q-2 51 0 71.5z" />
<glyph unicode="^" horiz-adv-x="1300" d="M176 1253q43 59 99.5 134t118 153t125 157t122.5 146q59 -57 133 -137t147.5 -165t141 -166t115.5 -142q-41 -25 -66 -41t-47.5 -29.5t-48 -28t-66.5 -36.5l-297 297l-227 -310q-43 25 -71.5 44.5t-55.5 38t-55.5 39t-67.5 46.5z" />
<glyph unicode="_" horiz-adv-x="1859" d="M203 -49q188 2 358 1t340 -3t349.5 -4t385.5 -2q2 -35 2 -84t-1 -101.5t-3 -100.5t-4 -81h-1421v84v105.5t-2 104.5t-4 81z" />
<glyph unicode="`" horiz-adv-x="860" d="M272 1675l283 180q37 -53 60.5 -114.5t43 -121.5t39 -114.5t45.5 -91.5l-184 -113q-41 53 -68.5 90t-56.5 72q-20 27 -66 88.5t-96 124.5z" />
<glyph unicode="a" horiz-adv-x="1116" d="M88 330v14q0 72 18 136q20 70 52 108q53 63 185 86.5t327 27.5l-8 119q-7 111 -130 146q-37 10 -81.5 17t-88 10t-77 3t-47.5 -4q-4 31 -6.5 66t-2.5 69.5v67.5t2 57q109 1 190 5q23 1 45 1q58 0 116 -6q211 -18 286 -104q41 -45 57.5 -100.5t20.5 -83.5 q6 -51 10.5 -105.5t8.5 -107t7 -96.5t5 -72q12 -143 19.5 -288.5t17.5 -289.5q-45 -6 -81 -10t-69 -8t-64.5 -7.5t-64.5 -5.5q-4 18 -5 44t-3 61q-51 -25 -118.5 -48.5t-139.5 -32.5q-34 -4 -67 -4q-38 0 -74 5q-68 10 -123 51q-61 47 -88 123t-29 156zM395 343v-7 q-1 -20 9 -37q12 -20 42 -27q26 -5 50 -5q36 1 68 11q54 18 120 41l-8 140q-106 -4 -162.5 -10.5t-85.5 -28.5q-10 -10 -20.5 -31.5t-12.5 -45.5z" />
<glyph unicode="b" horiz-adv-x="1075" d="M83 1506v42q0 43 1 92q176 -12 259 -22t83 -12q0 -35 4 -96.5t9 -132t8.5 -142.5t3.5 -127q45 37 94 62.5t94 29.5q21 2 41 3q52 1 96 -15q62 -20 107 -55q51 -63 75 -153q23 -90 31 -186q5 -64 5 -128q0 -32 -1 -63q-4 -95 -8 -173q-6 -123 -49 -214t-96 -134 q-72 -45 -130 -52q-20 -2 -39 -2q-35 0 -66 8q-48 13 -89 38.5t-78 44.5l-28 -133q-59 -2 -90 -2t-57.5 1t-60.5 1h-102q-2 47 -3 106.5t-2 123t-1 123.5v110q-2 199 -4 375q-1 88 -1 179t1 183q0 53 -2 103t-3 103.5t-2 113.5zM461 498.5q0 -52.5 2 -90t6 -43.5 q12 -12 19.5 -20.5t14.5 -12.5t19 -5h10q10 0 25 1q16 2 33.5 9t31 25.5t22.5 49t9 77.5l-2 281q0 68 -23.5 90.5t-84.5 28.5q-6 1 -11 1q-15 0 -23 -5q-11 -6 -17.5 -14.5t-10.5 -17.5t-10 -13q-2 0 -3 -34t-3 -84t-3 -110.5t-1 -113z" />
<glyph unicode="c" horiz-adv-x="897" d="M78 697.5v93.5t3 65.5t10 55t19.5 54t32.5 64.5q33 57 98.5 101.5t155.5 70.5q89 27 197 36q46 4 94 4q64 0 131 -7l-28 -172l-23 -152q-46 4 -88 4q-52 0 -97 -6q-81 -10 -143 -49q-18 -25 -24 -57.5t-6 -68.5t3 -69.5t5 -58.5q4 -53 9 -115.5t32 -119.5 q37 -31 71.5 -46.5t66.5 -23.5t61.5 -11t54.5 -5q20 -4 39.5 -1t35.5 1q4 -53 8.5 -88t8.5 -67t9 -67.5t9 -87.5q-68 0 -131 5.5t-127 11.5q-37 4 -63.5 6t-50 5t-46 8t-51.5 14q-92 27 -167.5 106.5t-94.5 224.5q-6 43 -9 102.5t-4 121t-1 118z" />
<glyph unicode="d" horiz-adv-x="1069" d="M71 666v38q0 73 3 132q4 82 16 147.5t45 113.5t92.5 75.5t155.5 35.5q29 0 54.5 -5t54 -13t61.5 -22.5t74 -32.5l18 497l332 -37q-2 -88 -4 -170t-3 -161.5t-1 -161.5v-168q2 -246 11 -474.5t19 -469.5l-317 -2l-10 137q-39 -23 -88 -42.5t-95.5 -33.5t-82 -21.5 t-50.5 -4.5q-29 2 -49 2t-39.5 5t-41 18t-50.5 42q-39 82 -61.5 180.5t-32.5 199t-11 196.5zM420 717q2 -27 5 -63t7 -75.5t7 -75.5t6.5 -60.5t3.5 -28.5q6 -33 13 -49.5t15 -23.5t16.5 -9t16.5 -4q4 -2 10 -2t14 2q16 4 35 14t36.5 26.5t23.5 41.5l4 221l-12 196 q-16 39 -45 57.5t-91 18.5q-29 0 -42 -11t-17 -30.5t-4 -48.5t-2 -63q-1 -3 -1 -11t1 -22z" />
<glyph unicode="e" horiz-adv-x="964" d="M70 650q2 102 6 173q4 63 14 129t36 122t75 100.5t129 62.5q103 10 178 10q32 0 60 -2q91 -6 145.5 -23.5t80 -44t42.5 -53.5q20 -35 34.5 -86t18.5 -114q2 -31 4 -56.5t4 -52.5q1 -18 1 -37v-20q-1 -30 -3 -70l-10 -137q-45 -1 -88 -1q-87 0 -167 5q-96 6 -186 6h-45 q-1 -22 -1 -43.5t1 -42.5q2 -35 6.5 -73.5t16.5 -65.5q16 -38 118 -52q58 -8 133 -8q57 0 124 5l22 -279q-135 -4 -237 -5h-20q-90 0 -158 8q-76 9 -131.5 33.5t-98.5 72.5q-45 51 -67.5 142t-30.5 193q-6 82 -6 164v40zM401 774l209 4q2 35 2 58.5t-2 35.5q-4 24 0 25 q1 0 1 3q0 4 -1 10q-2 12 -13 26t-35 26q-20 10 -51 9h-11q-43 -2 -61.5 -14.5t-24.5 -27t-4 -25.5t0 -11q-4 -1 -8 -27q-2 -17 -2 -49q0 -19 1 -43z" />
<glyph unicode="f" horiz-adv-x="907" d="M82 1080.5q0 54.5 2 95.5h164q2 29 4 65.5t6 56.5q10 80 27.5 129.5t43 81t58.5 51t76 37.5q49 23 98 29t115 12q29 2 45 3h10q11 0 19 -1q14 -2 29.5 -4t45.5 -2q-6 -35 -6 -66.5t1 -64.5t2 -69v-14q0 -30 -3 -64q-27 -2 -51.5 -3t-49 -6.5t-51 -16.5t-53.5 -32 q-25 -43 -30.5 -81.5t-8.5 -49.5q10 0 29 -2q14 -2 37 -3t53 -1h88q2 -92 6 -163q1 -30 1 -60q0 -43 -3 -88h-215l-24 -850l-316 4v475v375q-42 3 -76 3h-16q-39 -1 -45 3q-4 2 -7 36t-4 82t-1 102.5z" />
<glyph unicode="g" horiz-adv-x="1081" d="M68 761q4 134 28 263q8 45 32 77t54.5 53.5t67.5 35.5t74 24q37 4 85 7.5t97 3.5t92 -6.5t70 -18.5q51 51 94 88q35 33 68 58q26 21 33 21q2 0 3 -1q33 -47 69 -102.5t62 -106.5q-39 -35 -77.5 -70.5t-75.5 -66.5q12 -12 19 -80t7 -156t-11 -180t-36 -155 q-16 -43 -38.5 -70t-49 -43.5t-57.5 -27.5t-68 -25q-5 -25 -5 -43q0 -22 7 -34q15 -22 52 -26q12 0 33.5 -2t44 -5t42 -5t25.5 -4q51 -10 87 -41t77 -88q29 -41 40 -107q6 -37 6 -77q0 -28 -3 -57q-8 -70 -38 -135t-83 -101q-55 -39 -131 -45.5t-191 -8.5q-63 -2 -112 -2 h-97.5h-101.5h-123l13 314q45 2 75.5 2t65.5 -1t81 -3t122 -4h46h36.5t36 2t42.5 4q20 2 30.5 20.5t8.5 34.5q0 14 -3 26.5t-15 22.5t-38 16q-19 4 -48 4q-11 0 -23 -1q-29 -1 -50.5 -1t-36.5 1q-29 2 -45.5 8t-26 15t-21.5 22q-49 47 -61.5 117.5t-14.5 172.5 q-106 18 -162.5 69.5t-64.5 113.5q-19 142 -19 259q0 23 1 45zM381 758q0 -72 2 -94.5t0 -36.5q0 -8 4 -22.5t15.5 -30t31.5 -25.5q16 -8 38 -8h9q27 2 39 12t17.5 24.5t6.5 31t1 28.5q0 8 1 27.5t2 42t2 44t1 33.5q1 9 1 19q0 15 -2 31q-3 26 -12.5 48.5t-26.5 38t-44 17.5 h-5q-25 0 -40 -18q-16 -19 -25.5 -46.5t-12.5 -59t-3 -56.5z" />
<glyph unicode="h" horiz-adv-x="1122" d="M100 1604q63 -2 98 -5.5t67 -6.5t71 -5q20 -1 47 -1t61 1q6 -90 6.5 -203.5t6.5 -238.5q87 68 195 87q39 7 80 7q74 0 155 -22q43 -12 70.5 -42t43 -65t20.5 -68t7 -51q2 -25 4 -64.5t3 -82.5t2 -84t3 -66q2 -28 2 -58q0 -22 -1 -46q-3 -55 -5 -103l-10 -483h-104.5 t-59 -1t-60.5 -1h-108v354q0 133 -1 250t-5 176q0 23 -13 37.5t-32.5 22.5t-41 10t-38.5 0q-39 -6 -62.5 -31.5t-23.5 -54.5q-2 -8 -3 -42t-2 -76t-1 -85v-67q0 -31 -2 -93.5t-5 -135t-5 -144.5t-2 -121h-353q3 221 3 420v98v120q0 179 2 351q1 155 -5 307q-4 112 -5 224 q0 41 1 82z" />
<glyph unicode="i" horiz-adv-x="659" d="M106 1561q14 63 45 96t68 45q28 9 58 9q10 0 20 -1q41 -4 78 -10t69 -30q30 -23 48 -63q14 -33 15 -75q0 -10 -1 -20q-4 -54 -37 -121q-79 -61 -151 -65h-15q-63 0 -109 28q-52 32 -76 88q-16 36 -17 76q0 21 5 43zM118 884q1 142 7 304q78 2 116 7q27 4 53 4q10 0 21 -1 q37 -2 77 -7t112 -5q4 -29 7 -119t4 -210t2 -256t1 -258v-214v-125q-78 -4 -113.5 -4t-65.5 1t-70 2h-32q-36 0 -92 -1q-10 168 -16 314.5t-9 285.5q-2 104 -2 210v72z" />
<glyph unicode="j" horiz-adv-x="851" d="M47 -309q2 55 3 88t2 63.5t2 65.5t5 92q12 2 52.5 2t85.5 11.5t86 43t57 101.5q6 111 9 195.5t3 156.5t-1 135.5t-3 128.5q-2 86 -3 182v39q0 81 3 179q76 4 111 4t62.5 -1t66.5 -3.5t125 -2.5l4 -608q0 -111 1 -213v-22q0 -90 -7 -168q-4 -43 -9.5 -88t-14.5 -87 t-23.5 -79t-36.5 -64q-35 -37 -65 -66.5t-86 -49t-156 -28.5q-83 -7 -213 -7h-60zM322 1532q14 57 43.5 91t66.5 49q36 16 75 16h3q41 -1 82 -13q33 -10 59.5 -35.5t40.5 -63.5q10 -28 10 -64q0 -12 -2 -24q-4 -50 -30 -108q-57 -61 -124 -68q-13 -1 -25 -1q-53 0 -97 23 q-55 30 -87 84q-21 36 -21 74q0 20 6 40z" />
<glyph unicode="k" horiz-adv-x="1130" d="M86 2l6 870l8 768q61 0 100.5 -3t75 -7t78.5 -8t115 -4q0 -63 1 -154.5t1 -195v-213t-2 -207.5q35 51 83 108.5t83 102.5q25 31 42 51t30.5 34.5t24.5 26t22 25.5q49 -29 78.5 -46t54 -32.5t52.5 -32t73 -41.5q-74 -109 -141.5 -201.5t-122.5 -178.5q29 -59 61.5 -118 t73.5 -120q45 -70 87 -153t105 -191q-4 0 -43 -14.5t-89 -34t-98 -40t-69 -28.5q-31 57 -61.5 112.5t-52.5 98.5q-29 51 -54 96l-102 177l-49 -56q-2 -78 -3 -171v-39q0 -80 3 -183z" />
<glyph unicode="l" horiz-adv-x="782" d="M113 1634q70 -4 101.5 -7t57 -4t63.5 -3t122 -6q4 -182 7 -320.5t5 -262.5t5 -251t7 -288q2 -84 32 -123t70 -53q33 -12 68 -13q7 0 15 1q26 2 46 2q14 0 27 -1q2 -26 2 -47.5t-2 -38.5q-4 -33 -4 -76q0 -45 -5 -84q-2 -18 -2 -34q0 -19 3 -35q-18 -6 -30.5 -9.5 t-22.5 -4.5h-11.5h-14.5q-16 1 -40 1q-31 0 -67.5 2.5t-74.5 6.5t-75 9t-65 13q-55 14 -91 50t-56.5 78t-29 83t-10.5 66q-6 106 -9 197t-6 180.5t-4 182.5t-3 206z" />
<glyph unicode="m" horiz-adv-x="1665" d="M80 1121v73q63 0 101 -2t68 -5t63.5 -6t93.5 -7q10 -27 19 -58t19 -65q88 85 173 115q71 25 134 25q12 0 24 -1q73 -6 131.5 -41t97.5 -82q84 59 155.5 84t138.5 29q12 1 23 1q67 -1 111 -21q52 -24 80 -54.5t38.5 -59t12.5 -34.5q2 -2 4 -57.5t4 -135.5t3 -169t3 -156 q1 -62 1 -123t-1 -123q-1 -41 -1 -82q0 -82 3 -162q-43 0 -134 -3q-30 -1 -64 -1q-66 0 -144 4l-37 713q-2 43 -10 65.5t-22.5 32.5t-34 11t-46.5 3q-37 -25 -58 -49q-19 -22 -19 -72v-10v-100v-133t-1 -145.5t-2 -138t-2 -112t-1 -65.5q-39 0 -92.5 -1t-102.5 -1h-117 q-6 188 -10 338q-2 63 -3 124.5t-2 110t-2 77.5l-1 30l-4 74q-14 47 -34 63.5t-79 16.5q-29 -12 -43 -32t-22.5 -42.5t-9.5 -45t-1 -40.5v-672l-375 -4q-2 29 -4 98.5t-5 163.5t-5 203.5t-4 218.5q-2 86 -3 169t-3 150.5t-2 117.5z" />
<glyph unicode="n" horiz-adv-x="1118" d="M92 1198q70 4 104.5 9t61.5 10.5t59.5 9.5t98.5 8l4 -168q45 63 108.5 96t127.5 43q42 7 83 7q21 1 43 -1q60 -6 101 -16q49 -33 77.5 -69.5t44 -83t21.5 -100.5t8 -120v-43.5v-53.5v-54.5v-46.5q0 -39 -1 -114t-3 -164t-5 -182t-5 -169l-328 6q2 96 3 180t2 164v53 q0 53 -1 106q-2 79 -6 167q2 20 2 39q0 28 -4 53q-4 35 -20.5 64.5t-49.5 29.5q-25 0 -53 -11t-53 -24q-29 -14 -59 -32l-7 -361q-2 -35 -4 -94q-2 -51 -4 -132q-1 -40 -1 -91t1 -111q-51 -2 -81.5 -2h-51t-37 1t-38 1t-53.5 1t-83 1v602z" />
<glyph unicode="o" horiz-adv-x="1058" d="M74 817q2 55 3 94t8 71t21.5 59.5t43.5 58.5q31 33 61.5 54.5t72.5 32.5t101 15t145 6h26q81 0 136 -11q64 -13 104 -32.5t60.5 -40t32.5 -34.5q59 -72 75.5 -210.5t20.5 -338.5q1 -30 1 -58q0 -109 -12 -189q-16 -102 -32 -142q-39 -96 -128 -136.5t-255 -44.5 q-24 -1 -50 -1q-39 0 -80 2q-69 3 -128 20.5t-103 54.5t-59 105q-10 49 -22.5 140t-22.5 190.5t-16 191.5q-4 69 -4 115v28zM416 811q0 -2 1.5 -36t5 -90t10.5 -131t20 -157q4 -25 7 -44t12 -33.5t28.5 -22.5t56.5 -8q25 0 45 8q16 8 29.5 27.5t11.5 60.5q4 27 4 82 q0 47 -5 132t-17 220q-4 53 -27 74.5t-57 26.5q-7 1 -16.5 1t-21.5 -1q-24 -2 -45 -12q-22 -10 -35 -34q-9 -16 -9 -40q0 -11 2 -23z" />
<glyph unicode="p" horiz-adv-x="1097" d="M61 1157q55 6 116 13.5t111 13.5t84 9q15 1 24 1q13 0 16 -2q6 -6 9 -27.5t7 -44.5q2 -27 4 -59q37 31 64.5 51.5t59.5 33.5t78 20.5t120 11.5q70 -18 104.5 -31.5t51 -27t25.5 -31t32 -46.5q18 -27 30.5 -65.5t19.5 -79.5t9 -78t2 -57q-2 -49 -4 -99.5t-6 -105.5 t-10.5 -117.5t-14.5 -138.5q-12 -98 -50 -145t-77 -74q-25 -16 -62.5 -39t-89.5 -30q-14 -2 -30 -2q-40 0 -88 13q-66 19 -145 80q2 -125 3 -252v-50q0 -96 -3 -167l-361 -32q3 74 3 149q0 37 -1 74q-2 113 -4 240q-2 131 -4 260t-6 261t-8 273t-9 297zM453 590l12 -209 q0 -18 12 -33.5t28.5 -28t34.5 -18.5q13 -5 23 -5q3 0 6 1q37 10 55.5 37.5t18.5 38.5q0 4 4 42t7 96t4 129v20q0 61 -5 122q1 5 1 11q0 34 -24 62q-22 27 -60 27q-7 0 -15 -1q-49 -6 -68.5 -22.5t-21.5 -51.5z" />
<glyph unicode="q" horiz-adv-x="1107" d="M77 843q1 81 9 140q8 66 65.5 115t139.5 66q31 6 64 6q54 0 112 -17q94 -27 176 -115l8 152l322 14q2 -72 6 -198.5t9 -281.5t10.5 -321.5t10.5 -317.5t10 -269.5t7 -177.5q-72 -6 -107.5 -12.5t-65.5 -10.5t-66.5 -7t-106.5 -3q1 12 1 26q0 29 -3 64q-4 53 -8 114.5 t-9.5 127t-5.5 126.5q-47 -31 -111 -43q-58 -11 -117 -11h-9q-64 1 -118 11.5t-85 26.5q-18 10 -28.5 32t-16.5 32q-16 27 -30.5 86t-27 136t-20.5 165t-12 176q-3 70 -3 136v33zM444 762l21 -324q4 -66 26.5 -102.5t75.5 -42.5q5 -1 9 -1q24 0 34 18q13 22 23 48v441 q-14 29 -34.5 50t-61.5 25h-14q-23 0 -37 -5q-17 -7 -25 -21t-11.5 -37t-5.5 -49z" />
<glyph unicode="r" horiz-adv-x="919" d="M106 4q2 90 2.5 189.5t0.5 202t-1.5 204.5t-1.5 197q0 94 2.5 178t6.5 148.5t7 103.5t3 45q4 2 56 3t114 3q72 2 162 2l16 -156q78 23 159 54.5t193 52.5q8 -41 16.5 -76t16.5 -65.5t17.5 -61.5t19.5 -65q-111 -49 -197 -89q-37 -16 -72.5 -33.5t-64.5 -31.5t-47 -25.5 t-20 -15.5q-6 -16 -11.5 -94t-8.5 -186.5t-5 -235.5t-2 -244q-80 -2 -120 -4t-69.5 -3t-65.5 -1t-106 4z" />
<glyph unicode="s" horiz-adv-x="823" d="M72 -29l4 320q55 2 71.5 2h21.5t10 1t36 5q45 6 79 20.5t40 42.5q5 23 5 43q0 12 -2 23q-5 29 -17.5 53.5t-32 45t-39.5 40.5q-6 6 -29.5 34t-49.5 68t-46.5 87t-20.5 90q0 37 -3 63.5t0 51t15.5 54t41.5 72.5q23 33 57.5 62t72.5 51.5t76.5 38.5t69.5 27q25 8 68 18 t85 18q41 9 73 13q13 2 21 2q12 0 15 -4q4 -10 8.5 -60.5t6.5 -109.5q2 -68 4 -152q-35 -10 -46.5 -12t-14.5 -2t-8 -2t-30 -8q-59 -16 -94 -50q-27 -26 -27 -66q0 -12 3 -26q6 -33 17 -58.5t27.5 -49t39 -49t51.5 -56.5q55 -63 81 -140q19 -56 20 -126q0 -26 -3 -55 q-6 -63 -22.5 -112.5t-56.5 -86.5t-108.5 -63.5t-176.5 -44.5q-29 -6 -54.5 -9.5t-57.5 -5.5q-21 -1 -48 -1h-27q-43 1 -106 3z" />
<glyph unicode="t" horiz-adv-x="843" d="M2 1208q49 -2 88 -2q35 0 62.5 2t27.5 6q0 16 -1 70.5t-1 114.5q-2 68 -2 149l313 -35l7 -303q37 -2 81 -3t81.5 -2t66.5 -3t35 -6q-4 -43 -4 -94q-1 -29 -1 -62v-36q1 -54 5 -113q-37 2 -64.5 3t-54.5 2t-57.5 1t-71.5 2l16 -461q18 -139 109 -139q27 0 32 -1t11 -1 h24.5t69.5 2l-26 -319q-92 -7 -157 -7q-11 1 -23 1q-72 2 -119.5 8t-74 15t-40.5 15q-29 10 -49.5 39t-36 64t-24.5 69.5t-11 59.5q-10 84 -21.5 176t-11.5 196q-2 121 -5 203t-7 90q-20 2 -38 2t-33.5 -2t-37.5 -2t-51 2q0 55 -1 87t-2 58.5t-2 60.5t-1 93z" />
<glyph unicode="u" horiz-adv-x="1181" d="M86 1221l354 -29q6 -197 15 -354q2 -68 5 -133.5t5 -119t4 -88t2 -40.5q2 -23 8 -44.5t18.5 -37t32 -25.5t52.5 -10h7q61 0 89 34q28 36 33 113q2 82 3 202v79q0 79 -1 156q-2 131 -4 274q45 2 98 6q47 4 107 6t130 4q2 -74 5 -172t4.5 -209.5t3.5 -230.5t4 -231.5 t3 -214.5v-64q0 -62 -1 -112l-338 6l-25 123q-57 -29 -118 -53q-62 -22 -122 -32q-32 -5 -63 -6q-27 0 -52 4q-54 8 -97 46q-29 25 -43.5 38t-24.5 27t-18 31.5t-23 48.5q-31 125 -33 238.5t-4 244.5q-2 121 -8 261.5t-8 263.5z" />
<glyph unicode="v" horiz-adv-x="1185" d="M37 1151q45 14 84 24.5t80 18.5t87 16.5t105 18.5q6 -29 19.5 -79t30 -110.5t34 -123t31.5 -113.5q12 -45 28.5 -110.5t33 -130t30.5 -119t23 -74.5q6 29 18 91t26.5 133t28 138.5t21.5 108.5q12 55 25.5 111.5t25.5 105.5t22.5 90t16.5 65l342 -73q-37 -137 -74 -272.5 t-75.5 -274.5t-78.5 -286.5t-81 -309.5q-64 0 -110 1q-23 0 -45.5 0.5t-45.5 -0.5q-45 -1 -99.5 -2t-131.5 -3q-55 162 -107.5 305t-99.5 287q-47 135 -84 271t-80 296z" />
<glyph unicode="w" horiz-adv-x="1650" d="M55 1159q27 8 73 24.5t95 32t94 30t74 20.5q25 -115 57.5 -257.5t61.5 -283.5q12 -68 21.5 -138.5t19.5 -121.5v21q0 43 6 92q4 53 16.5 123.5t34.5 156.5l84 328q20 0 55 2t74 5t76 4t59 -1q2 4 8.5 -18.5t14.5 -64.5t20.5 -99.5t26.5 -120.5q8 -43 20.5 -98.5 t23.5 -113.5t21.5 -114.5t18.5 -101.5q2 53 4 94t5 77t8.5 69.5t11.5 74.5q12 80 27.5 156t28.5 138.5t24.5 107.5t17.5 63l358 -82q-37 -145 -73.5 -288.5t-65.5 -284.5q-33 -160 -67.5 -308.5t-67.5 -279.5h-67.5t-101.5 -1t-103.5 -3t-73.5 -4q-10 47 -19.5 91t-19.5 90 t-23.5 98.5t-29.5 113.5q-4 14 -10.5 59.5t-14.5 99.5t-14 104t-10 75q-4 -72 -17.5 -157t-34.5 -162l-104 -408h-320q-41 137 -76.5 259t-58.5 243q-33 162 -79 320.5t-89 338.5z" />
<glyph unicode="x" horiz-adv-x="1079" d="M41 109l266 466q-18 33 -47 98.5t-62.5 139.5t-68.5 142.5t-63 107.5q57 33 93 56.5t66.5 43t64.5 40t85 46.5q8 -14 21.5 -39.5t28.5 -55.5t30.5 -62.5t27.5 -59.5q12 -31 22.5 -49t18.5 -32.5t16.5 -29t18.5 -34.5q29 57 53.5 101t46 85t41.5 81t45 87 q68 -39 101 -57.5t57.5 -32.5t52 -29.5t82.5 -48.5q-29 -61 -56.5 -104t-61.5 -101q-41 -68 -78 -140.5t-94 -158.5q57 -102 133.5 -215.5t148.5 -234.5q-29 -18 -47 -31.5t-33.5 -25t-31 -21.5t-35.5 -23q-20 -12 -32.5 -21t-25 -18.5t-31 -21.5t-49.5 -27q-18 35 -43.5 77 t-54.5 104q-6 12 -21.5 37.5t-31.5 53t-29.5 51t-17.5 34.5q-37 -66 -59.5 -106t-44 -76.5t-46 -77.5t-65.5 -105q-49 27 -83 47.5t-63.5 41t-62.5 44t-82 54.5z" />
<glyph unicode="y" horiz-adv-x="1220" d="M76 1130q55 25 88 41.5t62.5 28.5t62.5 24.5t88 28.5q14 -27 38.5 -69.5t47.5 -83.5q27 -49 55 -103q16 -29 36.5 -68.5t40 -75.5t35 -62.5t21.5 -28.5q31 70 50.5 134.5t37 124.5t35 116.5t43.5 111.5q41 -4 85 -18t91 -27q20 -6 35.5 -10t32 -8t39 -10.5t57.5 -14.5 q-80 -223 -159.5 -434t-151.5 -412q-35 -96 -64.5 -184t-58.5 -173t-57.5 -169t-61.5 -172q-45 6 -85 13.5t-82 16.5t-87 19t-102 25q27 55 47.5 116.5t36.5 120.5q10 35 30.5 93.5t42 124t40 129t28.5 108.5q-6 18 -29.5 64.5t-58.5 107.5t-74 133t-75 141 q-18 37 -64.5 106t-95.5 195z" />
<glyph unicode="z" horiz-adv-x="1056" d="M57 1129.5q0 46.5 9 91.5q92 2 160.5 2t124 -1t103.5 -2t97 -1l301 4q-4 -14 -12.5 -37t-10.5 -49q-47 -213 -103 -400.5t-124 -386.5q166 -12 258 -13t101 -1q8 0 13 -27.5t8 -64.5t5 -74t4 -55q4 -29 4 -54.5v-52.5q-127 -2 -223 -4t-190.5 -4t-197.5 -2t-241 2v25.5 t4 29.5q47 184 106.5 388t125.5 429q-47 0 -83 1t-71 1t-71.5 1.5t-85.5 1.5q0 35 -3.5 75.5t-5.5 85.5t-2 91.5z" />
<glyph unicode="{" horiz-adv-x="1124" d="M106 891q0 39 5 98q18 2 40.5 4t47 11.5t50 26t50.5 44.5q2 29 2 80v110.5t-1 123t-2 120t-2 99.5t-1 61q0 35 2 69t14.5 65.5t37 64.5t67.5 63q37 12 63.5 21.5t53 15.5t57.5 10t78 7q84 4 165.5 7t159.5 5l-12 -322q-29 0 -74 -1t-88 -5t-76.5 -13t-40.5 -26 q-16 -10 -24 -51t-12 -98.5t-4 -124v-128v-108.5t-3 -65q-4 -23 -6 -50.5t-9 -58.5t-24.5 -59.5t-48.5 -52.5q-10 -4 -20 -12.5t-14 -10.5l88 -86q8 -20 16 -43q6 -18 12 -38.5t6 -35.5q0 -31 -3 -81t-6 -110.5t-4 -122t1 -114.5t10.5 -90t22.5 -47q27 -16 59.5 -23.5 t69.5 -7.5t78 5.5t84 9.5q8 -51 11 -92t5 -81t4 -81t8 -90q-72 -4 -146.5 -7.5t-158.5 -5.5q-49 0 -81.5 2t-59.5 6.5t-50.5 12.5t-56.5 20q-47 27 -74.5 59.5t-43 68.5t-19.5 73t-4 68q0 37 1 86t3 98v78t-1 112.5t-5 116.5t-10 88q-41 47 -85 66.5t-95 19.5q0 57 -2 96 t-3.5 75t-1.5 75z" />
<glyph unicode="|" horiz-adv-x="960" d="M250 -20q0 88 4 187t7 214t3 249t-6 292q-4 82 -6 172t-2 180t1 179t3 169q4 188 12 371q63 -2 133 -2q59 -2 133 -2h148q6 -279 11 -553.5t9.5 -557t6.5 -577.5t2 -614l-459 8v285z" />
<glyph unicode="}" horiz-adv-x="1091" d="M45 -311q10 98 20.5 183t18.5 185q86 0 154.5 -2t109.5 27q14 37 20.5 97.5t6.5 120.5t-2 111.5t-2 69.5q-4 70 0 134.5t45 123.5q6 10 16 20.5t21 20.5q10 10 22 21q-4 2 -11 11t-18 13q-29 20 -41 42t-15 42.5t-2 41t-3 42.5q-2 8 -3 42t-1 79v96.5v97.5v79.5v42.5 q0 14 1 29.5t1 33.5t-3 45t-13 66q-41 31 -118 45t-181 16l-17 326q76 -2 176.5 -7.5t194.5 -7.5q45 0 85 -11t103 -34q88 -63 117 -129.5t25 -136.5l-4 -111q-8 -137 -9 -247q0 -47 2 -92.5t6.5 -82t13.5 -61t21 -29.5q25 -27 55.5 -43t77.5 -6q2 -55 6.5 -100t5.5 -88 t1 -89t-6 -104q-25 0 -40.5 -2t-27.5 -6t-24.5 -10t-32.5 -14t-33.5 -61.5t-20 -119t-8.5 -127t-2 -86.5q2 -49 -1 -98t-3 -86q0 -31 -6 -67.5t-22.5 -73.5t-45 -71t-75.5 -60q-33 -12 -52.5 -19.5t-41 -11.5t-50 -5t-78.5 -1q-84 2 -162.5 -3t-150.5 -1z" />
<glyph unicode="~" horiz-adv-x="1400" d="M100 750q53 43 98.5 77.5t89.5 59t88 36t93 7.5q57 -4 100 -24.5t72 -31.5q14 -4 43 -16t59.5 -25.5t58 -24.5t38.5 -11q29 -2 54.5 8t53 29.5t60 47t75.5 62.5q27 -31 50 -61q20 -27 41.5 -55.5t37.5 -53.5q10 -16 19.5 -31.5t17.5 -25.5q8 -14 19 -25 q-86 -94 -177.5 -164.5t-195.5 -81.5q-33 -4 -70 2.5t-71.5 17.5t-66.5 24.5t-52 25.5q-33 18 -51.5 28.5t-32.5 14.5t-29.5 5t-40.5 -1q-8 0 -23.5 -5t-32.5 -11t-30.5 -13.5t-19.5 -13.5q-4 -4 -14.5 -11t-22.5 -16.5t-23.5 -18.5t-17.5 -15q-16 31 -35 59 q-16 25 -33.5 51.5t-31.5 44.5q-16 18 -33 42t-31 44q-16 23 -33 50z" />
<glyph unicode="&#xa1;" horiz-adv-x="598" d="M119 1133q14 63 47 100t73 52t83.5 13t80.5 -14q31 -10 58.5 -37.5t43 -69.5t11.5 -97.5t-35 -121.5q-78 -61 -148.5 -64t-122.5 29.5t-79 90t-12 119.5zM158 -416q2 158 2 306.5t-1 296t-1 296v305.5l352 -26q6 -338 25.5 -634t7.5 -548q-72 -4 -109 -4t-68.5 2t-76.5 4 t-131 2z" />
<glyph unicode="&#xa2;" horiz-adv-x="815" d="M78 713q0 59 6 140t34.5 156.5t85 134t158.5 70.5l7 150l176 8l12 -147l150 -2l-5 -179v-145q-57 8 -108 2q-43 -4 -86 -22.5t-62 -59.5l-4 -209q0 -41 5.5 -88t13.5 -90t18 -74.5t17 -40.5q25 -29 40 -41t37.5 -16t60.5 -5t107 -7q-2 -51 -2 -80v-54.5t-2 -57t-8 -87.5 q-31 0 -48 -1t-32.5 -1t-34 3t-53.5 12l-6 -136l-209 15l-12 180q-74 18 -120 61t-72.5 94.5t-37 102.5t-10.5 86q-4 92 -10 172t-6 156z" />
<glyph unicode="&#xa3;" horiz-adv-x="923" d="M6 944l168 6q-23 96 -28 207t15.5 209t73 171t144.5 93q59 12 117.5 15.5t118 -10t122 -44t131.5 -86.5l-106 -235q-53 37 -94 51t-73 14t-52.5 -11t-28.5 -26q-25 -41 -30 -88t3.5 -94t21.5 -91t26 -81q59 4 116.5 4t91.5 2q2 -25 5.5 -74t3.5 -79h-187q0 -39 -1 -96.5 t-4 -119t-7 -118.5t-10 -98h77.5t70.5 1t78 2t99 3q2 -55 6.5 -97.5t9.5 -83t10 -85t9 -105.5h-276h-340q-86 -2 -126 -1t-57 3q-18 2 -14 2q10 23 21.5 79t22.5 131t22.5 160t18.5 166t11 150.5t4 110.5h-182z" />
<glyph unicode="&#xa4;" horiz-adv-x="1142" d="M63 905l5 166h53h36.5t35 1t47.5 3q-4 63 2 124t16 128q14 55 41 100.5t60.5 81t68.5 60t64 37.5q47 20 111.5 36.5t136 26.5t144 12t136.5 -8l-27 -313q-29 -2 -69.5 0t-85.5 -1t-90.5 -16.5t-81 -44t-58 -83t-22.5 -134.5q74 -2 133 -4q51 -2 97 -4t56 -2 q2 -51 3.5 -93t-11.5 -65l-278 -2q0 -14 1 -38.5t1 -51v-51.5v-41q45 -2 95 -3t91 -1t68.5 -1t27.5 -3q2 -29 -1 -62.5t1 -87.5l-272 -8q-2 -8 1 -30.5t8 -50t12.5 -52t11.5 -35.5q16 -39 64 -61.5t109.5 -32.5t126 -13t116.5 -3q2 -29 6 -72t8 -92t5 -99.5t-1 -93.5 q-31 0 -97.5 2t-151.5 10.5t-176 28t-171 55t-137.5 93t-73.5 139.5q-4 23 -8 62.5t-7 83.5t-7.5 89.5t-6.5 77.5q-41 -4 -73.5 -2t-85.5 0v162q27 2 45 5t35.5 6t37 4t50.5 -1l2 162q-33 0 -56.5 1t-43 1h-38t-39.5 -2z" />
<glyph unicode="&#xa5;" horiz-adv-x="1323" d="M23 1458q59 53 112 103q45 41 90 80.5t68 58.5q33 -35 82 -107.5t104.5 -161t110.5 -178.5t98 -157q33 61 76 145t88 167t88 154.5t76 110.5l284 -203l-237 -387l201 2q-2 0 -3 -20.5t-1 -45v-46v-23.5l-252 -2l-117 -186l2 -96l348 12q-4 -61 -3 -83t2 -29t3 -12t0 -32 h-105t-82 -1t-77 -2t-90 -3v-512q-25 -10 -74 -12t-103.5 0t-106.5 3t-83 -3l-18 526q-102 2 -194.5 -1t-211.5 -5l-4 76l2 61l393 8l-4 99l-112 166l-299 -4l-2 59l2 86l225 4z" />
<glyph unicode="&#xa6;" horiz-adv-x="921" d="M205 317.5v176v227.5q78 -2 139.5 -3t117.5 -1t115.5 -1t133.5 -3l4 -711h-504q-4 86 -5 161t-1 154.5zM207 1231v176v229q80 -2 140.5 -3t116.5 -2t115.5 -1t133.5 -2l4 -713h-504q-4 86 -5 161t-1 155z" />
<glyph unicode="&#xa7;" horiz-adv-x="958" d="M62.5 698.5q9.5 73.5 32 132t40.5 80.5q25 31 33 45.5t13 23.5t12.5 16.5l25.5 25.5q-27 20 -44 47t-29.5 52.5t-19.5 48t-11 34.5q-18 43 -17.5 90t10 90t22.5 77t22 50q33 59 88 93t96 45q68 18 140.5 16t142 -22.5t132 -57.5t111.5 -88l-196 -205q-43 31 -61.5 45.5 t-30 18.5t-20.5 0t-32 -6q-27 -4 -37 -24.5t-8 -47.5t11.5 -52.5t19.5 -39.5t41 -43t67.5 -60.5t74.5 -61.5t63 -44q4 -4 18 -17.5t33.5 -35t40.5 -50t39 -63.5q23 -45 30 -100.5t7 -104.5q0 -57 -9 -117q-23 -74 -55.5 -141t-83.5 -106q25 -37 38 -61.5t21.5 -45t13.5 -37 t9 -37.5q23 -98 12.5 -163.5t-28.5 -100.5q-20 -37 -37 -62.5t-38.5 -44t-51 -31.5t-74.5 -26q-150 -39 -270.5 1t-241.5 139l180 221q43 -33 73 -51.5t51.5 -26.5t38.5 -5t36 13q33 18 36 46t-10.5 57.5t-41 59.5t-56.5 52l-151 121q-16 12 -36 31.5t-39.5 40t-37.5 41 t-31 35.5q-57 61 -71.5 139t-5 151.5zM391 682q0 -43 25.5 -78t54.5 -59q35 -29 78 -51q29 25 38 43t17 63q-16 47 -36.5 80t-42 55.5t-42 37.5t-34.5 28q-20 -14 -40 -47t-18 -72z" />
<glyph unicode="&#xa8;" horiz-adv-x="894" d="M63 1454q12 57 43 89t69 43t79 3t74 -28q27 -18 40 -47t15 -63t-7 -67.5t-28 -58.5q-51 -45 -105.5 -51t-98.5 16.5t-67.5 66.5t-13.5 97zM469 1454q12 57 41 90t65.5 45.5t76.5 5t73 -27.5q27 -18 40 -47t15 -63t-7 -67.5t-28 -58.5q-51 -45 -104 -52t-95 14.5 t-64.5 64.5t-12.5 96z" />
<glyph unicode="&#xa9;" horiz-adv-x="1486" d="M78 756q-4 129 13.5 241.5t58.5 196.5q43 92 127.5 154.5t184 99.5t203 49t183.5 0q109 -16 202 -60t161.5 -106.5t111.5 -138.5t53 -158q16 -119 25.5 -209t7.5 -159q-2 -70 -7 -110t-11.5 -69.5t-12.5 -56.5t-12 -70q-27 -80 -90.5 -149.5t-145 -119.5t-170 -78.5 t-161.5 -28.5q-80 0 -173.5 14t-180.5 47t-157.5 88t-107.5 135q-6 16 -21.5 49t-31.5 90.5t-31.5 142.5t-17.5 206zM371 867.5q-2 -50.5 2 -122.5q2 -55 10 -94t14 -92q8 -53 21.5 -92t36.5 -90q23 -49 108.5 -89t214.5 -38q53 0 99.5 14.5t81 36t57 46t26.5 44.5 q35 61 48.5 137t13.5 158t-10.5 166t-18.5 160q-12 94 -89 163.5t-202 79.5q-57 4 -112.5 0t-104.5 -21t-87 -50t-60 -86q-16 -37 -26.5 -70t-15.5 -71.5t-7 -89zM501 791.5q-1 74.5 6 141t30 120.5q16 41 58 68.5t94 42t107.5 17.5t102.5 -3q-2 0 -3 -31t-3 -68 q-2 -43 -4 -96h-21.5t-35 -2t-38 -6t-30.5 -14q-23 -20 -26 -32t-5 -16q-18 -66 -15 -138.5t15 -166.5q14 -29 28.5 -51t43.5 -27q23 -4 48.5 -4t49.5 -4q4 -41 9.5 -92t9.5 -94q-33 2 -69 2h-73q-53 0 -102 10t-84 39q-23 16 -45.5 47t-26.5 60q-8 70 -14 146.5t-7 151z " />
<glyph unicode="&#xaa;" horiz-adv-x="862" d="M55 893q-6 55 1 111.5t22 101.5q14 47 58 77.5t103.5 43t129 2.5t137.5 -45q-2 14 -2 42.5t-3 60.5t-11.5 59.5t-26.5 39.5q-23 14 -74 20.5t-106.5 8.5t-102.5 1t-61 -1q0 14 1 41t3 55.5t3 57t-1 49.5q45 6 122 7t158.5 -3t151.5 -14.5t100 -26.5q20 -10 37 -29.5 t29 -41t21.5 -42t13.5 -32.5q10 -35 23.5 -104.5t17.5 -162.5q6 -119 5 -241.5t9 -233.5q-8 0 -45 -1t-79 -2t-76.5 -1t-34.5 2l-33 82q-31 -16 -80 -36.5t-104.5 -33t-111.5 -13.5t-104 20q-43 31 -63.5 79t-26.5 103zM94 301v289q84 2 157 3t154.5 1h181h238.5 q0 -37 1 -71t2 -67.5t1 -70.5t-2 -82zM281 979q4 -18 12 -35q6 -14 15 -27.5t22 -19.5q10 -6 30.5 -6t42 4t41 13.5t29.5 19.5q10 16 14 33q4 14 2 28.5t-14 28.5q-20 20 -60 24.5t-63 -6.5q-12 -4 -22.5 -6t-19.5 -6t-16 -14.5t-13 -30.5z" />
<glyph unicode="&#xab;" horiz-adv-x="1818" d="M98 748q61 57 125.5 117.5t130.5 119.5q37 33 88.5 79t106.5 95t107.5 94t88.5 76q78 -59 137.5 -113.5t131.5 -115.5q-41 -33 -93.5 -80t-107.5 -97.5t-108.5 -97.5t-92.5 -82q43 -35 97.5 -81t107.5 -91t99.5 -85t72.5 -62l-215 -207q-182 133 -355 271.5t-321 259.5z M764 743q61 53 133 121t147.5 139.5t152.5 141t149 127.5q39 -31 68.5 -55.5t58 -50t60.5 -53.5t75 -62q-86 -66 -174 -147t-170 -159l354 -292l-252 -215q-111 78 -182.5 146.5t-136.5 113.5q-63 43 -125 104t-158 141z" />
<glyph unicode="&#xac;" horiz-adv-x="1167" d="M39 659q111 2 179.5 2.5t131 0.5t136 -1.5t192.5 -1.5q29 0 76 -2t103 -4t118.5 -4t124.5 -2q14 -94 18 -185t3 -182.5t-3 -184.5t-2 -187q-61 -4 -100 -4t-76 1t-83 1t-122 -2q-4 115 -3 200.5t-1 178.5q-88 2 -160.5 2h-148.5h-162h-199z" />
<glyph unicode="&#xad;" horiz-adv-x="1071" d="M129 954q111 0 188.5 2t159.5 4.5t187.5 3.5t273.5 1q0 -29 -1 -75t-2 -94t-2 -93.5t-3 -73.5l-789 -27z" />
<glyph unicode="&#xae;" horiz-adv-x="1392" d="M66 645q-10 180 16.5 310t62.5 216q37 84 103.5 143.5t150.5 96.5t179.5 51.5t187.5 7.5q82 -6 169 -39.5t159 -80.5q86 -59 133 -146.5t63 -159.5q12 -59 20.5 -98t12.5 -70.5t5 -59t1 -62.5q0 -55 -3 -113.5t-9 -114t-14.5 -104.5t-18.5 -88q-25 -90 -81 -154.5 t-129 -107.5t-155.5 -64.5t-162.5 -21.5q-84 -2 -176.5 10t-177.5 44t-153.5 89t-105.5 145q-16 37 -29.5 87.5t-23.5 102.5t-16 100t-8 81zM344 752q0 -29 1 -47.5t3 -35t3 -35t1 -44.5q6 -53 12.5 -108.5t28.5 -106.5q27 -61 121 -105.5t240 -42.5q92 2 154 52.5t89 107.5 q14 33 24.5 63.5t14.5 63.5t5 72t1 88q-2 111 -9 179.5t-15 109.5t-16.5 60t-12.5 32q-12 31 -35.5 60.5t-54.5 54t-68.5 41t-78.5 20.5q-53 2 -104.5 -1t-96.5 -17.5t-81 -43t-56 -77.5q-16 -37 -29.5 -68t-24 -67.5t-15.5 -85t-1 -119.5zM508 1126q33 -2 83 1t100 3t91 -5 t60 -23q2 -4 14 -13.5t26.5 -28t28 -47t17.5 -69.5q4 -39 4 -67.5t-4 -55t-11.5 -54.5t-17.5 -60q-14 -23 -26.5 -42.5t-28.5 -25.5l104 -242l-145 -65q-6 8 -24.5 49t-39 86t-39 83t-22.5 44q-2 -14 -2 -51t1 -79t1 -79v-53q-41 0 -84 -2t-78 0q-2 199 -7 403.5t-1 392.5z M670 961q4 -47 2 -91.5t2 -117.5q29 4 49 8t25 41l10 84q2 27 -13.5 41t-25.5 30q-4 4 -22.5 6.5t-26.5 -1.5z" />
<glyph unicode="&#xaf;" horiz-adv-x="1101" d="M121 1567q111 0 195.5 1t175 1h203h280.5q0 -25 1 -62t3 -76.5t3 -75.5t-1 -57l-858 7z" />
<glyph unicode="&#xb0;" horiz-adv-x="716" d="M74 1423q0 39 7 85t34.5 87t82 69t146.5 28q82 0 139.5 -25t93 -64.5t51 -88t15.5 -93.5q0 -133 -71.5 -207.5t-188.5 -78.5q-303 -10 -309 288zM276 1415q0 -29 11.5 -50.5t58.5 -33.5q29 0 49.5 27.5t20.5 56.5q0 31 -20.5 50.5t-49.5 19.5t-49.5 -19.5t-20.5 -50.5z " />
<glyph unicode="&#xb1;" horiz-adv-x="1216" d="M133 1083q29 4 106.5 12.5t194.5 8.5l-8 270l344 12q0 12 0 -9t-2 -61t-3 -95.5t-1 -110.5h295q2 -35 3 -82t2 -95t0 -92t-1 -73h-285v-42t1 -62.5t1 -69.5v-60.5v-39t0 -2.5q-25 0 -69.5 -1.5t-95 -2.5t-99.5 -1h-82l-6 287h-283q-4 29 -6 71t-2 86t-1 85t-3 67z M141 100l4 314q111 2 200 1t185.5 -2t213 -2t284.5 -1q0 -49 2 -88t3 -77t2 -77t-1 -86z" />
<glyph unicode="&#xb2;" horiz-adv-x="942" d="M76 1444q18 16 60 54t92.5 76t104.5 65.5t99 25.5q63 -4 105.5 -8t73 -14.5t55 -30t53.5 -51.5q59 -70 72.5 -144t-15.5 -160q-12 -37 -29.5 -61.5t-39 -43.5t-47 -39.5t-52.5 -47.5q-35 -35 -58.5 -57.5t-64.5 -57.5l11 10q12 9 19 15t6 3t-25 -30l-50 -129 q137 -4 213 -4t113 2t45 2t12 -4v-25v-68t3.5 -93t9.5 -103h-723q-4 119 11 219.5t32 172.5q23 41 51.5 77.5t75.5 94.5q33 39 61.5 60t65.5 46q-4 2 8 14.5t29.5 32t33 43t18.5 47t-12.5 46t-62.5 38.5q-29 8 -71 -16.5t-78 -57.5q-45 -39 -91 -94q-20 31 -43 66 q-18 29 -37.5 63.5t-33.5 65.5z" />
<glyph unicode="&#xb3;" horiz-adv-x="894" d="M68 571l125 217q14 -12 37.5 -24t47 -21.5t44 -16.5t30.5 -9q66 -14 108 21.5t46 95.5q0 12 -4 32.5t-13.5 42t-26 40t-40.5 24.5q-25 2 -51.5 7t-96.5 7v221l113 6q29 2 50.5 16.5t35.5 34t20.5 42t4.5 41.5q-6 57 -36 82.5t-65 29.5q-14 2 -36.5 -5t-49 -17.5 t-54.5 -23.5t-50 -25l-127 188q63 49 126.5 76.5t122 40t112 10.5t98.5 -10q31 -6 59.5 -22.5t52 -37t42 -43t26.5 -43.5q20 -49 30.5 -110.5t2 -122t-38 -114.5t-88.5 -89q78 -43 107.5 -115.5t28.5 -149.5t-20.5 -144.5t-40.5 -102.5q-18 -33 -50 -60.5t-67.5 -48 t-73.5 -31.5t-69 -9q-66 4 -119 13t-100 30q-39 16 -79 35.5t-74 41.5z" />
<glyph unicode="&#xb4;" horiz-adv-x="862" d="M174 1395q20 47 43 110.5t46.5 128t44 123t38.5 96.5l305 -161q-25 -37 -58.5 -89.5t-68.5 -106.5t-69.5 -106.5t-61.5 -91.5z" />
<glyph unicode="&#xb6;" horiz-adv-x="1126" d="M111 1263.5q6 71.5 26.5 131t51 102.5t65.5 64q35 18 72.5 31.5t103.5 15.5q47 0 93 1t87 -1l-10 -815q-133 25 -221 51t-142.5 62t-81 85t-38.5 121q-12 80 -6 151.5zM651 0l37 1612l322 -6q2 -184 -4.5 -390t-13.5 -415t-13 -412t-2 -381z" />
<glyph unicode="&#xb7;" horiz-adv-x="671" d="M72 825q18 86 60 131t94.5 63.5t109.5 15.5t106 -17t92.5 -48t65 -88.5t16 -127t-48.5 -164.5q-106 -80 -203.5 -84t-168 40t-106.5 121.5t-17 157.5z" />
<glyph unicode="&#xb8;" horiz-adv-x="651" d="M100 -326l183 344q94 -14 163 -24q29 -4 56.5 -8t46 -7.5t25.5 -4.5t-1 1q-43 -119 -77 -215q-16 -41 -30.5 -79.5t-27 -71.5t-22.5 -53.5t-15 -24.5q-18 2 -62 22.5t-93 45t-91 47t-55 28.5z" />
<glyph unicode="&#xb9;" horiz-adv-x="843" d="M37 1446l266 174l234 -2q4 -160 6 -318.5t3 -301t0 -263.5t-3 -207q-8 0 -42 1t-78 2t-91 0t-80 -3q0 145 3 287.5t7 256.5t6 188.5t0 87.5q-16 -10 -40.5 -23.5t-47 -25t-38 -19.5t-13.5 -6q-29 57 -45 94t-47 78z" />
<glyph unicode="&#xba;" horiz-adv-x="862" d="M51 1229q0 63 10 123q20 109 83 173t135 70q20 2 59 6.5t85 5.5t97 -3.5t98.5 -19.5t86 -45t61.5 -77q12 -29 21.5 -79t15.5 -110.5t7 -126t-1 -124.5t-8 -105.5t-17 -66.5q-27 -55 -56.5 -85t-70.5 -44t-94 -19.5t-127 -9.5q-49 -4 -97 -3t-92 17.5t-87 53t-84 106.5 q-10 63 -16.5 118.5t-6.5 115.5q-2 66 -2 129zM123 303v277q82 2 151.5 4t143.5 3t161 1h201l2 -283zM344 1307q0 -84 1 -142.5t3 -98.5t7 -64.5t16 -40.5q10 -18 32.5 -29.5t46 -10.5t42 15t22.5 47q2 27 4 45.5t3 48t0 79.5t-7 140q-4 49 -30.5 68.5t-57.5 16.5 t-56.5 -23.5t-25.5 -50.5z" />
<glyph unicode="&#xbb;" horiz-adv-x="1740" d="M195 467l342 287q-72 66 -153 141.5t-179 159.5q41 35 72.5 61.5t59.5 51t56.5 49t65.5 53.5q70 -57 145.5 -124t151 -135.5t146.5 -135t130 -121.5l-590 -508zM815 442q25 23 67 61t92 81t104.5 89t101.5 85q-41 35 -86 77t-92.5 85t-93.5 85.5t-87 77.5q43 37 73 62.5 t57.5 49.5t58 48.5t77.5 59.5q53 -49 128 -124t154 -155t152.5 -154.5t123.5 -124.5q-68 -61 -145 -130.5t-156.5 -141.5t-159.5 -140.5t-150 -127.5z" />
<glyph unicode="&#xbc;" horiz-adv-x="1806" d="M37 1434l303 219l205 8q4 -160 7 -319.5t3 -303v-265.5t-2 -208h-43h-79t-92 -1t-81 -3q0 145 2 282.5t4 245t3 176t-1 81.5q-16 -10 -40.5 -28t-47 -34t-38 -27.5t-13.5 -9.5q-29 57 -44 101.5t-46 85.5zM420 39l139 369q57 154 102.5 301t94.5 303.5t111.5 328.5 t154.5 379l240 -125q-29 -78 -51.5 -139t-42 -111.5t-35 -92.5t-29.5 -78q-4 -12 -23.5 -69.5t-49.5 -146t-65.5 -196t-73.5 -221t-74 -222t-66.5 -196.5t-50 -146.5t-25.5 -72.5zM936 268v27.5t1 44.5t2 50.5t1 47.5q16 39 44 100.5t61.5 132t70.5 143.5t69 135.5 t57.5 106.5t37.5 56h62.5h80.5h88h82l15 -616q66 -2 93.5 -1t39.5 -1l-2 -230h-16.5h-22.5t-36 1t-54 1v-266q-59 0 -113.5 2t-126.5 0v46.5v45t-1 64.5t-1 106zM1227 492q20 0 30.5 1t22.5 1t32.5 1t59.5 1q-2 78 -7 143.5t1 151.5q-18 -49 -32.5 -81t-30 -63t-34 -65.5 t-42.5 -89.5z" />
<glyph unicode="&#xbd;" horiz-adv-x="1820" d="M37 1434l303 219l221 8q4 -160 3 -319.5t-4 -304t-6 -267.5t-5 -209q-8 0 -43 1t-79 2t-92 0t-81 -3q0 145 3 282.5t6 245t4 176t-1 81.5q-16 -10 -40.5 -28t-47 -34t-38 -27.5t-13.5 -9.5q-29 57 -44 101.5t-46 85.5zM444 31l123 377q51 156 92 304t88.5 302.5 t109 326.5t153.5 379l272 -125q-70 -143 -106.5 -244.5t-63.5 -176.5q-4 -10 -22.5 -67.5t-46 -146t-63.5 -200t-72 -227t-71.5 -226t-64.5 -201t-48 -149.5t-24 -70zM1077 930q33 33 71 69.5t81 68.5t93 53.5t108 21.5q74 0 132 -16.5t101 -73.5q8 -10 30.5 -38t40 -71 t19.5 -101.5t-33 -129.5q-16 -33 -39.5 -66t-46.5 -59q-24 -31 -53 -60q-29 -23 -51 -45q-20 -20 -42 -45.5t-34 -48.5q-8 -14 -14 -29.5t-10 -29.5q-6 -16 -13 -35q80 -4 130 -4h85h61.5h59.5q4 -29 4 -67v-78v-77.5t4 -68.5h-55h-109.5h-138.5h-140.5t-117.5 -1t-70 -3 q-2 90 -1 131t2.5 62.5t2.5 39t1 62.5q8 41 26.5 85t43 85t51 74.5t51.5 54.5q12 10 31.5 27.5t41 36t39 35t27.5 24.5t18.5 29.5t8.5 45t-9.5 47t-33.5 37.5q-27 16 -64 -1t-70.5 -43.5t-56 -51t-22.5 -22.5z" />
<glyph unicode="&#xbe;" horiz-adv-x="1738" d="M31 635l123 203q61 -43 94 -68t59 -29q41 -4 74 16.5t31 86.5q-4 31 -9.5 52.5t-19.5 35.5t-41 22.5t-72 10.5l-71 4l2 215q113 2 166 32.5t49 102.5q-2 33 -13.5 51.5t-28 24.5t-37 5t-38.5 -7q-12 -4 -21.5 -6.5t-20.5 -9.5t-29.5 -19t-49.5 -33l-127 199 q39 33 65.5 56.5t53.5 38.5t62.5 23.5t97.5 10.5q20 4 55 -1t73 -21.5t73.5 -46.5t58.5 -73q33 -66 40 -130t-16 -167q-16 -72 -125 -116q20 -10 44 -24.5t44.5 -34t34 -42t15.5 -47.5q10 -104 -3.5 -189t-48.5 -151q-18 -35 -50.5 -59.5t-68.5 -41.5t-69 -24.5t-49 -3.5 q-61 2 -100 15.5t-71 35t-62.5 48t-73.5 55.5zM412 23l139 372l446 1313l240 -117q-70 -143 -100.5 -244.5t-57.5 -177.5q-4 -10 -22.5 -67.5t-48 -145.5t-66.5 -197.5t-75 -224t-74.5 -225t-66.5 -200t-50.5 -148.5t-24.5 -70zM879 240q0 8 2 29.5t4 49t4 56t2 51.5 q16 39 46 101.5t66.5 134t75.5 146.5t75 138.5t62.5 108.5t38.5 57h59t72.5 1t79.5 2t78 1l19 -600q66 -2 97.5 -3t43.5 -3l-14 -258q-8 0 -15.5 -1t-20 -1h-32.5h-53v-266h-122t-134 -2v46v44.5t-1 64.5t-1 107zM1190 508q20 0 27.5 -1t16.5 -1t25.5 -1t55.5 -1 q0 39 -1 70.5t-1 62.5v64.5t4 76.5q-18 -49 -30.5 -76.5t-26 -52t-30 -55.5t-40.5 -86z" />
<glyph unicode="&#xbf;" horiz-adv-x="886" d="M52 -87q-3 54 10.5 105.5t35.5 92.5q2 25 27 62.5t60.5 85.5t73.5 103.5t69 110.5q18 35 26 74t9.5 75.5t0 70.5t-1.5 59q68 4 107 7t69.5 6t64.5 6t89 3q-4 -4 4.5 -54t8.5 -123t-17.5 -159t-71.5 -159q-37 -51 -82 -99.5t-72.5 -92.5t-23.5 -86t70 -79q27 -16 72 -15 t89 8t77.5 14.5t41.5 0.5l25 -313q-49 -6 -88 -13t-76 -13.5t-77 -8.5t-91 4q-59 6 -105 14.5t-83 20.5t-68.5 31.5t-64.5 48.5q-55 49 -80 103.5t-28 108.5zM328 1092q12 57 41.5 89.5t65.5 46t75 12.5t74 -13q27 -10 52.5 -35t38.5 -62.5t10 -87t-32 -108.5 q-70 -55 -133 -57.5t-110.5 27.5t-71 81t-10.5 107z" />
<glyph unicode="&#xc0;" d="M2 2l358 1438l146 10q23 -10 64.5 -6t105.5 6l164 4l391 -1452l-422 -4q-10 47 -16.5 74.5t-13.5 51t-14 49.5t-20 69q-63 -2 -132.5 -6.5t-129.5 -6.5l-65 -229q-61 0 -106.5 -1t-89.5 -1t-95 1t-125 3zM297 1886l287 191q27 -49 49 -104.5t44.5 -110t44 -105.5 t44.5 -94l-209 -131q-61 100 -126.5 181t-133.5 173zM522 573q-2 0 18.5 -1t51.5 -2t65.5 -1t61.5 4l-98 476q-16 -70 -33 -153t-31 -154.5t-23.5 -120t-11.5 -48.5z" />
<glyph unicode="&#xc1;" d="M2 2l363 1466l145 2q18 -4 58 -2t104 2h213l346 -1468l-422 -4q-10 47 -16.5 74.5t-13.5 51t-14 49.5t-20 69q-63 -2 -134.5 -2t-131.5 -2l-61 -238q-61 0 -106.5 -1t-89.5 -1t-95 1t-125 3zM440 1665q23 43 44.5 96.5t43 108.5t41 107.5t39.5 90.5l289 -182 q-29 -37 -63.5 -81t-70.5 -90t-72 -89t-66 -76zM522 573q-2 0 18.5 -1t51.5 -2t65.5 -1t61.5 4l-98 476q-16 -70 -33 -153t-31 -154.5t-23.5 -120t-11.5 -48.5z" />
<glyph unicode="&#xc2;" d="M2 2l354 1438l146 -2q18 -4 66 0t112 4h197l354 -1440l-422 -4q-10 47 -16.5 74.5t-13.5 51t-14 49.5t-20 69q-63 -2 -134.5 -2t-131.5 -2l-61 -238q-61 0 -106.5 -1t-89.5 -1t-95 1t-125 3zM264 1673l359 285q37 -31 70.5 -52.5t74.5 -62.5q43 -47 95 -90t87 -80 l-164 -153q-47 45 -83.5 79.5t-84.5 75.5q-18 -16 -29 -24.5t-22.5 -16.5t-25 -17t-33.5 -28l-84 -71q-35 33 -83 75.5t-77 79.5zM522 573q-2 0 18.5 -1t51.5 -2t65.5 -1t61.5 4l-98 476q-16 -70 -33 -153t-31 -154.5t-23.5 -120t-11.5 -48.5z" />
<glyph unicode="&#xc3;" d="M2 2l363 1442l145 10q18 -4 56 -1t102 3l200 2l363 -1456l-422 -4q-10 47 -16.5 74.5t-13.5 51t-14 49.5t-20 69q-63 -2 -134.5 -2t-131.5 -2l-61 -238q-61 0 -106.5 -1t-89.5 -1t-95 1t-125 3zM207 1722q20 33 53 66t71 59.5t75.5 44t68.5 17.5q37 0 65.5 -18.5t52 -40 t45 -40t48.5 -18.5q29 0 77 30.5t89 75.5l156 -184q-27 -43 -64 -73.5t-77 -50t-78.5 -30t-71.5 -10.5q-37 0 -66.5 15.5t-56.5 33t-50.5 33t-49.5 15.5q-31 -12 -59.5 -33t-55.5 -64zM522 573q-2 0 18.5 -1t51.5 -2t65.5 -1t61.5 4l-98 476q-16 -70 -33 -153t-31 -154.5 t-23.5 -120t-11.5 -48.5z" />
<glyph unicode="&#xc4;" d="M2 2l354 1446l154 10q18 -4 56 3t102 5l192 -4l371 -1460l-410 -4q-10 47 -16 74.5t-13.5 50t-14.5 47.5t-19 68q-63 -2 -141 -5.5t-138 0.5l-61 -233q-61 0 -106.5 -1t-89.5 -1t-95 1t-125 3zM240 1763q12 57 42.5 89t68.5 43.5t79 3t74 -28.5q27 -18 40 -47t15 -63 t-7 -67.5t-28 -58.5q-51 -45 -105 -51t-98.5 16.5t-68 66.5t-12.5 97zM526 573q-2 0 17.5 -1t49.5 -1h63.5t62.5 2l-111 463q-20 -70 -35.5 -150.5t-24.5 -150t-14.5 -116t-7.5 -46.5zM657 1759q12 57 41 90t66 45.5t76.5 5t72.5 -27.5q27 -18 40.5 -47t15.5 -62.5 t-7.5 -67.5t-27.5 -59q-51 -45 -104.5 -52t-95.5 14.5t-64.5 64.5t-12.5 96z" />
<glyph unicode="&#xc5;" d="M2 0q6 33 31.5 128t61.5 221t77 268.5t79 270.5t65.5 227t35.5 140q-23 14 -47 47t-43.5 72t-30 80t-4.5 74q10 63 43 114.5t81 87t108.5 54t126.5 16.5q78 -2 145.5 -20.5t117.5 -54t78.5 -89t28.5 -123.5q0 -29 -11 -65.5t-27.5 -71.5t-38 -64.5t-41.5 -45.5l223 -688 q20 -61 43.5 -136t47.5 -154t44.5 -155t34.5 -137h-49h-78h-91h-89h-71h-36l-69 252l-267 -2q-20 -61 -31.5 -99t-18.5 -63t-12 -43t-11 -43q-25 6 -79.5 6t-116.5 -2t-120.5 -4t-89.5 2zM498 580h196l-88 548zM528 1489q0 -33 10.5 -56.5t51.5 -37.5q33 0 61.5 20.5 t28.5 65.5q0 35 -20.5 59.5t-53.5 24.5t-55.5 -20.5t-22.5 -55.5z" />
<glyph unicode="&#xc6;" horiz-adv-x="1671" d="M41 2l82 227l557 1360q109 4 215 5t217 -1t227.5 -6t247.5 -6q-8 -49 -10 -81t-3 -63.5t-2 -69.5t-7 -99l-371 -17v-264q82 -6 171 -11t187 -13q0 -51 1 -85t2 -67t0 -68.5t-7 -89.5l-350 4q4 -68 4 -146.5t4 -143.5q49 0 90 -1t84 -2.5t94.5 -2.5t120.5 -1 q-6 -57 -3 -98t7.5 -78t8.5 -76.5t2 -97.5q-111 -2 -201 -3t-176 -2t-180.5 -1h-212.5l-11 211l-280 10l-84 -221q-57 0 -102.5 -2t-91.5 -4t-100 -1t-130 5zM618 571l201 -8l-12 555q-12 -35 -18.5 -51t-10.5 -27.5t-9 -27t-15 -49.5q-12 -37 -30.5 -90.5t-38 -108.5 t-38 -107.5t-29.5 -85.5z" />
<glyph unicode="&#xc7;" horiz-adv-x="1019" d="M92 693.5q-2 150.5 10.5 316.5t40.5 336q16 102 83 155t165 82q84 35 225.5 46t321.5 3l-18 -368q-53 0 -117 1t-122 -10.5t-106.5 -39t-68.5 -82.5q-10 -115 -16.5 -190t-7.5 -139.5t2 -135t10 -174.5q4 -74 53 -111t115.5 -49t136 -9t114.5 7q-2 -31 2.5 -75t9.5 -93 t8 -99.5t1 -93.5q-16 0 -48 -2t-69 -3t-77 0t-74 5q-39 -115 -72 -207q-14 -39 -27.5 -76.5t-26 -68.5t-21.5 -51.5t-13 -24.5q-12 2 -57.5 22.5t-98.5 44t-99 45t-58 28.5l194 325q-92 18 -157.5 67.5t-84.5 121.5q-23 92 -37 219t-16 277.5z" />
<glyph unicode="&#xc8;" horiz-adv-x="1060" d="M102.5 355.5q-0.5 185.5 3 368.5t8.5 368.5t5 386.5q125 6 230.5 7t207.5 2t211 1t242 4q-6 -51 -11.5 -88t-8.5 -73t-7 -79t-8 -104l-481 -8l-9 -230q86 -4 193.5 5.5t214.5 9.5q-2 -53 1 -92t7 -76t8 -77t4 -95l-432 -15q4 -66 5 -111.5t6 -111.5q137 8 270 9t231 -9 q-2 -55 0 -98t4 -83t3 -82t1 -93q-115 -8 -221 -10t-211.5 -3.5t-218 -2.5t-239.5 -5q-8 199 -8.5 384.5zM195 1923l286 191q27 -49 49.5 -104.5t45 -110t44 -105.5t44.5 -94l-209 -131q-61 100 -127 181t-133 173z" />
<glyph unicode="&#xc9;" horiz-adv-x="1062" d="M102.5 355.5q-0.5 185.5 3 368.5t8.5 368.5t5 386.5q125 6 230.5 7t207.5 2t211 1t242 4q-6 -51 -11.5 -88t-8.5 -73t-7 -79t-8 -104l-481 -8l-9 -230q86 -4 193.5 5.5t214.5 9.5q-2 -53 1 -92t7 -76t8 -77t4 -95l-432 -15q4 -66 5 -111.5t6 -111.5q137 8 270 9t231 -9 q-2 -55 0 -98t4 -83t3 -82t1 -93q-115 -8 -221 -10t-211.5 -3.5t-218 -2.5t-239.5 -5q-8 199 -8.5 384.5zM385 1671q20 45 39.5 98.5t40 108.5t39 107.5t37.5 93.5l290 -154q-27 -39 -57.5 -86t-63 -95t-65.5 -93t-61 -80z" />
<glyph unicode="&#xca;" horiz-adv-x="1056" d="M96 355.5q0 185.5 3 368.5t8.5 368.5t5.5 386.5q125 6 230.5 7t207.5 2t210.5 1t242.5 4q-6 -51 -11.5 -88t-8.5 -73t-7 -79t-8 -104l-482 -8l-8 -230q86 -4 193.5 5.5t214.5 9.5q-2 -53 1 -92t7 -76t8 -77t4 -95l-432 -15q4 -66 5 -111.5t5 -111.5q137 8 270.5 9 t231.5 -9q-2 -55 0 -98t4 -83t3 -82t1 -93q-115 -8 -221 -10t-211.5 -3.5t-218.5 -2.5t-240 -5q-8 199 -8 384.5zM174 1708l371 301q37 -31 87 -63.5t95 -71.5q47 -41 103.5 -83t91.5 -79l-177 -145q-47 45 -98 73.5t-98 69.5q-18 -16 -31.5 -25.5t-27 -17.5t-29 -18.5 t-35.5 -28.5l-68 -59q-16 16 -41.5 34.5t-52 37t-51.5 38t-39 37.5z" />
<glyph unicode="&#xcb;" horiz-adv-x="1062" d="M102.5 355.5q-0.5 185.5 3 368.5t8.5 368.5t5 386.5q125 6 230.5 7t207.5 2t211 1t242 4q-6 -51 -11.5 -88t-8.5 -73t-7 -79t-8 -104l-481 -8l-9 -230q86 -4 193.5 5.5t214.5 9.5q-2 -53 1 -92t7 -76t8 -77t4 -95l-432 -15q4 -66 5 -111.5t6 -111.5q137 8 270 9t231 -9 q-2 -55 0 -98t4 -83t3 -82t1 -93q-115 -8 -221 -10t-211.5 -3.5t-218 -2.5t-239.5 -5q-8 199 -8.5 384.5zM188 1804q12 57 43 89t69 43.5t79 3t74 -28.5q27 -18 40 -47t15 -63t-7 -67.5t-28 -58.5q-51 -45 -105.5 -51t-98.5 16.5t-67.5 66.5t-13.5 97zM606 1800q12 57 41 90 t66 45.5t76.5 5t72.5 -27.5q27 -18 40 -47t15.5 -63t-7 -67.5t-27.5 -58.5q-51 -45 -104.5 -52t-95.5 14.5t-64.5 64.5t-12.5 96z" />
<glyph unicode="&#xcc;" horiz-adv-x="706" d="M70 1923l252 186q25 -47 48 -98t47.5 -102t49.5 -100.5t49 -90.5l-172 -137q-70 96 -135.5 175t-138.5 167zM162 2q2 211 4 399q0 80 1 162t2 156t1 134v99q0 82 -1 133.5t-2 86t-2 61.5t-1 59.5t2 78.5t6 122q35 0 96.5 1t123 1h110.5h61q6 -211 9 -391t4.5 -355.5 t1.5 -356.5v-392z" />
<glyph unicode="&#xcd;" horiz-adv-x="681" d="M129 2q2 211 4 399q0 80 1 162t2 156t1 134v99q0 82 -1 133.5t-2 86t-2 61.5t-1 59.5t2 78.5t6 122q35 0 96.5 1t123 1h110.5h61q6 -211 9.5 -391t4.5 -355.5t1 -356.5v-392zM174 1688q20 45 41 98t41 108.5t39.5 107.5t38.5 93l282 -153q-27 -39 -57.5 -86.5t-63 -95.5 t-65.5 -93t-61 -80z" />
<glyph unicode="&#xce;" horiz-adv-x="604" d="M-59 1800l362 297q33 -35 63.5 -54.5t77.5 -55.5q49 -41 110.5 -91.5t96.5 -91.5l-147 -170q-47 45 -102.5 90t-102.5 86q-18 -16 -29.5 -24t-22.5 -16.5t-24.5 -17.5t-34.5 -28l-104 -88q-35 35 -75 81t-68 83zM97 1249.5q-1 57.5 0 123t9 177.5q43 6 80 6t80 -1 t96.5 -3t124.5 2q6 -211 11.5 -401t8.5 -376.5t6 -378t3 -402.5l-403 4q-4 205 -7 387q0 78 -1 158t-2 151.5t-1 132v99.5q0 123 -2 193.5t-3 128z" />
<glyph unicode="&#xcf;" horiz-adv-x="641" d="M-35 1808q12 57 43 89t69 43.5t78.5 3t73.5 -28.5q27 -18 40.5 -47t15.5 -62.5t-7.5 -67.5t-27.5 -59q-51 -45 -105.5 -51t-98.5 16.5t-67.5 66.5t-13.5 97zM82 1318q0 38 2 87t6 125q43 2 86 1t93 -1h108.5t130.5 4q6 -211 10 -397.5t7 -368.5t5 -369.5t2 -398.5h-436 q-2 209 -2 395v549q0 82 -2 136.5t-4 94t-4 72.5t-2 71zM340 1804q12 57 41 90t65.5 45.5t76.5 5t73 -27.5q27 -18 40 -47t15 -62.5t-7 -67.5t-28 -59q-51 -45 -104 -52t-95 14.5t-64.5 64.5t-12.5 96z" />
<glyph unicode="&#xd0;" horiz-adv-x="1198" d="M-43 649v346q29 2 58.5 3t88.5 6v624q154 -2 300.5 -18.5t272.5 -54t221 -101t146 -162.5q41 -127 58.5 -245.5t19.5 -229t-10 -215t-31 -201.5q-14 -78 -100 -149.5t-219 -128.5t-301 -92t-344 -39q-6 113 -7 274.5t-4 384.5zM475 395q35 8 65.5 14.5t56.5 19.5 t46.5 35.5t34.5 61.5q29 74 32 156t1 190q0 45 -1 88.5t-7.5 81t-21.5 70.5t-46 55q-33 23 -68 34t-90 13v-233h115l-2 -317h-113z" />
<glyph unicode="&#xd1;" horiz-adv-x="1384" d="M106 0l17 1489l383 -12q33 -55 75 -135t93 -177.5t108.5 -209t122.5 -228.5l2 754l363 8q4 -213 6 -390t1 -347t-5 -350.5t-12 -397.5q-66 -4 -113 -4t-87 1l-80 2t-91 1q-23 45 -66 136t-98 203t-115.5 232.5t-117.5 229.5q2 -100 -0.5 -218t-6.5 -229.5t-6 -207 t0 -150.5h-373zM287 1729q20 33 53 65.5t71 59t75.5 44t68.5 17.5q37 0 65.5 -18.5t52 -40t45 -40t48.5 -18.5q29 0 77 31t89 76l155 -185q-27 -43 -63.5 -73.5t-76.5 -50t-79 -30t-71 -10.5q-37 0 -67 15.5t-56.5 33t-50 33t-50.5 15.5q-31 -12 -59.5 -33t-54.5 -64z" />
<glyph unicode="&#xd2;" horiz-adv-x="1107" d="M74 931.5q0 110.5 15 212t51 182.5t102 116q25 12 74 23.5t111 17.5t132 6t134.5 -8t117.5 -25.5t84 -46.5t54.5 -80t41 -107.5t27.5 -106.5t12 -77q2 -45 3 -123.5t1 -173t-3 -196t-10 -191.5t-18.5 -159.5t-27.5 -102.5q-16 -31 -50 -52.5t-75 -35.5t-86 -23.5 t-84 -15.5q-55 0 -130 -2t-148.5 7.5t-136 33t-93.5 74.5q-33 51 -50.5 138t-26.5 182.5t-12 183.5t-5 143q-4 96 -4 206.5zM188 1923l279 191q53 -100 98 -211t92 -203l-192 -131q-68 88 -138.5 175t-138.5 179zM461 1049q0 -90 1 -160t5 -144.5t8 -166t10 -220.5 q2 -39 27 -60.5t63 -8.5q57 4 75 30.5t18 71.5q0 102 1 193.5t1 180.5t-4 177t-15 184q-4 33 -17 48.5t-32.5 20.5t-42 3t-47.5 -4q-23 -6 -32 -21.5t-12 -35t-4 -43t-3 -45.5z" />
<glyph unicode="&#xd3;" horiz-adv-x="1112" d="M74 932.5q0 111.5 15 215t51 185.5t102 117q25 12 74 23.5t110 17.5t131 6t133.5 -7t117.5 -22.5t87 -42.5q25 -18 48.5 -63t43 -100.5t32.5 -115t15 -108.5q2 -45 3 -123.5t0 -173t-4 -196t-10 -191.5t-19.5 -159.5t-28.5 -102.5q-16 -31 -50 -52.5t-75 -35.5t-86 -23.5 t-84 -15.5q-55 0 -130 -2t-148.5 7.5t-136 33t-93.5 74.5q-33 51 -50.5 138t-26.5 182.5t-12 183.5t-5 143q-4 96 -4 207.5zM362 1677q20 45 42 98.5t43.5 108.5t41 107.5t37.5 93.5l283 -154q-27 -39 -57.5 -86t-63.5 -95t-65.5 -93t-61.5 -80zM461 1049q0 -90 1 -160 t5 -144.5t8 -166t10 -220.5q2 -39 27 -60.5t63 -8.5q57 4 75 30.5t18 71.5q0 102 1 193.5t1 180.5t-4 177t-15 184q-4 33 -17 49.5t-32.5 21.5t-42 4t-47.5 -3q-23 -6 -32 -21.5t-12 -36t-4 -45t-3 -46.5z" />
<glyph unicode="&#xd4;" horiz-adv-x="1120" d="M73 930.5q-1 109.5 14 211t50 181.5t101 115q37 20 127 35.5t193.5 17.5t198.5 -13.5t142 -56.5q53 -47 88 -138t51 -241q4 -43 6.5 -121.5t1 -173t-6.5 -196.5t-13 -193.5t-21.5 -162t-29.5 -103.5q-16 -31 -50 -52.5t-75 -35.5t-86 -23.5t-84 -15.5q-55 0 -130 -2 t-148.5 7.5t-136 33t-93.5 74.5q-33 51 -50.5 138t-26.5 182.5t-12 183.5t-5 143q-4 96 -5 205.5zM193 1737l350 301q37 -31 76.5 -59.5t85.5 -67.5q45 -41 104 -87t94 -83l-164 -166q-47 45 -94 82t-94 78q-18 -16 -27.5 -25.5t-18.5 -16.5t-20.5 -16.5t-31.5 -27.5 l-93 -76q-16 16 -39.5 37.5l-47 43t-45 43t-35.5 40.5zM461 1049q0 -90 1 -160t5 -144.5t8 -166t10 -220.5q2 -39 27 -60.5t63 -8.5q57 4 75 30.5t18 71.5q0 102 1 188.5t1 167t-4 163.5t-15 180q-4 33 -16 51t-30.5 25.5t-41 8.5t-47.5 -1q-43 -12 -46 -45t-9 -80z" />
<glyph unicode="&#xd5;" horiz-adv-x="1114" d="M75 932.5q-1 111.5 12 215t48 185.5t101 117q25 12 74.5 24.5t112 19.5t133.5 9t137.5 -4t120.5 -20.5t87 -40.5q25 -18 47.5 -65.5t42 -105t31.5 -119t14 -110.5q2 -45 3 -123.5t0 -173t-4 -196t-10 -191.5t-19.5 -159.5t-28.5 -102.5q-16 -31 -50 -52.5t-75 -35.5 t-86 -23.5t-84 -15.5q-55 0 -130 -2t-148.5 7.5t-136 33t-93.5 74.5q-33 51 -50.5 138t-26.5 182.5t-12 183.5t-5 143q-4 96 -5 207.5zM119 1769q20 33 53 66t71 59.5t75.5 44t68.5 17.5q37 0 65.5 -18.5t52 -40t45 -40t48.5 -18.5q29 0 77 31t89 76l156 -185 q-27 -43 -64 -73.5t-77 -50t-78.5 -30t-71.5 -10.5q-37 0 -67 15.5t-56.5 33t-50 33t-49.5 15.5q-31 -12 -60 -33t-55 -64zM463 1049q0 -90 1 -160t5 -144.5t8 -166t10 -220.5q2 -39 27 -60.5t64 -8.5q57 4 74.5 30.5t17.5 71.5q0 102 1 193.5t1 180.5t-4 177t-15 184 q-4 33 -17 49.5t-32.5 21.5t-42 4t-47.5 -3q-23 -6 -32 -21.5t-12 -36t-4 -45t-3 -46.5z" />
<glyph unicode="&#xd6;" horiz-adv-x="1110" d="M75 932.5q-1 111.5 12 215t48 185.5t101 117q25 12 75.5 25.5t116.5 21.5t138.5 11t138 -3t120 -23.5t80.5 -47.5q35 -39 56.5 -88.5t36 -101.5t20.5 -106.5t10 -103.5q4 -45 6 -124t2 -172t-3 -194.5t-10 -190.5t-18.5 -158.5t-27.5 -102.5q-16 -31 -50 -52.5t-75 -35.5 t-86 -23.5t-84 -15.5q-55 0 -130 -2t-148.5 7.5t-136 33t-93.5 74.5q-33 51 -50.5 138t-26.5 182.5t-12 183.5t-5 143q-4 96 -5 207.5zM186 1772q12 57 43 88.5t69 43t79 3t74 -28.5q27 -18 40 -47t15 -62.5t-7.5 -67.5t-27.5 -59q-51 -45 -105.5 -51t-98.5 16.5t-67.5 66.5 t-13.5 98zM463 1049q0 -90 1 -160t5 -144.5t8 -166t10 -220.5q2 -39 27 -60.5t64 -8.5q57 4 74.5 30.5t17.5 71.5q0 102 1 193.5t1 180.5t-4 177t-15 184q-4 33 -17 49.5t-32.5 21.5t-42 4t-47.5 -3q-23 -6 -32 -21.5t-12 -36t-4 -45t-3 -46.5zM586 1774q12 57 39.5 89.5 t63.5 45t74 5t71 -27.5q27 -18 42 -47t18 -62.5t-5 -67.5t-27 -58q-51 -45 -104 -52.5t-95 14t-65 64.5t-12 97z" />
<glyph unicode="&#xd7;" horiz-adv-x="1140" d="M137 1008l225 221q8 -6 34 -32t56.5 -57.5t60.5 -62t46 -47.5q63 66 103 112t73 79q20 -18 51 -48t62 -61t58.5 -59.5t43.5 -44.5l-180 -191q74 -72 113.5 -107.5t66.5 -70.5q-16 -14 -44.5 -40t-60.5 -55.5t-61.5 -59t-50.5 -48.5l-182 168l-172 -172q-18 14 -50 45 t-67 64.5t-65.5 64.5t-46.5 45q29 37 70.5 75t109.5 105z" />
<glyph unicode="&#xd8;" horiz-adv-x="1081" d="M50 1063.5q1 105.5 15.5 203t47 178.5t92.5 128q35 29 113.5 56.5t170.5 31.5q70 2 127.5 -7t103.5 -27.5t83 -44.5t67 -56q6 12 20.5 37.5t31 53.5t33 52.5t22.5 38.5l119 -66q-29 -51 -62 -103t-61 -107q33 -39 45 -86.5t16 -69.5q10 -53 19.5 -138t15.5 -184.5 t10 -203t4 -196.5t-3 -165t-9 -104q-8 -39 -21.5 -80t-32 -78t-42 -65.5t-51.5 -45.5q-51 -29 -126 -48t-134 -25q-78 0 -137.5 11t-105.5 34.5t-81 55.5t-64 73q-16 -20 -42.5 -65.5t-71.5 -98.5l-111 90l144 219q-27 47 -51.5 124t-44 162t-32 169t-14.5 145 q-4 96 -3 201.5zM403.5 1029q2.5 -75 8.5 -162t20 -169q68 121 124 242t128 244q-14 59 -35.5 90t-44.5 41q-24 12 -53 10q-53 -6 -87 -31.5t-48 -62.5q-6 -18 -10.5 -72.5t-2 -129.5zM469 440q4 -72 41 -120t92 -52q39 -4 65.5 11.5t43.5 31.5q18 20 28 47q-6 0 -9 136.5 t-15 433.5q-35 -61 -64.5 -118.5t-59.5 -116t-59.5 -121t-62.5 -132.5z" />
<glyph unicode="&#xd9;" horiz-adv-x="1173" d="M67 1033q-1 87 1 193.5t8 258.5l354 2l6 -785q0 -63 9.5 -128.5t28 -118t48 -85t70.5 -32.5q37 0 62.5 27.5t42 73.5t23.5 103.5t7 116.5l2 826h365q0 -86 1 -136.5t1 -78t1 -39.5t1 -21.5t1 -21.5t2 -41t1 -80t2 -137q2 -92 -3 -206t-14.5 -219.5t-22.5 -186t-28 -105.5 q-29 -57 -72.5 -96t-97 -63.5t-115 -38t-122.5 -21.5q-145 0 -241.5 23.5t-156 72.5t-90 126t-45.5 185q-6 37 -9 79t-4 82t-2 76t-3 60q-4 92 -7 170t-4 165zM258 1915l295 190q27 -49 49.5 -104t45 -109.5t44 -105.5t43.5 -94l-209 -131q-66 98 -133 180t-135 174z" />
<glyph unicode="&#xda;" horiz-adv-x="1173" d="M66 1033q0 97 3 213t9 267l362 -2l-6 -837q0 -63 8.5 -129t27.5 -118t49 -85t71 -33q39 0 64.5 26.5t41 72t22.5 102.5t7 121l6 878l373 -4v-171v-84.5t-1 -44t-2 -45.5t-1 -87t2 -172q2 -92 -3 -205.5t-14.5 -219t-22.5 -186.5t-28 -106q-29 -57 -72.5 -96t-97 -63.5 t-115 -38t-122.5 -21.5q-145 0 -241.5 23.5t-156 73t-90 126t-45.5 185.5q-6 37 -9 79t-4 81.5t-2 75.5t-3 61q-4 92 -7 179t-3 184zM395 1665q20 45 44 98.5t47.5 108.5t45 107.5t39.5 93.5l271 -154q-27 -39 -58.5 -86t-66.5 -95t-69 -93.5t-62 -79.5z" />
<glyph unicode="&#xdb;" horiz-adv-x="1173" d="M66 1033q0 97 3 213t9 267l362 -2l-6 -837q0 -63 8.5 -129t27.5 -118t49 -85t71 -33q39 0 64.5 26.5t41 72t22.5 102.5t7 121l6 878l373 -4v-171v-84.5t-1 -44t-2 -45.5t-1 -87t2 -172q2 -92 -3 -205.5t-14.5 -219t-22.5 -186.5t-28 -106q-29 -57 -72.5 -96t-97 -63.5 t-115 -38t-122.5 -21.5q-145 0 -241.5 23.5t-156 73t-90 126t-45.5 185.5q-6 37 -9 79t-4 81.5t-2 75.5t-3 61q-4 92 -7 179t-3 184zM201 1753l387 318q37 -31 86 -68t92 -76l203 -182l-176 -170q-47 45 -98.5 94t-98.5 90q-18 -16 -29.5 -25.5t-23 -18.5t-24.5 -20.5 t-34 -29.5l-104 -88q-16 16 -41 38.5t-51.5 47.5t-50 48.5t-37.5 41.5z" />
<glyph unicode="&#xdc;" horiz-adv-x="1173" d="M66 1033q0 97 3 213t9 267l362 -2l-6 -837q0 -63 8.5 -129t27.5 -118t49 -85t71 -33q39 0 64.5 26.5t41 72t22.5 102.5t7 121l6 878l373 -4v-171v-84.5t-1 -44t-2 -45.5t-1 -87t2 -172q2 -92 -3 -205.5t-14.5 -219t-22.5 -186.5t-28 -106q-29 -57 -72.5 -96t-97 -63.5 t-115 -38t-122.5 -21.5q-145 0 -241.5 23.5t-156 73t-90 126t-45.5 185.5q-6 37 -9 79t-4 81.5t-2 75.5t-3 61q-4 92 -7 179t-3 184zM227 1769q12 57 43 89t69 43.5t79 3t74 -28.5q27 -18 40 -47t15 -62.5t-7.5 -67.5t-27.5 -59q-51 -45 -105.5 -51t-98.5 16.5t-67.5 66.5 t-13.5 97zM639 1765q12 57 41 90t65.5 45.5t76.5 5t73 -27.5q27 -18 40 -47t15 -62.5t-7 -67.5t-28 -59q-51 -45 -104 -52t-95 14.5t-64.5 64.5t-12.5 96z" />
<glyph unicode="&#xdd;" horiz-adv-x="1359" d="M23 1360q57 49 111 110.5t142 137.5q104 -94 194.5 -210t195.5 -229q92 100 185 212t198 216l288 -219l-475 -520l37 -854q-2 -2 -16 -4q-12 -2 -41 -2t-82 4h-33t-58.5 -1t-74.5 -1h-84l-16 834l-179 227zM555 1599q20 47 43 111t46.5 128.5t44 122.5t38.5 97l305 -162 q-25 -37 -58.5 -89t-68.5 -106t-69.5 -106.5t-61.5 -91.5z" />
<glyph unicode="&#xde;" horiz-adv-x="1153" d="M61 1235q66 2 115 5t93 4t88 1h100l8 -88q92 29 161.5 43t123 17.5t92.5 -6t67 -25.5q41 -20 69 -49t46 -63t29.5 -69.5t17.5 -68.5q8 -37 10 -76t0 -82t0 -93t2 -95q-2 -53 -5 -110.5t-13 -123.5q-10 -61 -37 -115.5t-72 -82.5q-27 -16 -65.5 -35t-90.5 -28t-117 -4 t-140 36l8 -203l-463 -6q2 96 -1 234.5t-8 307.5t-10.5 365.5t-7.5 409.5zM502 848l28 -459q20 -31 46 -36t73 -1q23 2 35 13.5t18.5 24.5t7.5 26.5t1 17.5v40t-1 91.5t-3 125t-9 140.5q4 41 -12 76t-57 35q-23 0 -46.5 -2t-42 -11t-29.5 -27.5t-9 -53.5z" />
<glyph unicode="&#xdf;" horiz-adv-x="1150" d="M133 -379q2 119 3 290t4 374.5t6.5 432t9.5 466.5q2 55 4 107t12 101.5t33.5 93.5t68.5 79q78 61 142.5 80.5t138.5 19.5q84 0 174 -26.5t186 -120.5q43 -59 83 -125t40 -152q0 -141 -30.5 -232t-61.5 -161q-14 -33 0.5 -94.5t36 -138t39.5 -165t15 -175.5t-39.5 -167.5 t-127.5 -144.5q-59 -41 -88.5 -56.5t-52.5 -27.5l-131 336q37 27 65.5 77t12.5 120q-20 84 -37.5 150.5t-24 133t3 139t39.5 169.5q35 33 51.5 70.5t18.5 74.5t-6 69.5t-23 55.5q-29 47 -57.5 56t-48.5 9q-29 0 -49.5 -15t-33.5 -37.5t-20.5 -49.5t-7.5 -49 q-2 -66 -4 -186.5t-3 -269t-2 -311.5t-1 -310v-163v-115t-1 -94t-3 -101q-12 0 -56 -2.5t-96.5 -5.5t-103.5 -5t-78 -4z" />
<glyph unicode="&#xe0;" horiz-adv-x="1116" d="M88 330q-2 80 18.5 150.5t51.5 107.5q53 63 185 86.5t327 27.5l-8 119q-7 111 -130 146q-37 10 -81.5 17t-88 10t-77 3t-47.5 -4q-4 31 -6.5 66t-2.5 69.5v67.5t2 57q109 2 190 5.5t161 -5.5q211 -18 286 -104q41 -45 57.5 -100.5t20.5 -83.5q6 -51 10.5 -105.5t8.5 -107 t7 -96.5t5 -72q12 -143 19.5 -288.5t17.5 -289.5q-45 -6 -81 -10t-69 -8t-64.5 -7.5t-64.5 -5.5q-4 18 -5 44t-3 61q-51 -25 -118.5 -48.5t-139.5 -32.5t-140.5 1t-123.5 51q-61 47 -88 123t-29 156zM205 1724l282 181q37 -53 60.5 -114.5t43 -122t39 -115t46.5 -91.5 l-184 -112q-41 53 -69 90t-56 71q-20 27 -66.5 88.5t-95.5 124.5zM395 343q-2 -24 9.5 -44t41.5 -27q63 -12 117.5 5.5t120.5 41.5l-8 140q-106 -4 -162.5 -10.5t-85.5 -28.5q-10 -10 -20.5 -31.5t-12.5 -45.5z" />
<glyph unicode="&#xe1;" horiz-adv-x="1116" d="M88 330q-2 80 18.5 150.5t51.5 107.5q53 63 185 86.5t327 27.5l-8 119q-7 111 -130 146q-37 10 -81.5 17t-88 10t-77 3t-47.5 -4q-4 31 -6.5 66t-2.5 69.5v67.5t2 57q109 2 190 5.5t161 -5.5q211 -18 286 -104q41 -45 57.5 -100.5t20.5 -83.5q6 -51 10.5 -105.5t8.5 -107 t7 -96.5t5 -72q12 -143 19.5 -288.5t17.5 -289.5q-45 -6 -81 -10t-69 -8t-64.5 -7.5t-64.5 -5.5q-4 18 -5 44t-3 61q-51 -25 -118.5 -48.5t-139.5 -32.5t-140.5 1t-123.5 51q-61 47 -88 123t-29 156zM395 343q-2 -24 9.5 -44t41.5 -27q63 -12 117.5 5.5t120.5 41.5l-8 140 q-106 -4 -162.5 -10.5t-85.5 -28.5q-10 -10 -20.5 -31.5t-12.5 -45.5zM426 1430q20 47 43 110.5t46.5 128t44 122.5t38.5 97l305 -162q-25 -37 -58.5 -89t-68.5 -106t-69.5 -106.5t-61.5 -91.5z" />
<glyph unicode="&#xe2;" horiz-adv-x="1116" d="M88 330q-2 80 18.5 150.5t51.5 107.5q53 63 185 86.5t327 27.5l-8 119q-7 111 -130 146q-37 10 -81.5 17t-88 10t-77 3t-47.5 -4q-4 31 -6.5 66t-2.5 69.5v67.5t2 57q109 2 190 5.5t161 -5.5q211 -18 286 -104q41 -45 57.5 -100.5t20.5 -83.5q6 -51 10.5 -105.5t8.5 -107 t7 -96.5t5 -72q12 -143 19.5 -288.5t17.5 -289.5q-45 -6 -81 -10t-69 -8t-64.5 -7.5t-64.5 -5.5q-4 18 -5 44t-3 61q-51 -25 -118.5 -48.5t-139.5 -32.5t-140.5 1t-123.5 51q-61 47 -88 123t-29 156zM180 1524l443 338q57 -47 104 -89t93 -82t95.5 -81t110.5 -84l-207 -189 q-68 57 -117 109.5t-96 91.5q-68 -53 -123 -105t-96 -83q-33 20 -57.5 41.5t-48 43t-47 44t-54.5 45.5zM395 343q-2 -24 9.5 -44t41.5 -27q63 -12 117.5 5.5t120.5 41.5l-8 140q-106 -4 -162.5 -10.5t-85.5 -28.5q-10 -10 -20.5 -31.5t-12.5 -45.5z" />
<glyph unicode="&#xe3;" horiz-adv-x="1067" d="M102 353q0 93 18.5 170t45.5 98q33 25 71.5 51t97 38.5t140.5 3.5t199 -55l-19 193q-4 55 -33.5 76.5t-89.5 38.5q-18 4 -43 8q-23 4 -54.5 6t-72.5 2q-37 0 -70.5 -3t-62.5 -13q0 49 1 80.5t3.5 59.5t1 60.5t-3.5 85.5q109 2 190 5.5t161 -5.5q211 -18 286 -104 q41 -45 56.5 -100.5t21.5 -83.5q8 -43 12.5 -97.5t6.5 -108.5t2 -102.5t2 -76.5l45 -574q-47 0 -81 -1t-61.5 -1h-55.5h-64q-10 23 -11.5 46.5t-19.5 80.5q-29 -35 -87.5 -62.5t-130 -42t-148 -14.5t-142.5 23q-61 47 -86 136t-25 182zM104 1485q25 39 61 75.5t77 64.5 t83 45.5t81 17.5q37 0 73.5 -13.5t70.5 -31t63.5 -31t56.5 -13.5q29 0 68.5 27t80.5 72l164 -160q-27 -43 -64.5 -81t-77.5 -67.5t-80 -47t-73 -17.5q-37 0 -71.5 12.5t-65.5 27.5t-59.5 27.5t-55.5 12.5q-31 -12 -66.5 -26.5t-68.5 -57.5zM395 346.5q-2 -22.5 9.5 -44 t41.5 -30.5q31 -10 63 -7t57.5 14.5t45 32t25.5 46.5q4 23 6 41q2 16 0 31t-12 19q-25 12 -54.5 13t-58.5 -4t-52.5 -15.5t-37.5 -22.5q-10 -10 -20.5 -30.5t-12.5 -43z" />
<glyph unicode="&#xe4;" horiz-adv-x="1116" d="M88 330q-2 80 18.5 150.5t51.5 107.5q53 63 185 86.5t327 27.5l-8 119q-7 111 -130 146q-37 10 -81.5 17t-88 10t-77 3t-47.5 -4q-4 31 -6.5 66t-2.5 69.5v67.5t2 57q109 2 190 5.5t161 -5.5q211 -18 286 -104q41 -45 57.5 -100.5t20.5 -83.5q6 -51 10.5 -105.5t8.5 -107 t7 -96.5t5 -72q12 -143 19.5 -288.5t17.5 -289.5q-45 -6 -81 -10t-69 -8t-64.5 -7.5t-64.5 -5.5q-4 18 -5 44t-3 61q-51 -25 -118.5 -48.5t-139.5 -32.5t-140.5 1t-123.5 51q-61 47 -88 123t-29 156zM193 1518q12 57 42.5 88.5t68.5 43t79 3t74 -28.5q27 -18 40 -47 t15 -62.5t-7 -67.5t-28 -58q-51 -45 -105.5 -51.5t-98.5 16t-67.5 66.5t-12.5 98zM395 343q-2 -24 9.5 -44t41.5 -27q63 -12 117.5 5.5t120.5 41.5l-8 140q-106 -4 -162.5 -10.5t-85.5 -28.5q-10 -10 -20.5 -31.5t-12.5 -45.5zM598 1518q12 57 41 89.5t65.5 45t76.5 5 t73 -27.5q27 -18 40 -47t15 -62.5t-7 -67.5t-28 -58q-51 -45 -104 -52.5t-95 14t-64.5 64.5t-12.5 97z" />
<glyph unicode="&#xe5;" horiz-adv-x="1116" d="M88 330q-2 80 18.5 150.5t51.5 107.5q53 63 185 86.5t327 27.5l-8 119q-7 111 -130 146q-37 10 -81.5 17t-88 10t-77 3t-47.5 -4q-4 31 -6.5 66t-2.5 69.5v67.5t2 57q109 2 190 5.5t161 -5.5q211 -18 286 -104q41 -45 57.5 -100.5t20.5 -83.5q6 -51 10.5 -105.5t8.5 -107 t7 -96.5t5 -72q12 -143 19.5 -288.5t17.5 -289.5q-45 -6 -81 -10t-69 -8t-64.5 -7.5t-64.5 -5.5q-4 18 -5 44t-3 61q-51 -25 -118.5 -48.5t-139.5 -32.5t-140.5 1t-123.5 51q-61 47 -88 123t-29 156zM281 1640q6 61 31.5 111.5t64.5 84.5t87 51.5t101 13.5q49 -4 97.5 -19.5 t87 -47.5t62.5 -81t28 -119q2 -35 -4.5 -70.5t-17.5 -68.5t-27.5 -58.5t-34.5 -39.5q-31 -29 -76 -44.5t-96.5 -18.5t-103.5 8.5t-93 35.5q-20 12 -41.5 37t-38 57.5t-25 75.5t-1.5 92zM395 343q-2 -24 9.5 -44t41.5 -27q63 -12 117.5 5.5t120.5 41.5l-8 140 q-106 -4 -162.5 -10.5t-85.5 -28.5q-10 -10 -20.5 -31.5t-12.5 -45.5zM477 1604q4 -45 22.5 -55.5t55.5 -16.5q25 0 54.5 23.5t27.5 58.5q-4 37 -26.5 59.5t-51.5 22.5t-57.5 -20.5t-24.5 -71.5z" />
<glyph unicode="&#xe6;" horiz-adv-x="1591" d="M100 331.5q0 61.5 11.5 119t35 104.5t60.5 76q47 37 160.5 55.5t263.5 5.5q2 10 3 43t-1 70t-7 68.5t-14 39.5q-20 18 -70 27.5t-110.5 11.5t-119 -1t-93.5 -11q2 53 3 84t1 57.5t2 58t6 87.5q86 6 181.5 18t182.5 9t155.5 -31.5t103.5 -102.5q31 63 108.5 96t164.5 36 t163 -21.5t103 -71.5q16 -31 26.5 -55.5t16.5 -49t10 -51t8 -61.5q8 -72 10 -128t-2 -120l-8 -139q-113 -4 -225.5 -2t-222.5 0v-57.5t2 -65.5t5 -62.5t9 -48.5q6 -23 49 -29.5t103.5 -5.5t126 7t116.5 10l-4 -291q-59 -4 -127.5 -10t-136.5 -9t-132.5 1t-115.5 20.5t-86 49 t-43 85.5q-10 -51 -51 -84.5t-99.5 -53t-126 -26t-130 -1t-112.5 19.5t-71 37q-27 27 -45 73t-27.5 102t-9.5 117.5zM368 334.5q-1 -23.5 8 -42t32 -24.5q63 -14 113 8.5t77 73.5l4 41q0 16 -1 30.5t-7 18.5q-29 18 -57.5 20.5t-55 -6t-49 -20.5t-37.5 -24q-10 -10 -18 -31 t-9 -44.5zM1011 846q1 -35 1 -66q59 4 105 5t106 6v112q0 41 -29 59.5t-70 18.5q-47 0 -71.5 -20.5t-33.5 -50t-8 -64.5z" />
<glyph unicode="&#xe7;" horiz-adv-x="897" d="M78 697.5v93.5t3 65.5t10 55t19.5 54t32.5 64.5q33 57 98.5 101.5t155.5 71t197.5 35.5t224.5 -3l-28 -172l-23 -152q-104 8 -185 -2t-143 -49q-18 -25 -24 -57.5t-6 -68.5t3 -69.5t5 -58.5q4 -53 9 -115.5t32 -119.5q37 -31 71.5 -46.5t66.5 -23.5t61.5 -11t54.5 -5 q20 -4 39.5 -1t35.5 1q4 -53 8.5 -88t8.5 -67t9 -67.5t9 -87.5q-68 0 -131 5.5t-127 11.5q-37 4 -63.5 6t-50 5t-46 8t-51.5 14q-92 27 -167.5 106.5t-94.5 224.5q-6 43 -9 102.5t-4 121t-1 118zM170 -299l182 344q94 -14 164 -25q29 -4 56.5 -8t46 -7t25.5 -4t-1 1 q-43 -119 -78 -215q-16 -41 -30.5 -80t-26.5 -71.5t-22.5 -53t-14.5 -24.5q-18 2 -62 22.5t-93.5 45t-91.5 47t-54 28.5z" />
<glyph unicode="&#xe8;" horiz-adv-x="964" d="M70 650.5q2 101.5 6 172.5q4 63 14 129t36 122t75 100.5t129 62.5q147 14 238 8t145.5 -23.5t80 -44t42.5 -53.5q20 -35 34.5 -86t18.5 -114q2 -31 4 -56.5t4 -52.5t1 -56.5t-3 -70.5l-10 -137q-135 -4 -255 4t-231 6q-2 -45 0 -86q2 -35 6.5 -73.5t16.5 -65.5 q16 -37 117.5 -51.5t257.5 -3.5l22 -279q-135 -4 -236.5 -5t-178 8t-132 33.5t-98.5 72.5q-45 51 -67.5 142t-30.5 193.5t-6 204zM401 774l209 4q4 70 0 94.5t0 24.5q2 0 0 12.5t-13 26.5t-34.5 25.5t-62.5 9.5q-43 -2 -61.5 -14.5t-24.5 -27t-4 -25.5t0 -11 q-4 0 -7.5 -26.5t-1.5 -92.5zM459 1706l282 180q37 -53 60.5 -114.5t43 -122t39 -114.5t46.5 -91l-185 -113q-41 53 -68.5 90t-55.5 72q-20 27 -66.5 88t-95.5 125z" />
<glyph unicode="&#xe9;" horiz-adv-x="964" d="M70 650.5q2 101.5 6 172.5q4 63 14 129t36 122t75 100.5t129 62.5q147 14 238 8t145.5 -23.5t80 -44t42.5 -53.5q20 -35 34.5 -86t18.5 -114q2 -31 4 -56.5t4 -52.5t1 -56.5t-3 -70.5l-10 -137q-135 -4 -255 4t-231 6q-2 -45 0 -86q2 -35 6.5 -73.5t16.5 -65.5 q16 -37 117.5 -51.5t257.5 -3.5l22 -279q-135 -4 -236.5 -5t-178 8t-132 33.5t-98.5 72.5q-45 51 -67.5 142t-30.5 193.5t-6 204zM356 1423q20 47 43 110.5t46.5 128t44 123t38.5 97.5l306 -162q-25 -37 -59 -89t-68.5 -106.5t-69.5 -106.5t-62 -91zM401 774l209 4 q4 70 0 94.5t0 24.5q2 0 0 12.5t-13 26.5t-34.5 25.5t-62.5 9.5q-43 -2 -61.5 -14.5t-24.5 -27t-4 -25.5t0 -11q-4 0 -7.5 -26.5t-1.5 -92.5z" />
<glyph unicode="&#xea;" horiz-adv-x="964" d="M70 650.5q2 101.5 6 172.5q4 63 14 129t36 122t75 100.5t129 62.5q147 14 238 8t145.5 -23.5t80 -44t42.5 -53.5q20 -35 34.5 -86t18.5 -114q2 -31 4 -56.5t4 -52.5t1 -56.5t-3 -70.5l-10 -137q-135 -4 -255 4t-231 6q-2 -45 0 -86q2 -35 6.5 -73.5t16.5 -65.5 q16 -37 117.5 -51.5t257.5 -3.5l22 -279q-135 -4 -236.5 -5t-178 8t-132 33.5t-98.5 72.5q-45 51 -67.5 142t-30.5 193.5t-6 204zM135 1530l443 338q57 -47 104 -89t93 -82t95.5 -81t110.5 -84l-207 -189q-68 57 -117 109.5t-96 91.5q-68 -53 -123 -105t-96 -83 q-33 20 -57.5 41.5t-48 43t-47 44t-54.5 45.5zM401 774l209 4q4 70 0 94.5t0 24.5q2 0 0 12.5t-13 26.5t-34.5 25.5t-62.5 9.5q-43 -2 -61.5 -14.5t-24.5 -27t-4 -25.5t0 -11q-4 0 -7.5 -26.5t-1.5 -92.5z" />
<glyph unicode="&#xeb;" horiz-adv-x="964" d="M70 650.5q2 101.5 6 172.5q4 63 14 129t36 122t75 100.5t129 62.5q147 14 238 8t145.5 -23.5t80 -44t42.5 -53.5q20 -35 34.5 -86t18.5 -114q2 -31 4 -56.5t4 -52.5t1 -56.5t-3 -70.5l-10 -137q-135 -4 -255 4t-231 6q-2 -45 0 -86q2 -35 6.5 -73.5t16.5 -65.5 q16 -37 117.5 -51.5t257.5 -3.5l22 -279q-135 -4 -236.5 -5t-178 8t-132 33.5t-98.5 72.5q-45 51 -67.5 142t-30.5 193.5t-6 204zM129 1518q12 57 43 88.5t69 43t78.5 3t73.5 -28.5q27 -18 40 -47t15.5 -62.5t-7 -67.5t-27.5 -58q-51 -45 -105.5 -51.5t-98.5 16t-67.5 66.5 t-13.5 98zM401 774l209 4q4 70 0 94.5t0 24.5q2 0 0 12.5t-13 26.5t-34.5 25.5t-62.5 9.5q-43 -2 -61.5 -14.5t-24.5 -27t-4 -25.5t0 -11q-4 0 -7.5 -26.5t-1.5 -92.5zM535 1518q12 57 40.5 89.5t65.5 45t77 5t73 -27.5q27 -18 40 -47t15 -62.5t-7.5 -67.5t-27.5 -58 q-51 -45 -104.5 -52.5t-95.5 14t-64.5 64.5t-11.5 97z" />
<glyph unicode="&#xec;" horiz-adv-x="731" d="M25 1733l335 112q25 -59 40.5 -120.5t28.5 -121t25.5 -112.5t30.5 -96l-217 -90q-49 59 -71.5 106t-44.5 76q-10 12 -24.5 38.5t-32 60.5t-36 73t-34.5 74zM160 1192q78 2 122 3t80.5 1t76.5 1t112 1q4 -29 9 -120t10 -212t10.5 -259t8.5 -261t6 -216t3 -126 q-78 -4 -119 -4h-75.5h-78.5t-128 -2q-10 170 -17.5 318.5t-12.5 290t-6 284.5t-1 301z" />
<glyph unicode="&#xed;" horiz-adv-x="659" d="M131 1184q78 2 122 3t81 1t76.5 1t111.5 1q4 -29 9.5 -119t10.5 -211t10 -257t8 -258t6 -215t3 -126q-78 -4 -118.5 -4h-75.5h-79t-128 -2q-10 168 -17.5 315.5t-12.5 288.5t-6 282.5t-1 299.5zM180 1430q20 47 43 110.5t46.5 128t44 122.5t38.5 97l305 -162 q-25 -37 -58.5 -89t-68 -106t-69.5 -106.5t-62 -91.5z" />
<glyph unicode="&#xee;" horiz-adv-x="778" d="M-37 1458l443 338q57 -47 104 -89t93 -82t95.5 -81t110.5 -84l-207 -188q-68 57 -117 109.5t-96 91.5q-68 -53 -123 -105.5t-96 -83.5q-33 20 -57.5 42t-48 43.5t-47 44t-54.5 44.5zM221 1184q78 2 122 3t81 1t76.5 1t111.5 1q4 -29 9.5 -119t10.5 -211t10 -257t8 -258 t6 -215t3 -126q-78 -4 -118.5 -4h-75.5h-79t-128 -2q-10 168 -17.5 315.5t-12.5 288.5t-6 282.5t-1 299.5z" />
<glyph unicode="&#xef;" horiz-adv-x="696" d="M2 1483q12 57 43 89t69 43t78.5 2.5t73.5 -28.5q27 -18 40 -47t15.5 -62.5t-7 -67.5t-27.5 -58q-51 -45 -105.5 -51.5t-98.5 16t-67.5 67t-13.5 97.5zM154 1184q78 2 121.5 3t80.5 1t77 1t112 1q4 -29 9 -119t10 -211t10.5 -257t8.5 -258t6 -215t3 -126q-78 -4 -119 -4 h-76h-79t-128 -2q-10 168 -17 315.5t-12 288.5t-6 282.5t-1 299.5zM391 1483q12 57 41 90t66 45t76.5 4.5t72.5 -27.5q27 -18 40 -46.5t15.5 -62.5t-7 -68t-27.5 -58q-51 -45 -104.5 -52.5t-95.5 14t-64.5 65t-12.5 96.5z" />
<glyph unicode="&#xf0;" horiz-adv-x="1132" d="M90 459q-6 76 8.5 156.5t42.5 152.5q18 43 71.5 87t130.5 63.5t169 1t186 -102.5q2 33 0 66q-2 29 -5 58.5t-9 55.5q-16 59 -35.5 96t-56.5 85l-141 -142l-105 70q-29 20 -51 37q-20 14 -38.5 26.5t-27.5 12.5l156 147q-39 35 -96.5 63.5t-122.5 57.5l176 262 q68 -33 131.5 -71.5t128.5 -75.5l133 127q43 -29 76 -50.5t63.5 -43t61.5 -44t68 -55.5q-27 -23 -63 -54.5t-75 -64.5q29 -35 58.5 -84t53 -98t39 -91t17.5 -60q12 -145 13.5 -251t-8 -193t-27 -166t-39.5 -171q-12 -33 -42 -84t-94.5 -97t-174 -73.5t-281.5 -11.5 q-84 27 -138.5 74t-86 107.5t-46 132t-20.5 145.5zM420 541q0 -12 1 -36t2 -49.5t4 -50t5 -36.5q6 -37 21.5 -51.5t33 -17.5t34 0t26.5 3q37 -4 61.5 33.5t24.5 103.5q-2 86 -27.5 141.5t-79.5 53.5q-66 -4 -85 -32t-21 -62z" />
<glyph unicode="&#xf1;" horiz-adv-x="1118" d="M92 1198q70 4 104.5 9t61.5 10.5t59.5 9.5t98.5 8l4 -168q45 63 108.5 96t128 43.5t125 5t101.5 -15.5q49 -33 77.5 -69.5t44 -83t21.5 -100.5t8 -120v-43.5v-53.5v-54.5v-46.5q0 -39 -1 -114t-3 -164t-5 -182t-5 -169l-328 6q2 96 3 180t2 164t-1 159t-6 167q4 51 -2 92 q-4 35 -20.5 64.5t-49.5 29.5q-25 0 -53 -11t-53 -24q-29 -14 -59 -32l-7 -361q-2 -35 -4 -94q-2 -51 -4 -132t0 -202q-51 -2 -81.5 -2h-51t-37 1t-38 1t-53.5 1t-83 1v602zM92 1507q25 39 60.5 76t76.5 64.5t83 45t81 17.5q37 0 74 -13.5t70.5 -30.5t63.5 -30.5t56 -13.5 q29 0 69 26.5t81 71.5l164 -159q-27 -43 -65 -81t-78 -68t-79.5 -47t-72.5 -17q-37 0 -72 12t-65.5 27.5t-59 27.5t-55.5 12q-31 -12 -66.5 -26.5t-68.5 -57.5z" />
<glyph unicode="&#xf2;" horiz-adv-x="1058" d="M74 817q2 55 3 94t8 71t21.5 59.5t43.5 58.5q31 33 61.5 54.5t72.5 32.5t101 15t145 6q98 2 162 -11t104 -32.5t60.5 -40t32.5 -34.5q59 -72 75.5 -210.5t20.5 -338.5q4 -145 -11.5 -246.5t-31.5 -142.5q-39 -96 -128 -136.5t-255 -44.5q-61 -2 -130 1t-128 20.5 t-103 54.5t-59 105q-10 49 -22.5 140t-22.5 190.5t-16 191.5t-4 143zM416 811q0 -2 1 -36t5 -90t11 -131t20 -157q4 -25 7 -44t12 -33.5t28.5 -22.5t56.5 -8q25 0 45 8q16 8 29.5 27.5t11.5 60.5q4 27 4 82q0 47 -5 132t-17 220q-4 53 -27 74.5t-57 26.5q-14 2 -38 0 t-45.5 -12.5t-34.5 -34t-7 -62.5zM489 1724l283 181q37 -53 60.5 -114.5t43 -122t39 -115t46.5 -91.5l-185 -112q-41 53 -68.5 90t-56.5 71q-20 27 -66 88.5t-96 124.5z" />
<glyph unicode="&#xf3;" horiz-adv-x="1058" d="M74 817q2 55 3 94t8 71t21.5 59.5t43.5 58.5q31 33 61.5 54.5t72.5 32.5t101 15t145 6q98 2 162 -11t104 -32.5t60.5 -40t32.5 -34.5q59 -72 75.5 -210.5t20.5 -338.5q4 -145 -11.5 -246.5t-31.5 -142.5q-39 -96 -128 -136.5t-255 -44.5q-61 -2 -130 1t-128 20.5 t-103 54.5t-59 105q-10 49 -22.5 140t-22.5 190.5t-16 191.5t-4 143zM387 1442q20 47 43 110.5t46.5 128t44 123t38.5 97.5l305 -162q-25 -37 -58.5 -89.5t-68.5 -106.5t-69.5 -106.5t-61.5 -90.5zM416 811q0 -2 1 -36t5 -90t11 -131t20 -157q4 -25 7 -44t12 -33.5 t28.5 -22.5t56.5 -8q25 0 45 8q16 8 29.5 27.5t11.5 60.5q4 27 4 82q0 47 -5 132t-17 220q-4 53 -27 74.5t-57 26.5q-14 2 -38 0t-45.5 -12.5t-34.5 -34t-7 -62.5z" />
<glyph unicode="&#xf4;" horiz-adv-x="1058" d="M74 817q2 55 3 94t8 71t21.5 59.5t43.5 58.5q31 33 61.5 54.5t72.5 32.5t101 15t145 6q98 2 162 -11t104 -32.5t60.5 -40t32.5 -34.5q59 -72 75.5 -210.5t20.5 -338.5q4 -145 -11.5 -246.5t-31.5 -142.5q-39 -96 -128 -136.5t-255 -44.5q-61 -2 -130 1t-128 20.5 t-103 54.5t-59 105q-10 49 -22.5 140t-22.5 190.5t-16 191.5t-4 143zM141 1468l443 338q57 -47 104 -89t93 -82t95.5 -81t110.5 -84l-207 -188q-68 57 -117 109.5t-96 91.5q-68 -53 -123 -105.5t-96 -83.5q-33 20 -57.5 42t-48 43.5t-47 44t-54.5 44.5zM416 811q0 -2 1 -36 t5 -90t11 -131t20 -157q4 -25 7 -44t12 -33.5t28.5 -22.5t56.5 -8q25 0 45 8q16 8 29.5 27.5t11.5 60.5q4 27 4 82q0 47 -5 132t-17 220q-4 53 -27 74.5t-57 26.5q-14 2 -38 0t-45.5 -12.5t-34.5 -34t-7 -62.5z" />
<glyph unicode="&#xf5;" horiz-adv-x="1058" d="M74 817q2 55 3 94t8 71t21.5 59.5t43.5 58.5q31 33 61.5 54.5t72.5 32.5t101 15t145 6q98 2 162 -11t104 -32.5t60.5 -40t32.5 -34.5q59 -72 75.5 -210.5t20.5 -338.5q4 -145 -11.5 -246.5t-31.5 -142.5q-39 -96 -128 -136.5t-255 -44.5q-61 -2 -130 1t-128 20.5 t-103 54.5t-59 105q-10 49 -22.5 140t-22.5 190.5t-16 191.5t-4 143zM74 1518q25 39 60.5 75.5t76.5 64.5t83 45t81 17q37 0 73.5 -13t70.5 -30.5t63.5 -31t56.5 -13.5q29 0 69 27t80 72l164 -160q-27 -43 -64.5 -81t-77.5 -67.5t-80 -47t-73 -17.5q-37 0 -71.5 12 t-65.5 27.5t-59.5 28t-54.5 12.5q-31 -12 -67 -26.5t-69 -57.5zM416 811q0 -2 1 -36t5 -90t11 -131t20 -157q4 -25 7 -44t12 -33.5t28.5 -22.5t56.5 -8q25 0 45 8q16 8 29.5 27.5t11.5 60.5q4 27 4 82q0 47 -5 132t-17 220q-4 53 -27 74.5t-57 26.5q-14 2 -38 0t-45.5 -12.5 t-34.5 -34t-7 -62.5z" />
<glyph unicode="&#xf6;" horiz-adv-x="1058" d="M74 817q2 55 3 94t8 71t21.5 59.5t43.5 58.5q31 33 61.5 54.5t72.5 32.5t101 15t145 6q98 2 162 -11t104 -32.5t60.5 -40t32.5 -34.5q59 -72 75.5 -210.5t20.5 -338.5q4 -145 -11.5 -246.5t-31.5 -142.5q-39 -96 -128 -136.5t-255 -44.5q-61 -2 -130 1t-128 20.5 t-103 54.5t-59 105q-10 49 -22.5 140t-22.5 190.5t-16 191.5t-4 143zM160 1507q12 57 42.5 89t68.5 43.5t79 3t74 -28.5q27 -18 40 -47t15 -63t-7 -67.5t-28 -58.5q-51 -45 -105 -51t-98 16.5t-67.5 66.5t-13.5 97zM416 811q0 -2 1 -36t5 -90t11 -131t20 -157q4 -25 7 -44 t12 -33.5t28.5 -22.5t56.5 -8q25 0 45 8q16 8 29.5 27.5t11.5 60.5q4 27 4 82q0 47 -5 132t-17 220q-4 53 -27 74.5t-57 26.5q-14 2 -38 0t-45.5 -12.5t-34.5 -34t-7 -62.5zM565 1507q12 57 41 90t66 45.5t76.5 5t72.5 -27.5q27 -18 40 -47t15.5 -62.5t-7 -67.5t-27.5 -59 q-51 -45 -104.5 -52t-95.5 14.5t-64.5 64.5t-12.5 96z" />
<glyph unicode="&#xf7;" horiz-adv-x="1333" d="M129 653l8 342q111 2 188.5 2t161.5 -2t194 -3t286 -1q0 -96 9 -171t5 -165zM342 414q14 63 45 99t70 49t81.5 11t79.5 -12t68 -38.5t46.5 -71.5t10 -101.5t-37.5 -126.5q-80 -61 -152 -61t-123 35.5t-76.5 95t-11.5 121.5zM342 1311q14 63 45 99t70 49.5t81.5 11 t79.5 -12.5t69 -35.5t48.5 -66.5t13 -96.5t-35.5 -122.5q-80 -61 -153 -64.5t-126 29.5t-79.5 90t-12.5 119z" />
<glyph unicode="&#xf8;" horiz-adv-x="978" d="M51 6q27 39 49 76q20 31 42 62.5t34 50.5q-16 47 -26.5 108.5t-17.5 126t-11 125.5t-4 107q0 29 -2 69.5t-1 85.5t4 91t13 87q10 45 28.5 78t38 56.5t37 38t25.5 22.5q10 10 67.5 26.5t134.5 22.5t163 -7t153 -58l86 159l94 -61q-18 -35 -37.5 -71t-41.5 -75 q18 -25 34.5 -62.5t28.5 -75.5t19.5 -70.5t9.5 -45.5q6 -45 9 -110.5t5 -140t1 -153.5t-4 -146.5t-9 -118.5t-15 -72q-23 -57 -59.5 -92t-91.5 -54.5t-130 -25.5t-169 -6q-14 0 -48 10t-73 27.5t-75 41t-54 52.5l-102 -152q-8 -2 -26.5 9.5t-37 26t-31 26.5t-10.5 12z M402.5 717.5q0.5 -76.5 5.5 -180.5q45 88 105.5 191.5t109.5 197.5q-14 45 -47 59t-80 12t-66.5 -45t-21.5 -82q-6 -76 -5.5 -152.5zM451 360q10 -68 26.5 -107.5t63.5 -43.5q49 -10 86 3t59 81q6 16 8 65.5t1 117t-5 148t-10 160.5q-53 -109 -116.5 -221t-112.5 -203z" />
<glyph unicode="&#xf9;" horiz-adv-x="1181" d="M86 1221l354 -29q6 -197 15 -354q2 -68 5 -133.5t5 -119t4 -88t2 -40.5q2 -23 8 -44.5t18.5 -37t32 -25.5t52.5 -10q68 -2 96.5 34t32.5 113q2 82 3 202t-1 235q-2 131 -4 274q45 2 98 6q47 4 107 6t130 4q2 -74 4.5 -172t4.5 -209.5t4 -230.5t4 -231.5t3 -214t-1 -176.5 l-338 6l-25 123q-57 -29 -118.5 -52.5t-122 -33t-114.5 -1t-97 45.5q-29 25 -43.5 38t-24.5 27t-18 31.5t-23 48.5q-31 125 -33 238.5t-4 244.5q-2 121 -8 261.5t-8 263.5zM528 1735l283 180q37 -53 60.5 -114.5t43 -122t39 -115t45.5 -90.5l-184 -113q-41 53 -68.5 90 t-56.5 72q-20 27 -66 88t-96 125z" />
<glyph unicode="&#xfa;" horiz-adv-x="1181" d="M86 1221l354 -29q6 -197 15 -354q2 -68 5 -133.5t5 -119t4 -88t2 -40.5q2 -23 8 -44.5t18.5 -37t32 -25.5t52.5 -10q68 -2 96.5 34t32.5 113q2 82 3 202t-1 235q-2 131 -4 274q45 2 98 6q47 4 107 6t130 4q2 -74 4.5 -172t4.5 -209.5t4 -230.5t4 -231.5t3 -214t-1 -176.5 l-338 6l-25 123q-57 -29 -118.5 -52.5t-122 -33t-114.5 -1t-97 45.5q-29 25 -43.5 38t-24.5 27t-18 31.5t-23 48.5q-31 125 -33 238.5t-4 244.5q-2 121 -8 261.5t-8 263.5zM426 1452q20 47 43 110.5t46.5 128t44 123t38.5 97.5l305 -162q-25 -37 -58.5 -89t-68.5 -106.5 t-69.5 -106.5t-61.5 -91z" />
<glyph unicode="&#xfb;" horiz-adv-x="1181" d="M86 1221l354 -29q6 -197 15 -354q2 -68 5 -133.5t5 -119t4 -88t2 -40.5q2 -23 8 -44.5t18.5 -37t32 -25.5t52.5 -10q68 -2 96.5 34t32.5 113q2 82 3 202t-1 235q-2 131 -4 274q45 2 98 6q47 4 107 6t130 4q2 -74 4.5 -172t4.5 -209.5t4 -230.5t4 -231.5t3 -214t-1 -176.5 l-338 6l-25 123q-57 -29 -118.5 -52.5t-122 -33t-114.5 -1t-97 45.5q-29 25 -43.5 38t-24.5 27t-18 31.5t-23 48.5q-31 125 -33 238.5t-4 244.5q-2 121 -8 261.5t-8 263.5zM180 1567l443 338q57 -47 104 -89t93 -82t95.5 -81t110.5 -84l-207 -189q-68 57 -117 109.5 t-96 91.5q-68 -53 -123 -105t-96 -83q-33 20 -57.5 41.5t-48 43t-47 44t-54.5 45.5z" />
<glyph unicode="&#xfc;" horiz-adv-x="1181" d="M86 1221l354 -29q6 -197 15 -354q2 -68 5 -133.5t5 -119t4 -88t2 -40.5q2 -23 8 -44.5t18.5 -37t32 -25.5t52.5 -10q68 -2 96.5 34t32.5 113q2 82 3 202t-1 235q-2 131 -4 274q45 2 98 6q47 4 107 6t130 4q2 -74 4.5 -172t4.5 -209.5t4 -230.5t4 -231.5t3 -214t-1 -176.5 l-338 6l-25 123q-57 -29 -118.5 -52.5t-122 -33t-114.5 -1t-97 45.5q-29 25 -43.5 38t-24.5 27t-18 31.5t-23 48.5q-31 125 -33 238.5t-4 244.5q-2 121 -8 261.5t-8 263.5zM199 1518q12 57 42.5 88.5t68.5 43t79 3t74 -28.5q27 -18 40 -47t15 -62.5t-7 -67.5t-28 -58 q-51 -45 -105 -51.5t-98 16t-68 66.5t-13 98zM604 1518q12 57 41 89.5t66 45t76.5 5t72.5 -27.5q27 -18 40 -47t15.5 -62.5t-7 -67.5t-27.5 -58q-51 -45 -104.5 -52.5t-95.5 14t-64.5 64.5t-12.5 97z" />
<glyph unicode="&#xfd;" horiz-adv-x="1220" d="M76 1130q55 25 88 41.5t62.5 28.5t62.5 24.5t88 28.5q14 -27 38.5 -69.5t47.5 -83.5q27 -49 55 -103q16 -29 36.5 -68.5t40 -75.5t35 -62.5t21.5 -28.5q31 70 50.5 134.5t37 124.5t35 116.5t43.5 111.5q41 -4 85 -18t91 -27q20 -6 35.5 -10t32 -8t39 -10.5t57.5 -14.5 q-80 -223 -159.5 -434t-151.5 -412q-35 -96 -64.5 -184t-58.5 -173t-57.5 -169t-61.5 -172q-45 6 -85 13.5t-82 16.5t-87 19t-102 25q27 55 47.5 116.5t36.5 120.5q10 35 30.5 93.5t42 124t40 129t28.5 108.5q-6 18 -29.5 64.5t-58.5 107.5t-74 133t-75 141 q-18 37 -64.5 106t-95.5 195zM453 1386q20 47 42.5 111t46 128.5t44 122.5t39.5 97l305 -162q-25 -37 -58.5 -89t-68.5 -106t-70 -106.5l-61 -91.5z" />
<glyph unicode="&#xfe;" horiz-adv-x="1171" d="M61 1628q74 -4 123 -2t92 4t87.5 2t105.5 -4q2 -135 13.5 -238.5t11.5 -203.5q96 49 157.5 67.5t104.5 18.5t74.5 -12.5t68.5 -22.5q74 -31 112 -92.5t54 -129t19 -128t6 -84.5q0 -10 2 -38t4 -62.5t4 -69.5t2 -58q0 -29 -3 -66.5t-6 -81.5t-6.5 -89t-7.5 -88 q-6 -66 -18 -103.5t-28.5 -59t-35 -35t-36.5 -27.5q-25 -20 -67 -41t-97.5 -30t-124 -2t-144.5 44q4 -66 6.5 -118t2.5 -97v-86v-82l-451 -10q-4 197 -6 402.5t-4 446t-5 528.5t-10 648zM518 870l12 -540q10 -29 26.5 -45.5t31.5 -24.5q16 -8 28.5 -12t22.5 -3t20.5 10 t20.5 30q18 35 24.5 97t5.5 137t-6.5 155.5t-7.5 152.5q-2 68 -26.5 92.5t-55 21.5t-59.5 -24.5t-37 -46.5z" />
<glyph unicode="&#xff;" horiz-adv-x="1220" d="M76 1130q55 25 88 41.5t62.5 28.5t62.5 24.5t88 28.5q14 -27 38.5 -69.5t47.5 -83.5q27 -49 55 -103q16 -29 36.5 -68.5t40 -75.5t35 -62.5t21.5 -28.5q31 70 50.5 134.5t37 124.5t35 116.5t43.5 111.5q41 -4 85 -18t91 -27q20 -6 35.5 -10t32 -8t39 -10.5t57.5 -14.5 q-80 -223 -159.5 -434t-151.5 -412q-35 -96 -64.5 -184t-58.5 -173t-57.5 -169t-61.5 -172q-45 6 -85 13.5t-82 16.5t-87 19t-102 25q27 55 47.5 116.5t36.5 120.5q10 35 30.5 93.5t42 124t40 129t28.5 108.5q-6 18 -29.5 64.5t-58.5 107.5t-74 133t-75 141 q-18 37 -64.5 106t-95.5 195zM260 1544q12 57 43 89t69 43.5t78.5 3t73.5 -28.5q27 -18 40.5 -47t15.5 -63t-7.5 -67.5t-27.5 -58.5q-51 -45 -105.5 -51t-98.5 16.5t-67.5 66.5t-13.5 97zM666 1544q12 57 40.5 90t65.5 45.5t77 5t73 -27.5q27 -18 40 -47t15 -63t-7 -67.5 t-28 -58.5q-51 -45 -104.5 -52t-95.5 14.5t-64.5 64.5t-11.5 96z" />
<glyph unicode="&#x152;" horiz-adv-x="1585" d="M78 1167q-2 74 6 129q14 106 53 171t131 106q37 16 112 34.5t164 26.5t178 1t155 -40q74 2 140 6.5t143 8.5t171 8t219 8l-6 -346l-379 -6l-8 -326q43 -4 80 -5l74 -2t77 -3t89 -6q2 -35 4 -63.5t0 -57.5t-8.5 -60.5t-18.5 -72.5l-285 2q2 -45 1 -81t-1 -68.5v-67.5 t2 -78q63 2 113.5 2t94.5 -3t85 -7t88 -8q-4 -49 -3 -90t1 -83t-1 -86t-7 -98q-94 2 -176 7.5t-160 10.5t-152.5 10t-154.5 7q-29 -29 -63.5 -36t-51.5 -13q-23 0 -34 -3t-25 -5t-34.5 -4t-61.5 2q-109 8 -184.5 14t-128 19.5t-84 41t-53 79t-37 131t-31.5 200.5 q-16 104 -17.5 199.5t-5.5 161.5q-2 43 -2 97t-4 109q-2 53 -4 127zM446.5 997.5q-0.5 -92.5 3 -175.5t10.5 -172t17 -218q2 -31 15.5 -54.5t32 -38.5t40 -21.5t39.5 -0.5q57 4 76.5 39t19.5 76q4 205 4.5 393.5t-20.5 380.5q-4 33 -14.5 51.5t-25.5 25.5t-34.5 9t-44.5 6 q-51 -4 -80.5 -15t-35.5 -58q-2 -135 -2.5 -227.5z" />
<glyph unicode="&#x153;" horiz-adv-x="1486" d="M64.5 818q-3.5 114 23.5 216q23 90 73 135t99 64q57 23 125 18q6 2 59.5 7.5t120 1t131 -23.5t95.5 -67q33 37 86 56.5t113.5 25.5t124 0t117.5 -22.5t93 -42t49 -56.5q8 -23 15.5 -44t13.5 -45.5t11 -54.5t7 -73q2 -35 3 -62.5t1 -55t-2 -58t-4 -71.5l-8 -107 q-131 -4 -228.5 -6t-203.5 -4v-125v-24.5t5 -45t18.5 -48t39.5 -32.5q37 -12 85.5 -12t94.5 4t83.5 9.5t52.5 0.5l28 -286q-90 -6 -188 -9.5t-183 4t-147.5 32t-79.5 73.5q-29 -37 -64.5 -58.5t-72.5 -31.5t-72.5 -13t-66.5 -3q-59 0 -131 10t-135.5 34.5t-108.5 66.5 t-51 104q-10 100 -13 200.5t-3 200.5q-2 104 -5.5 218zM380 672q-1 -92 1 -170t7 -131.5t15 -61.5q20 -16 49 -23t56 -4t46.5 19t23.5 49q4 47 8 166t-6 318q-4 57 -34 82.5t-66 24.5t-64.5 -25.5t-30.5 -65.5q-4 -86 -5 -178zM965 843q2 -34 2 -65q43 -4 97 -4t118 -2 l-2 113q-2 55 -37 71.5t-76 16.5q-47 0 -68.5 -19.5t-28.5 -48t-5 -62.5z" />
<glyph unicode="&#x178;" horiz-adv-x="1417" d="M23 1389q59 43 122.5 112.5t159.5 138.5q104 -92 204.5 -211.5t213.5 -230.5q45 49 90 106.5t89 116t91 115.5t101 111l301 -211l-475 -619l16 -813q-2 -2 -16 -4q-12 -2 -41 -2t-82 4h-34t-60.5 -1t-77.5 -1h-86l-13 817zM365 1800q12 57 42.5 89t68.5 43.5t79 3 t74 -28.5q27 -18 40 -47t15 -63t-7 -67.5t-28 -58.5q-51 -45 -105.5 -51t-98.5 16.5t-67.5 66.5t-12.5 97zM735 1796q12 57 40 90t63.5 45.5t73.5 5t71 -27.5q27 -18 42 -47t18.5 -63t-5 -67.5t-26.5 -58.5q-51 -45 -104.5 -52t-95.5 14.5t-64.5 64.5t-12.5 96z" />
<glyph unicode="&#x2c6;" horiz-adv-x="1071" d="M113 1505l442 338q57 -47 104.5 -89t93.5 -82t95 -81t110 -84l-206 -188q-68 57 -117 109.5t-96 91.5q-68 -53 -123.5 -105.5t-96.5 -83.5q-33 20 -57 42t-48 43.5t-47.5 44t-53.5 44.5z" />
<glyph unicode="&#x2dc;" horiz-adv-x="1013" d="M29 1462q25 39 60.5 76t76.5 64.5t83 45t81 17.5q37 0 73.5 -13.5t70.5 -30.5t63.5 -30.5t56.5 -13.5q29 0 68.5 26.5t80.5 71.5l164 -159q-27 -43 -64.5 -81t-77.5 -68t-80 -47t-73 -17q-37 0 -71.5 12t-65.5 27.5t-59.5 27.5t-55.5 12q-31 -12 -66.5 -26.5t-68.5 -57.5 z" />
<glyph unicode="&#x2000;" horiz-adv-x="1057" />
<glyph unicode="&#x2001;" horiz-adv-x="2114" />
<glyph unicode="&#x2002;" horiz-adv-x="1057" />
<glyph unicode="&#x2003;" horiz-adv-x="2114" />
<glyph unicode="&#x2004;" horiz-adv-x="704" />
<glyph unicode="&#x2005;" horiz-adv-x="528" />
<glyph unicode="&#x2006;" horiz-adv-x="352" />
<glyph unicode="&#x2007;" horiz-adv-x="352" />
<glyph unicode="&#x2008;" horiz-adv-x="264" />
<glyph unicode="&#x2009;" horiz-adv-x="422" />
<glyph unicode="&#x200a;" horiz-adv-x="117" />
<glyph unicode="&#x2010;" horiz-adv-x="1071" d="M129 954q111 0 188.5 2t159.5 4.5t187.5 3.5t273.5 1q0 -29 -1 -75t-2 -94t-2 -93.5t-3 -73.5l-789 -27z" />
<glyph unicode="&#x2011;" horiz-adv-x="1071" d="M129 954q111 0 188.5 2t159.5 4.5t187.5 3.5t273.5 1q0 -29 -1 -75t-2 -94t-2 -93.5t-3 -73.5l-789 -27z" />
<glyph unicode="&#x2012;" horiz-adv-x="1071" d="M129 954q111 0 188.5 2t159.5 4.5t187.5 3.5t273.5 1q0 -29 -1 -75t-2 -94t-2 -93.5t-3 -73.5l-789 -27z" />
<glyph unicode="&#x2013;" horiz-adv-x="1726" d="M256 979q352 4 654 2t569 -2q2 -35 3 -90t1 -114.5v-114t-2 -87.5l-1217 -2q-2 33 -2 89.5v117t-2 115.5t-4 86z" />
<glyph unicode="&#x2014;" horiz-adv-x="2121" d="M256 991l1614 -2q2 -35 4 -91t3 -116.5t1 -116t-2 -87.5l-1610 -3q0 33 -1 90.5t-2 119t-3 117.5t-4 89z" />
<glyph unicode="&#x2018;" horiz-adv-x="614" d="M16 1214q39 92 74 173t73 156t82 146.5t99 143.5l231 -88q-82 -178 -124.5 -328.5t-85.5 -281.5q-66 14 -102 22t-67.5 15.5t-70.5 16.5t-109 25z" />
<glyph unicode="&#x2019;" horiz-adv-x="614" d="M16 1235q33 80 66 163t59.5 163.5t48 156.5t33.5 144q70 -12 109 -22.5t71.5 -20t73.5 -18.5t115 -21q-41 -92 -78 -179.5t-76 -170t-84 -159.5t-102 -149z" />
<glyph unicode="&#x201a;" horiz-adv-x="606" d="M-35 -162q33 80 69 164t66.5 165t55.5 157.5t37 144.5q70 -12 107.5 -22.5t68 -20.5t67.5 -23.5t109 -31.5q-41 -92 -80 -175t-80 -160t-88 -149.5t-104 -144.5z" />
<glyph unicode="&#x201c;" horiz-adv-x="935" d="M16 1219q39 92 71 174t64.5 158.5t72.5 149.5t95 144l269 -108q-45 -82 -78 -161t-57.5 -154.5t-46 -146.5t-41.5 -136q-66 14 -102 22t-67.5 15.5t-70.5 16.5t-109 26zM463 1198q39 92 69.5 172t62.5 153.5t71 143.5t92 141l270 -106q-39 -74 -69.5 -154t-56 -156.5 t-47 -148.5t-40.5 -127q-47 10 -62.5 14.5t-20.5 5.5l-10 2t-30 5q-25 2 -44 8t-43.5 13t-57.5 16.5t-84 17.5z" />
<glyph unicode="&#x201d;" horiz-adv-x="948" d="M16 1229q33 74 66 156.5t60.5 167.5t49 167t33.5 154q35 -8 57.5 -13.5t38 -8.5t25.5 -5t21 -4q29 -8 50 -14t41.5 -11.5t44 -10.5t60.5 -11q-35 -96 -64.5 -184t-62.5 -170t-70.5 -160t-89.5 -152zM453 1202q33 80 67.5 165t63 168t52.5 160.5t36 145.5 q70 -12 108.5 -22.5l71.5 -19.5t74 -18t114 -22q-41 -92 -79.5 -180t-80.5 -171t-90.5 -161t-105.5 -149z" />
<glyph unicode="&#x201e;" horiz-adv-x="966" d="M-35 -152q39 70 70 156t54.5 172t40 167t28.5 142q35 -8 56.5 -14t39.5 -11t38.5 -11.5t51.5 -14.5t51.5 -15t41 -15.5t44 -16.5t58.5 -16q-35 -92 -66 -174t-64.5 -159t-74.5 -151.5t-98 -150.5zM440 -180q37 74 69 158.5t57.5 168.5t45 163.5t31.5 140.5 q35 -8 58.5 -15.5t45 -13.5t43 -12.5t52.5 -12.5t46 -10t29.5 -8t34 -10.5t56.5 -14.5q-35 -92 -67 -179t-65.5 -168t-75.5 -156.5t-98 -147.5z" />
<glyph unicode="&#x2022;" horiz-adv-x="1208" d="M243 726q-1 93 54 208q37 78 95.5 121t127 58t139 8t133 -27.5t110 -51t67.5 -61.5q39 -61 44 -149.5t-12.5 -174.5t-50 -153.5t-71.5 -87.5q-74 -39 -161 -47.5t-170 11t-153.5 66t-110.5 117t-41 163.5z" />
<glyph unicode="&#x2026;" horiz-adv-x="1548" d="M70 221q14 63 44.5 99t69.5 49.5t82 11.5t80 -12t68.5 -36t48 -67t13.5 -96t-36 -123q-80 -61 -152.5 -64t-125.5 29.5t-80 90t-12 118.5zM586 223q14 63 48 100t76 52.5t86 12.5t81 -17q25 -10 52 -36t44.5 -67t16.5 -96t-34 -123q-80 -61 -152.5 -64t-125.5 29.5 t-80 90t-12 118.5zM1102 217q14 63 45 99t69.5 49.5t81.5 11.5t80 -12t69 -36t48 -67t13 -96t-35 -123q-80 -61 -153 -64.5t-126 29.5t-80 90.5t-12 118.5z" />
<glyph unicode="&#x202f;" horiz-adv-x="422" />
<glyph unicode="&#x2039;" horiz-adv-x="1136" d="M98 754q86 72 155 132t132.5 116.5t128 112.5t141.5 120q47 -29 78 -57.5t59.5 -58t61.5 -60.5t84 -64q-45 -33 -82 -62.5t-70.5 -60t-69.5 -60.5t-79 -62q82 -63 147.5 -122t139.5 -106l-265 -272q-80 70 -143 127t-126.5 115.5t-132.5 121t-159 140.5z" />
<glyph unicode="&#x203a;" horiz-adv-x="1136" d="M195 1022q43 35 73.5 65.5t59 59.5t58.5 56.5t73 58.5q27 -18 57.5 -43t61 -52.5t59.5 -55.5t53 -48q29 -25 46.5 -42t31.5 -32.5t29.5 -33t42.5 -40.5q10 -8 21 -18t28.5 -27.5t45.5 -46t71 -73.5q-88 -78 -156 -138.5t-129.5 -117t-126 -114.5t-143.5 -128l-238 285 q33 25 62.5 52t60.5 56t65.5 57.5t79.5 57.5q-41 31 -72.5 60.5t-63.5 60t-67.5 65.5t-82.5 76z" />
<glyph unicode="&#x205f;" horiz-adv-x="528" />
<glyph unicode="&#x20ac;" horiz-adv-x="1142" d="M63 905l5 166h53h36.5t35 1t47.5 3q-4 63 2 124t16 128q14 55 41 100.5t60.5 81t68.5 60t64 37.5q47 20 111.5 36.5t136 26.5t144 12t136.5 -8l-27 -313q-29 -2 -69.5 0t-85.5 -1t-90.5 -16.5t-81 -44t-58 -83t-22.5 -134.5q74 -2 133 -4q51 -2 97 -4t56 -2 q2 -51 3.5 -93t-11.5 -65l-278 -2q0 -14 1 -38.5t1 -51v-51.5v-41q45 -2 95 -3t91 -1t68.5 -1t27.5 -3q2 -29 -1 -62.5t1 -87.5l-272 -8q-2 -8 1 -30.5t8 -50t12.5 -52t11.5 -35.5q16 -39 64 -61.5t109.5 -32.5t126 -13t116.5 -3q2 -29 6 -72t8 -92t5 -99.5t-1 -93.5 q-31 0 -97.5 2t-151.5 10.5t-176 28t-171 55t-137.5 93t-73.5 139.5q-4 23 -8 62.5t-7 83.5t-7.5 89.5t-6.5 77.5q-41 -4 -73.5 -2t-85.5 0v162q27 2 45 5t35.5 6t37 4t50.5 -1l2 162q-33 0 -56.5 1t-43 1h-38t-39.5 -2z" />
<glyph unicode="&#x2122;" horiz-adv-x="2150" d="M203 1614q45 4 135 6t194.5 3t206 1h168.5v-46v-66.5v-76.5v-75l-17 -2q-18 -2 -45.5 -4t-61 -3t-68.5 -1v-172v-157v-156v-173l-297 6v652q-35 2 -69 3t-62.5 1h-49h-26.5q2 25 1 63.5t-3 77.5t-4 71.5t-2 47.5zM965 688l12 930q6 0 41 1t78 2t86 1h65q10 -20 40 -74.5 t62.5 -115t58.5 -110.5t30 -62q33 53 56.5 95t45 82t44 83t56.5 100q27 4 73 5t89 1h73t26 0l32 -940q-6 -2 -40.5 -1t-81 2t-92.5 3t-74 2q-4 59 -6.5 118.5t-4.5 112t-5 93.5t-5 65q-12 -23 -43 -71.5t-63 -100.5q-37 -59 -82 -127q-37 59 -74 115q-31 47 -63.5 96 t-53.5 84v-91t-1 -123.5t-2 -118t-3 -72.5q-29 0 -69 2t-79.5 5t-74.5 5t-51 4z" />
<glyph unicode="&#x25fc;" horiz-adv-x="1249" d="M0 0v1249h1249v-1249h-1249z" />
</font>
</defs>
</svg>
