<?xml version="1.0" encoding="utf-8"?>
<!-- Generator: Adobe Illustrator 16.0.0, SVG Export Plug-In . SVG Version: 6.00 Build 0)  -->
<!DOCTYPE svg PUBLIC "-//W3C//DTD SVG 1.1//EN" "http://www.w3.org/Graphics/SVG/1.1/DTD/svg11.dtd">
<svg version="1.1" id="Capa_1" xmlns="http://www.w3.org/2000/svg" xmlns:xlink="http://www.w3.org/1999/xlink" x="0px" y="0px"
	 width="41px" height="29.271px" viewBox="-1.666 0.174 41 29.271" enable-background="new -1.666 0.174 41 29.271"
	 xml:space="preserve">
<path d="M18.834,0.674c-11.026,0-20,8.976-20,20c0,11.027,40,11.027,40,0C38.834,9.647,29.863,0.674,18.834,0.674z"/>
<g>
	<g opacity="0.56">
		<path fill="#161616" d="M27.732,19.252c-0.498,0.589-1.211,0.896-1.928,0.896c-0.58,0-1.162-0.195-1.641-0.602L18.83,15.03
			l-5.322,4.534c-1.064,0.909-2.659,0.778-3.568-0.284c-0.906-1.064-0.779-2.662,0.284-3.568l6.957-5.932
			c0.945-0.804,2.332-0.807,3.277-0.005l6.979,5.904C28.505,16.587,28.637,18.186,27.732,19.252z"/>
	</g>
	<g>
		<path fill="#FFFFFF" d="M27.732,18.252c-0.498,0.589-1.211,0.896-1.928,0.896c-0.58,0-1.162-0.195-1.641-0.602L18.83,14.03
			l-5.322,4.534c-1.064,0.909-2.659,0.778-3.568-0.284c-0.906-1.064-0.779-2.662,0.284-3.568l6.957-5.932
			c0.945-0.804,2.332-0.807,3.277-0.005l6.979,5.904C28.505,15.587,28.637,17.186,27.732,18.252z"/>
	</g>
</g>
</svg>
