<?xml version="1.0" encoding="utf-8"?>
<!-- Generator: Adobe Illustrator 16.0.0, SVG Export Plug-In . SVG Version: 6.00 Build 0)  -->
<!DOCTYPE svg PUBLIC "-//W3C//DTD SVG 1.1//EN" "http://www.w3.org/Graphics/SVG/1.1/DTD/svg11.dtd">
<svg version="1.1" xmlns="http://www.w3.org/2000/svg" xmlns:xlink="http://www.w3.org/1999/xlink" x="0px" y="0px"
	 width="283.456px" height="74px" viewBox="0 0 283.456 74" enable-background="new 0 0 283.456 74" xml:space="preserve">
<g id="Layer_2">
	<rect fill="#00A355" width="124" height="74"/>
</g>
<g id="Layer_1">
	<g>
		<path fill="#FFFFFF" d="M32.513,52l-3.312-22.178l-0.192-1.488h-0.288V52H23.92V16.717h6.337l3.072,16.129l0.24,1.873h0.096
			l0.24-1.873l3.072-16.129h6.336V52h-4.8V28.334h-0.288l-0.192,1.488L34.721,52H32.513z"/>
		<path fill="#FFFFFF" d="M46,56.992c0.048,0.048,0.144,0.048,0.288,0.048c0.24,0.048,1.44,0.144,2.208-0.432s1.296-1.392,1.584-2.4
			c0.144-0.48,0.192-0.96,0.192-1.44l-4.464-27.026h4.752l1.92,16.129l0.096,1.344h0.192l0.096-1.344l1.92-16.129h4.752
			L54.88,53.968c-0.24,1.872-0.96,3.696-2.112,5.088c-1.152,1.392-2.688,2.352-4.608,2.352c-0.144,0-0.336,0-0.576,0
			c-0.432,0-1.008-0.048-1.584-0.096V56.992z"/>
		<path fill="#FFFFFF" d="M73.889,39.327c-0.145,2.448-1.008,4.176-2.688,5.472c-0.864,0.672-2.064,1.008-3.552,1.008
			c-0.144,0-0.288,0-0.432,0s-0.336,0-0.48-0.048c-0.432,0.384-0.672,0.768-0.672,1.2c0,0.576,0.48,0.912,1.2,1.104
			c0.72,0.24,1.584,0.384,2.496,0.528c1.536,0.192,3.168,0.576,4.512,1.488c1.296,0.912,2.208,2.304,2.208,4.608
			c0,2.544-1.104,4.272-2.64,5.28c-1.584,1.008-3.697,1.44-5.665,1.44c-2.304-0.048-4.272-0.384-5.616-1.152
			c-1.392-0.768-2.16-2.016-2.16-3.937c0-0.912,0.48-1.68,1.2-2.352c0.72-0.672,1.68-1.2,2.592-1.632
			c-1.584-0.432-2.928-1.44-2.928-3.504c0-0.768,0.432-1.536,1.008-2.256c0.576-0.72,1.296-1.296,2.016-1.68
			c-1.392-0.912-2.064-2.353-2.4-3.552c-0.192-0.72-0.336-1.44-0.384-2.16V32.03c0.192-2.448,0.96-4.225,2.64-5.617
			c0.816-0.72,2.016-1.056,3.504-1.056c2.448,0,3.937,1.104,4.848,2.4c0.336-0.336,0.912-0.912,1.681-1.44
			c0.72-0.528,1.536-0.96,2.304-0.96v4.32c-1.296,0-2.256,0.24-2.832,0.576c0.048,0.24,0.096,0.48,0.145,0.624
			c0,0.192,0,0.384,0.048,0.528s0.048,0.336,0.048,0.48V39.327z M66.88,53.2c-1.008,0.576-1.776,1.296-1.776,2.304
			c0,1.008,0.912,1.824,3.168,1.824c0.816,0,1.728-0.144,2.448-0.432s1.248-0.72,1.248-1.344c0-0.432-0.048-0.768-0.384-1.104
			c-0.384-0.336-1.008-0.576-2.208-0.768L66.88,53.2z M69.136,32.222c0-0.912-0.192-1.488-0.576-2.016
			c-0.192-0.24-0.48-0.384-0.912-0.384c-0.768,0-1.152,0.624-1.296,1.2c-0.096,0.336-0.144,0.768-0.096,1.2v7.201
			c-0.048,0.912,0.096,1.488,0.528,1.968c0.192,0.24,0.48,0.384,0.864,0.384c0.816,0,1.152-0.576,1.344-1.152
			c0.096-0.336,0.144-0.768,0.144-1.2V32.222z"/>
		<path fill="#FFFFFF" d="M90.354,42.591v3.024c-0.145,2.544-0.912,4.321-2.641,5.713c-0.864,0.72-2.064,1.056-3.648,1.056
			c-3.12,0-4.704-1.728-5.473-3.456c-0.432-1.008-0.72-2.16-0.768-3.456V32.271c0.144-2.544,0.96-4.417,2.688-5.857
			c0.815-0.72,2.016-1.056,3.6-1.056c3.121,0,4.705,1.728,5.473,3.408c0.433,1.008,0.721,2.112,0.769,3.36v7.632h-8.017v5.713
			c0.048,1.008,0.336,1.728,0.768,2.256c0.24,0.24,0.576,0.384,1.008,0.384c0.912,0,1.345-0.576,1.536-1.296
			c0.145-0.384,0.192-0.816,0.192-1.344v-2.88H90.354z M82.337,35.967h3.504v-3.696c0-1.008-0.192-1.729-0.672-2.304
			c-0.24-0.24-0.624-0.384-1.057-0.384c-0.911,0-1.296,0.624-1.536,1.344c-0.144,0.384-0.191,0.816-0.239,1.344V35.967z"/>
		<path fill="#FFFFFF" d="M93.567,52V16.717h4.849V52H93.567z"/>
	</g>
	<g>
		<path fill="#FFFFFF" d="M131.9,55V10.902h4.38c2.52,0,3.96,0.84,5.16,2.58c1.26,1.92,2.04,4.86,2.04,9.12
			c0,2.1-0.12,4.26-0.48,5.7c-0.42,1.32-0.96,2.58-2.1,3.419c1.02,0.96,1.92,1.86,2.46,4.32c0.3,1.38,0.42,4.319,0.42,6.479
			c0,3.3-0.42,7.26-0.96,8.7s-1.8,3.78-4.38,3.78H131.9z M136.88,29.081c0.3,0,0.96,0,1.2-0.36c0.48-0.66,0.66-2.34,0.66-5.52
			c0-3.18-0.18-4.86-0.66-5.52c-0.36-0.36-0.84-0.36-1.2-0.36V29.081z M136.88,48.58c0.24,0,0.9,0.06,1.2-0.3
			c0.48-0.66,0.66-2.7,0.66-6.479c0-3.72-0.06-5.88-0.66-6.48c-0.36-0.36-0.9-0.3-1.2-0.3V48.58z"/>
		<path fill="#FFFFFF" d="M157.639,43.24v4.14c0,4.26-1.32,8.1-5.94,8.1c-4.2,0-5.22-4.5-5.22-8.28V30.101c0-3.9,1.5-8.4,5.52-8.4
			c5.04,0,5.64,4.44,5.64,8.22v9.78h-6.54v7.14c0,1.32,0.24,3.3,0.9,3.3c0.96,0,1.14-2.16,1.14-3.3v-3.6H157.639z M151.099,34.961
			h2.04v-4.62c0-1.62-0.18-3.36-1.2-3.36c-0.78,0-0.84,2.4-0.84,3.36V34.961z"/>
		<path fill="#FFFFFF" d="M168.678,28.901c-2.82-1.62-4.02,0.72-4.02,3.3V55h-4.62V22.181h4.62v1.8c0.66-1.14,1.98-2.28,4.02-2.28
			V28.901z"/>
		<path fill="#FFFFFF" d="M181.278,39.161c-0.18,3.48-1.74,8.1-5.82,8.1h-0.3c-0.18,0.3-0.36,0.84-0.36,1.44c0,1.2,1.5,1.8,2.4,2.04
			c1.32,0.36,2.64,0.78,3.6,1.86c1.08,1.32,1.86,3.06,1.86,5.76c0,4.38-1.86,8.4-6.78,8.4c-4.14,0-6.359-2.52-6.359-6.36
			c0-2.28,1.56-3.84,3.12-4.98h0.06c-1.38-0.66-2.58-1.92-2.58-4.38c0-1.8,1.2-3.78,2.46-4.92c-1.5-2.28-2.28-4.379-2.28-7.14
			v-8.939c0.06-3.48,1.44-8.34,5.46-8.34c1.8,0,3,0.72,3.72,2.04c1.02-1.2,2.16-2.04,3.78-2.04v5.4c-1.14,0-1.92,0.3-2.22,0.72
			c0.12,0.24,0.24,1.08,0.24,1.44V39.161z M175.158,56.62c-0.54,0.6-1.08,1.5-1.08,2.76s0.54,2.28,1.86,2.28s2.22-1.02,2.22-2.22
			c0-1.44-0.78-2.04-1.56-2.34L175.158,56.62z M176.658,29.981c0-1.32-0.12-3-0.9-3c-0.6,0-0.78,1.8-0.78,3v9.3
			c0,1.14,0.18,2.94,0.78,2.94c0.78,0,0.9-2.1,0.9-2.94V29.981z"/>
		<path fill="#FFFFFF" d="M191.358,30.581c0-1.02-0.18-3.84-1.08-3.84c-0.78,0-0.84,2.16-0.84,3.42c0,2.58,1.38,4.8,2.28,6.54
			c1.56,2.58,3.6,6.18,3.6,10.86c0,2.82-0.78,7.919-5.46,7.919c-5.1,0-5.459-5.58-5.459-10.02h4.32c0,2.1,0.3,4.98,1.14,4.98
			c0.84,0,0.96-1.44,0.96-3.96c0-2.1-1.26-4.56-2.459-7.08c-1.56-3.12-3.36-5.64-3.36-9.899c0-4.2,1.56-7.8,5.16-7.8
			c4.92,0,5.28,5.64,5.28,8.88H191.358z"/>
		<path fill="#FFFFFF" d="M203.358,14.082v8.1h2.52v5.46h-2.52V55h-4.62V27.641h-1.98v-5.46h1.98v-8.1H203.358z"/>
		<path fill="#FFFFFF" d="M216.678,28.901c-2.82-1.62-4.02,0.72-4.02,3.3V55h-4.62V22.181h4.62v1.8c0.66-1.14,1.979-2.28,4.02-2.28
			V28.901z"/>
		<path fill="#FFFFFF" d="M229.337,43.24v4.14c0,4.26-1.32,8.1-5.939,8.1c-4.2,0-5.22-4.5-5.22-8.28V30.101c0-3.9,1.5-8.4,5.52-8.4
			c5.04,0,5.64,4.44,5.64,8.22v9.78h-6.54v7.14c0,1.32,0.24,3.3,0.9,3.3c0.96,0,1.14-2.16,1.14-3.3v-3.6H229.337z M222.797,34.961
			h2.04v-4.62c0-1.62-0.18-3.36-1.2-3.36c-0.78,0-0.84,2.4-0.84,3.36V34.961z"/>
		<path fill="#FFFFFF" d="M237.797,30.581c0-1.02-0.18-3.84-1.08-3.84c-0.78,0-0.84,2.16-0.84,3.42c0,2.58,1.38,4.8,2.28,6.54
			c1.56,2.58,3.6,6.18,3.6,10.86c0,2.82-0.78,7.919-5.46,7.919c-5.1,0-5.459-5.58-5.459-10.02h4.32c0,2.1,0.3,4.98,1.14,4.98
			c0.84,0,0.96-1.44,0.96-3.96c0-2.1-1.26-4.56-2.46-7.08c-1.56-3.12-3.359-5.64-3.359-9.899c0-4.2,1.56-7.8,5.16-7.8
			c4.919,0,5.28,5.64,5.28,8.88H237.797z"/>
		<path fill="#FFFFFF" d="M250.697,30.581c0-1.02-0.18-3.84-1.08-3.84c-0.78,0-0.84,2.16-0.84,3.42c0,2.58,1.38,4.8,2.28,6.54
			c1.56,2.58,3.6,6.18,3.6,10.86c0,2.82-0.78,7.919-5.46,7.919c-5.1,0-5.459-5.58-5.459-10.02h4.32c0,2.1,0.3,4.98,1.14,4.98
			c0.84,0,0.96-1.44,0.96-3.96c0-2.1-1.26-4.56-2.459-7.08c-1.56-3.12-3.36-5.64-3.36-9.899c0-4.2,1.56-7.8,5.16-7.8
			c4.92,0,5.28,5.64,5.28,8.88H250.697z"/>
		<path fill="#FFFFFF" d="M268.276,43.24v4.14c0,4.26-1.32,8.1-5.939,8.1c-4.2,0-5.22-4.5-5.22-8.28V30.101c0-3.9,1.5-8.4,5.52-8.4
			c5.04,0,5.64,4.44,5.64,8.22v9.78h-6.54v7.14c0,1.32,0.24,3.3,0.9,3.3c0.96,0,1.14-2.16,1.14-3.3v-3.6H268.276z M261.737,34.961
			h2.04v-4.62c0-1.62-0.18-3.36-1.2-3.36c-0.78,0-0.84,2.4-0.84,3.36V34.961z"/>
		<path fill="#FFFFFF" d="M279.316,28.901c-2.82-1.62-4.02,0.72-4.02,3.3V55h-4.62V22.181h4.62v1.8c0.66-1.14,1.98-2.28,4.02-2.28
			V28.901z"/>
	</g>
	<g>
	</g>
	<g>
	</g>
	<g>
	</g>
	<g>
	</g>
	<g>
	</g>
	<g>
	</g>
	<g>
	</g>
	<g>
	</g>
	<g>
	</g>
	<g>
	</g>
	<g>
	</g>
	<g>
	</g>
	<g>
	</g>
	<g>
	</g>
	<g>
	</g>
</g>
</svg>
