<?xml version="1.0" encoding="utf-8"?>
<!-- Generator: Adobe Illustrator 16.0.0, SVG Export Plug-In . SVG Version: 6.00 Build 0)  -->
<!DOCTYPE svg PUBLIC "-//W3C//DTD SVG 1.1//EN" "http://www.w3.org/Graphics/SVG/1.1/DTD/svg11.dtd">
<svg version="1.1" id="Capa_1" xmlns="http://www.w3.org/2000/svg" xmlns:xlink="http://www.w3.org/1999/xlink" x="0px" y="0px"
	 width="1048.402px" height="379.6px" viewBox="0 0 1048.402 379.6" enable-background="new 0 0 1048.402 379.6"
	 xml:space="preserve">
<path fill="#1F6284" d="M1.537,150.894L74.831,27.465c0,0-9.122,17.5-0.998,34.327l106.641,204.087l-48.61,64.978
	c0,0-25.141,16.714-39.583-4.955L2.247,168.774C2.247,168.774-2.296,157.348,1.537,150.894z"/>
<g>
	
		<linearGradient id="SVGID_1_" gradientUnits="userSpaceOnUse" x1="-0.4263" y1="454.0833" x2="-0.4263" y2="537.2356" gradientTransform="matrix(0.5106 -0.8598 -0.8598 -0.5106 559.2103 517.4092)">
		<stop  offset="0" style="stop-color:#1D1D1B"/>
		<stop  offset="1" style="stop-color:#1D1D1B;stop-opacity:0"/>
	</linearGradient>
	<path fill="url(#SVGID_1_)" d="M92.633,325.309c14.443,21.669,39.583,4.955,39.583,4.955l48.609-64.978l-45.264-86.626
		L70.95,287.469L92.633,325.309z"/>
</g>
<path fill="#1F6284" d="M249.388,339.394l-138.701-2.423c0,0,16.626-0.278,27.275-15.632L256.63,121.636l85.268,15.735
	c0,0,26.923,13.655,15.17,36.895l-92.463,155.712C264.604,329.978,256.892,339.556,249.388,339.394z"/>
<g>
	<path fill="#267CBC" d="M275.51,13.191c-28.647-7.674-180.407-0.248-180.407-0.248c-14.984,2.52-22.439,18.169-22.439,18.169
		l0.071,0.196C71.364,35,67.104,48.912,74.58,63.218l33.23,63.596l-0.051-0.141c17.945-3.863,160.935,1.492,160.935,1.492
		c71.335,5.532,87.176,25.299,90.731,29.551l-51.742-125.42C299.438,12.874,275.51,13.191,275.51,13.191z"/>
</g>
<g>
	<path fill="#1F6284" d="M341.896,137.371l-83.75-9.58l-30.626,51.575l93.534,55.542l36.012-60.643
		C368.819,151.027,341.896,137.371,341.896,137.371z"/>
</g>
<g>
	<rect x="408.693" y="23.852" fill="none" width="383.98" height="158.992"/>
	<path fill="#FFFDFD" d="M448.111,156.149l-12.419-83.156l-0.721-5.58h-1.08v88.735h-18V23.854h23.761l11.52,60.479l0.899,7.02
		h0.359l0.9-7.02l11.52-60.479h23.76v132.294h-17.999V67.413h-1.08l-0.722,5.58l-12.419,83.156L448.111,156.149L448.111,156.149z"/>
	<path fill="#FFFDFD" d="M498.692,174.868c0.18,0.18,0.54,0.18,1.079,0.18c0.899,0.18,5.399,0.54,8.279-1.62s4.86-5.22,5.94-9
		c0.539-1.8,0.72-3.6,0.72-5.4L497.973,57.693h17.819l7.199,60.479l0.359,5.04h0.721l0.359-5.04l7.199-60.479h17.819L531.99,163.529
		c-0.9,7.021-3.601,13.859-7.92,19.079c-4.319,5.221-10.079,8.82-17.279,8.82c-0.54,0-1.26,0-2.16,0c-1.62,0-3.779-0.18-5.939-0.36
		L498.692,174.868L498.692,174.868z"/>
	<path fill="#FFFDFD" d="M603.271,108.631c-0.54,9.18-3.78,15.659-10.08,20.519c-3.239,2.521-7.739,3.78-13.319,3.78
		c-0.54,0-1.08,0-1.62,0s-1.26,0-1.8-0.18c-1.62,1.439-2.521,2.88-2.521,4.5c0,2.16,1.801,3.42,4.5,4.14
		c2.699,0.9,5.939,1.44,9.359,1.98c5.76,0.72,11.879,2.16,16.919,5.58c4.86,3.42,8.28,8.64,8.28,17.278
		c0,9.54-4.142,16.021-9.9,19.799c-5.938,3.78-13.859,5.4-21.238,5.4c-8.641-0.18-16.02-1.44-21.06-4.32
		c-5.22-2.88-8.1-7.56-8.1-14.759c0-3.42,1.8-6.3,4.5-8.819c2.698-2.52,6.3-4.5,9.72-6.119c-5.94-1.62-10.98-5.399-10.98-13.14
		c0-2.88,1.62-5.76,3.78-8.46s4.86-4.858,7.561-6.3c-5.221-3.419-7.739-8.819-8.999-13.319c-0.722-2.699-1.262-5.398-1.44-8.1
		v-26.82c0.72-9.18,3.6-15.839,9.899-21.059c3.061-2.7,7.56-3.96,13.14-3.96c9.18,0,14.76,4.14,18.18,9
		c1.261-1.26,3.42-3.419,6.3-5.399c2.699-1.979,5.761-3.6,8.641-3.6v16.199c-4.86,0-8.46,0.899-10.62,2.16
		c0.18,0.899,0.36,1.8,0.54,2.34c0,0.72,0,1.439,0.18,1.979c0.182,0.54,0.182,1.26,0.182,1.8v27.898H603.271z M576.991,160.649
		c-3.78,2.16-6.659,4.86-6.659,8.641c0,3.779,3.419,6.839,11.879,6.839c3.061,0,6.479-0.54,9.18-1.62s4.681-2.7,4.681-5.04
		c0-1.62-0.181-2.88-1.439-4.14c-1.439-1.261-3.78-2.16-8.28-2.88L576.991,160.649z M585.451,81.992c0-3.42-0.721-5.58-2.16-7.561
		c-0.72-0.899-1.8-1.439-3.42-1.439c-2.88,0-4.319,2.34-4.859,4.5c-0.359,1.26-0.54,2.88-0.359,4.5v26.999
		c-0.181,3.42,0.359,5.579,1.979,7.38c0.721,0.899,1.801,1.439,3.24,1.439c3.06,0,4.32-2.16,5.04-4.319
		c0.358-1.261,0.54-2.881,0.54-4.5V81.992z"/>
	<path fill="#FFFDFD" d="M665.012,120.87v11.34c-0.54,9.54-3.42,16.199-9.899,21.419c-3.239,2.7-7.739,3.96-13.68,3.96
		c-11.699,0-17.64-6.479-20.52-12.959c-1.62-3.78-2.7-8.1-2.88-12.959V82.172c0.54-9.54,3.6-16.56,10.08-21.959
		c3.06-2.7,7.56-3.96,13.499-3.96c11.698,0,17.64,6.479,20.52,12.779c1.619,3.779,2.699,7.92,2.88,12.6v28.619h-30.06v21.419
		c0.181,3.78,1.261,6.479,2.88,8.459c0.9,0.899,2.16,1.439,3.78,1.439c3.42,0,5.04-2.159,5.76-4.858c0.54-1.44,0.72-3.061,0.72-5.04
		v-10.8H665.012z M634.952,96.031h13.14V82.172c0-3.78-0.72-6.479-2.52-8.64c-0.9-0.9-2.34-1.44-3.96-1.44
		c-3.42,0-4.86,2.34-5.761,5.04c-0.539,1.44-0.72,3.06-0.899,5.04V96.031L634.952,96.031z"/>
	<path fill="#FFFDFD" d="M677.072,156.149V23.854h18.179v132.294L677.072,156.149L677.072,156.149z"/>
</g>
<g>
	<path fill="#FFFDFD" d="M415.893,322.337V190.042h17.101c11.52,0,20.52,2.16,26.459,7.739c5.938,5.579,9,14.22,9,27.358
		c0,6.299-0.54,10.979-2.521,15.299c-1.979,4.32-5.039,7.919-9.539,12.06c4.859,2.7,8.46,7.74,11.34,16.2
		c1.439,4.14,2.159,9.54,2.159,16.198c0,9.899-1.8,18.72-6.3,25.56c-4.499,6.84-12.239,11.339-23.759,11.879h-23.939V322.337z
		 M435.332,244.58c1.62,0,5.4,0.18,8.64-1.98c3.24-2.16,5.761-6.479,5.761-15.659c0-9.18-2.521-13.5-5.761-15.659
		c-3.238-2.16-7.02-1.98-8.64-1.98V244.58z M435.332,303.078c1.62,0,5.4,0.359,8.64-1.98c3.24-2.34,5.761-7.56,5.761-18.359
		s-2.521-16.02-5.761-18.358c-3.238-2.34-7.02-1.98-8.64-1.98V303.078z"/>
	<path fill="#FFFDFD" d="M526.951,287.058v11.34c-0.54,9.54-3.42,16.199-9.9,21.419c-3.239,2.7-7.739,3.96-13.679,3.96
		c-11.7,0-17.64-6.479-20.521-12.959c-1.619-3.779-2.699-8.1-2.88-12.959V248.36c0.54-9.54,3.601-16.559,10.08-21.959
		c3.061-2.699,7.561-3.96,13.499-3.96c11.699,0,17.641,6.48,20.521,12.779c1.619,3.78,2.698,7.92,2.88,12.6v28.619h-30.061v21.419
		c0.182,3.78,1.262,6.479,2.881,8.459c0.899,0.9,2.159,1.44,3.779,1.44c3.42,0,5.04-2.16,5.76-4.859
		c0.54-1.439,0.721-3.06,0.721-5.04v-10.8H526.951z M496.892,262.219h13.141V248.36c0-3.779-0.72-6.479-2.521-8.64
		c-0.899-0.9-2.34-1.439-3.96-1.439c-3.42,0-4.859,2.34-5.76,5.039c-0.54,1.44-0.72,3.061-0.9,5.04V262.219L496.892,262.219z"/>
	<path fill="#FFFDFD" d="M575.37,242.6c-1.62-0.54-3.42-0.72-5.04-0.72c-2.88,0-6.3,0.36-9.18,3.06c-3.42,2.88-3.96,5.94-3.96,9
		v68.397h-18.18v-98.456h18.18v10.979c0.18-1.26,1.439-4.319,4.319-7.199c2.88-2.7,7.199-5.221,13.859-5.221L575.37,242.6
		L575.37,242.6z"/>
	<path fill="#FFFDFD" d="M627.747,274.819c-0.54,9.181-3.78,15.659-10.08,20.52c-3.239,2.52-7.739,3.78-13.319,3.78
		c-0.54,0-1.08,0-1.619,0c-0.54,0-1.261,0-1.801-0.181c-1.62,1.44-2.52,2.88-2.52,4.5c0,2.16,1.8,3.42,4.5,4.141
		c2.699,0.899,5.938,1.439,9.358,1.979c5.761,0.72,11.88,2.16,16.919,5.58c4.86,3.42,8.28,8.64,8.28,17.279
		c0,9.54-4.141,16.02-9.899,19.799c-5.939,3.779-13.859,5.4-21.238,5.4c-8.641-0.182-16.021-1.441-21.061-4.32
		c-5.22-2.881-8.1-7.562-8.1-14.76c0-3.42,1.8-6.301,4.5-8.819c2.699-2.52,6.3-4.5,9.72-6.12
		c-5.939-1.62-10.979-5.398-10.979-13.139c0-2.88,1.62-5.76,3.78-8.46c2.159-2.7,4.859-4.859,7.56-6.3
		c-5.22-3.42-7.739-8.819-8.999-13.319c-0.721-2.7-1.261-5.399-1.44-8.1V247.46c0.721-9.18,3.601-15.839,9.899-21.06
		c3.062-2.699,7.56-3.96,13.14-3.96c9.181,0,14.761,4.141,18.181,9c1.26-1.26,3.42-3.419,6.3-5.398
		c2.699-1.98,5.76-3.601,8.64-3.601v16.199c-4.859,0-8.46,0.9-10.62,2.16c0.181,0.9,0.36,1.8,0.54,2.34c0,0.72,0,1.44,0.181,1.98
		s0.181,1.26,0.181,1.8v27.897H627.747z M601.468,326.837c-3.78,2.16-6.659,4.859-6.659,8.64s3.42,6.839,11.88,6.839
		c3.06,0,6.479-0.539,9.18-1.618c2.701-1.08,4.68-2.7,4.68-5.04c0-1.62-0.18-2.881-1.438-4.141c-1.44-1.26-3.78-2.16-8.28-2.88
		L601.468,326.837z M609.928,248.18c0-3.42-0.721-5.58-2.16-7.56c-0.72-0.9-1.8-1.44-3.42-1.44c-2.88,0-4.318,2.34-4.858,4.5
		c-0.36,1.26-0.54,2.88-0.36,4.5v26.999c-0.18,3.42,0.36,5.58,1.979,7.38c0.721,0.9,1.801,1.44,3.239,1.44
		c3.061,0,4.32-2.16,5.04-4.32c0.359-1.26,0.54-2.88,0.54-4.5V248.18z"/>
	<path fill="#FFFDFD" d="M671.667,249.08c0-2.34,0-5.221-0.72-7.561c-0.9-2.16-2.34-3.959-5.221-3.959c-2.34,0-3.779,1.8-4.5,3.959
		c-0.898,2.16-1.079,5.221-1.079,7.561c0,3.06,1.619,6.299,3.96,9.179c2.159,2.88,5.04,5.76,7.92,8.46
		c3.778,3.78,8.278,8.1,11.34,12.959c3.06,5.04,5.398,10.62,5.398,17.099c0,6.301-1.439,12.959-5.039,18
		c-3.779,5.221-9.539,9-18.18,9c-10.979,0-17.46-5.04-21.06-11.159c-3.601-6.12-4.319-13.68-4.319-18.899h16.919
		c0,2.7,0.181,6.479,1.439,9.359c1.261,3.06,3.239,5.58,7.021,5.58c5.221,0,6.3-6.12,6.3-11.881c0-5.938-5.76-11.879-11.34-17.459
		c-4.319-4.14-8.46-7.92-11.698-12.779c-3.24-4.86-5.58-10.26-5.58-17.459c0-5.761,1.08-12.419,4.5-17.641
		c3.42-5.04,8.999-8.818,17.639-9c10.62-0.18,16.56,3.78,19.619,9c3.061,5.221,3.601,12.061,3.601,17.641L671.667,249.08
		L671.667,249.08z"/>
	<path fill="#FFFDFD" d="M719.91,199.582v24.299h12.419v16.379H719.91v48.958c0,3.06,0,7.02,0.72,10.26s2.16,5.939,5.04,5.939
		c1.439,0,3.239-0.181,4.499-0.36c0.721-0.18,1.44-0.18,2.16-0.359v17.818c-0.899,0.18-1.8,0.54-2.7,0.72
		c-1.8,0.36-4.14,0.54-7.02,0.54c-10.619,0-15.659-5.399-18.18-12.238c-2.521-6.84-2.7-15.12-2.7-20.879V240.26h-9.18v-16.379h9.18
		v-24.299H719.91z"/>
	<path fill="#FFFDFD" d="M778.408,242.6c-1.62-0.54-3.42-0.72-5.04-0.72c-2.88,0-6.3,0.36-9.18,3.06c-3.421,2.88-3.96,5.94-3.96,9
		v68.397h-18.181v-98.456h18.181v10.979c0.18-1.26,1.439-4.319,4.319-7.199c2.88-2.7,7.199-5.221,13.859-5.221L778.408,242.6
		L778.408,242.6z"/>
	<path fill="#FFFDFD" d="M831.146,287.058v11.34c-0.54,9.54-3.421,16.199-9.9,21.419c-3.239,2.7-7.739,3.96-13.679,3.96
		c-11.7,0-17.641-6.479-20.521-12.959c-1.62-3.779-2.7-8.1-2.88-12.959V248.36c0.54-9.54,3.6-16.559,10.08-21.959
		c3.06-2.699,7.56-3.96,13.499-3.96c11.699,0,17.64,6.48,20.52,12.779c1.619,3.78,2.699,7.92,2.881,12.6v28.619h-30.061v21.419
		c0.181,3.78,1.261,6.479,2.88,8.459c0.9,0.9,2.16,1.44,3.78,1.44c3.42,0,5.04-2.16,5.76-4.859c0.54-1.439,0.72-3.06,0.72-5.04
		v-10.8H831.146z M801.087,262.219h13.14V248.36c0-3.779-0.72-6.479-2.52-8.64c-0.9-0.9-2.34-1.439-3.96-1.439
		c-3.42,0-4.86,2.34-5.76,5.039c-0.54,1.44-0.721,3.061-0.9,5.04V262.219L801.087,262.219z"/>
	<path fill="#FFFDFD" d="M870.385,249.08c0-2.34,0-5.221-0.72-7.561c-0.899-2.16-2.34-3.959-5.22-3.959c-2.34,0-3.78,1.8-4.5,3.959
		c-0.899,2.16-1.08,5.221-1.08,7.561c0,3.06,1.62,6.299,3.96,9.179c2.16,2.88,5.04,5.76,7.92,8.46c3.78,3.78,8.279,8.1,11.34,12.959
		c3.061,5.04,5.399,10.62,5.399,17.099c0,6.301-1.439,12.959-5.04,18c-3.779,5.221-9.539,9-18.18,9
		c-10.979,0-17.46-5.04-21.06-11.159c-3.6-6.12-4.319-13.68-4.319-18.899h16.919c0,2.7,0.181,6.479,1.44,9.359
		c1.26,3.06,3.239,5.58,7.021,5.58c5.22,0,6.3-6.12,6.3-11.881c0-5.938-5.761-11.879-11.341-17.459
		c-4.319-4.14-8.46-7.92-11.698-12.779c-3.24-4.86-5.58-10.26-5.58-17.459c0-5.761,1.08-12.419,4.5-17.641
		c3.42-5.04,8.999-8.818,17.639-9c10.62-0.18,16.561,3.78,19.619,9c3.061,5.221,3.601,12.061,3.601,17.641L870.385,249.08
		L870.385,249.08z"/>
	<path fill="#FFFDFD" d="M925.825,249.08c0-2.34,0-5.221-0.72-7.561c-0.9-2.16-2.341-3.959-5.221-3.959c-2.34,0-3.779,1.8-4.5,3.959
		c-0.898,2.16-1.08,5.221-1.08,7.561c0,3.06,1.62,6.299,3.96,9.179c2.16,2.88,5.04,5.76,7.921,8.46
		c3.778,3.78,8.278,8.1,11.34,12.959c3.06,5.04,5.398,10.62,5.398,17.099c0,6.301-1.439,12.959-5.04,18
		c-3.778,5.221-9.539,9-18.179,9c-10.979,0-17.46-5.04-21.06-11.159c-3.601-6.12-4.319-13.68-4.319-18.899h16.919
		c0,2.7,0.18,6.479,1.439,9.359c1.261,3.06,3.239,5.58,7.021,5.58c5.22,0,6.3-6.12,6.3-11.881c0-5.938-5.76-11.879-11.34-17.459
		c-4.32-4.14-8.46-7.92-11.699-12.779c-3.239-4.86-5.58-10.26-5.58-17.459c0-5.761,1.08-12.419,4.5-17.641
		c3.42-5.04,8.999-8.818,17.64-9c10.62-0.18,16.56,3.78,19.619,9c3.061,5.221,3.601,12.061,3.601,17.641L925.825,249.08
		L925.825,249.08z"/>
	<path fill="#FFFDFD" d="M999.265,287.058v11.34c-0.54,9.54-3.42,16.199-9.899,21.419c-3.239,2.7-7.739,3.96-13.68,3.96
		c-11.699,0-17.64-6.479-20.52-12.959c-1.62-3.779-2.7-8.1-2.88-12.959V248.36c0.54-9.54,3.6-16.559,10.079-21.959
		c3.061-2.699,7.561-3.96,13.5-3.96c11.698,0,17.64,6.48,20.52,12.779c1.619,3.78,2.699,7.92,2.88,12.6v28.619h-30.06v21.419
		c0.181,3.78,1.261,6.479,2.88,8.459c0.9,0.9,2.16,1.44,3.78,1.44c3.42,0,5.04-2.16,5.76-4.859c0.54-1.439,0.72-3.06,0.72-5.04
		v-10.8H999.265z M969.205,262.219h13.14V248.36c0-3.779-0.72-6.479-2.52-8.64c-0.9-0.9-2.34-1.439-3.96-1.439
		c-3.42,0-4.859,2.34-5.76,5.039c-0.54,1.44-0.721,3.061-0.9,5.04V262.219L969.205,262.219z"/>
	<path fill="#FFFDFD" d="M1047.684,242.6c-1.619-0.54-3.42-0.72-5.04-0.72c-2.88,0-6.3,0.36-9.18,3.06c-3.42,2.88-3.96,5.94-3.96,9
		v68.397h-18.18v-98.456h18.18v10.979c0.18-1.26,1.439-4.319,4.32-7.199c2.88-2.7,7.198-5.221,13.858-5.221L1047.684,242.6
		L1047.684,242.6z"/>
</g>
</svg>
