<?xml version="1.0" encoding="utf-8"?>
<!-- Generator: Adobe Illustrator 19.0.0, SVG Export Plug-In . SVG Version: 6.00 Build 0)  -->
<svg version="1.1" id="Objects" xmlns="http://www.w3.org/2000/svg" xmlns:xlink="http://www.w3.org/1999/xlink" x="0px" y="0px"
	 viewBox="0 0 452.4 221.7" style="enable-background:new 0 0 452.4 221.7;" xml:space="preserve">
<style type="text/css">
	.st0{clip-path:url(#SVGID_2_);}
	.st1{fill:url(#SVGID_3_);}
	.st2{opacity:0.27;clip-path:url(#SVGID_2_);fill:url(#SVGID_4_);}
	.st3{opacity:0.27;clip-path:url(#SVGID_2_);fill:url(#SVGID_5_);}
	.st4{clip-path:url(#SVGID_2_);fill:url(#SVGID_6_);}
	.st5{clip-path:url(#SVGID_2_);fill:url(#SVGID_7_);}
	.st6{clip-path:url(#SVGID_2_);fill:url(#SVGID_8_);}
	.st7{clip-path:url(#SVGID_10_);fill:url(#SVGID_11_);}
	.st8{clip-path:url(#SVGID_10_);fill:url(#SVGID_12_);}
	.st9{opacity:0.27;clip-path:url(#SVGID_2_);fill:url(#SVGID_13_);}
	.st10{opacity:0.53;clip-path:url(#SVGID_2_);fill:url(#SVGID_14_);}
</style>
<g>
	<defs>
		<path id="SVGID_1_" d="M369.5,5c-41.2-13.7-96.9,4.1-147.4,19.5c-3.3,0.9-5.3,1.6-5.3,1.6s30.4,32.1,55.3,64.3
			c24.9,32.2,75.4,58,109.5,25.1c0,0-28.7,14.6-59.2-24.6c-8.6-11.1-20.6-27.9-32.8-42.1c25.9-6.3,50.1-9.6,66.7-4
			c43.6,14.5,63.3,49.3,50.2,88.7c-8.2,24.6-25.7,40.1-48.3,44.7c-11.5,0.9-24-0.8-37.1-5.3c-27.1-9.3-56.3-50-82-85.9
			c-0.4-0.6-1-1.4-1.7-2.4c-1.3-1.8-2.7-3.5-4-5.1c-23.4-31.8-49-61-79.7-71.6C84.3-15.9,26.2,16.4,6.4,74s6.3,118.7,75.5,142.5
			c41,14.1,96.9-3.2,147.6-18.2c3.3-0.9,5.4-1.6,5.4-1.6s-30.1-32.4-54.7-64.8c-24.6-32.5-74.9-58.7-109.3-26.1
			c0,0,28.8-14.3,59,25.1c8.5,11.2,20.4,28.1,32.4,42.3c-26,6.1-50.2,9.1-66.7,3.4c-43.5-14.9-62.9-49.9-49.4-89.1
			c13.5-39.2,50.2-54.9,93.7-40c1.6,0.6,3.3,1.2,5,2c-0.5-0.4-0.1-0.4,0.9-0.1c-0.6,0-0.9,0.1-0.9,0.1
			c46.5,37.2,89.8,142.8,154.9,164.5c69.4,23.1,127.3-9.6,146.5-67.4C465.6,89,439,28.1,369.5,5z M352.2,179.1
			c-0.4,0-0.9,0.1-1.3,0.1C351.3,179.2,351.7,179.2,352.2,179.1z M355.3,178.7c-0.4,0.1-0.8,0.1-1.2,0.2
			C354.5,178.8,354.9,178.8,355.3,178.7z M311,173.6c0.7,0.3,1.4,0.5,2.1,0.7C312.4,174.1,311.7,173.9,311,173.6z M321.6,176.8
			c-0.4-0.1-0.7-0.2-1.1-0.3C320.9,176.6,321.2,176.7,321.6,176.8z M317.8,175.8c-0.4-0.1-0.7-0.2-1.1-0.3
			C317.1,175.6,317.5,175.7,317.8,175.8z M325.1,177.6c0.1,0,0.2,0,0.3,0.1C325.3,177.6,325.2,177.6,325.1,177.6z M328.6,178.3
			c0.4,0.1,0.8,0.1,1.2,0.2C329.4,178.4,329,178.3,328.6,178.3z M332.2,178.8c0.4,0.1,0.8,0.1,1.1,0.2
			C333,178.9,332.6,178.9,332.2,178.8z M336.7,179.3c0.2,0,0.4,0,0.6,0C337.1,179.3,336.9,179.3,336.7,179.3z M340,179.5
			c0.4,0,0.8,0,1.2,0C340.8,179.6,340.4,179.5,340,179.5z M343.4,179.6c0.4,0,0.8,0,1.2,0C344.2,179.6,343.8,179.6,343.4,179.6z
			 M348.6,179.4c-0.3,0-0.6,0-1,0.1C348,179.5,348.3,179.5,348.6,179.4z"/>
	</defs>
	<clipPath id="SVGID_2_">
		<use xlink:href="#SVGID_1_"  style="overflow:visible;"/>
	</clipPath>
	<g class="st0">
		<linearGradient id="SVGID_3_" gradientUnits="userSpaceOnUse" x1="38.1148" y1="25.4342" x2="274.473" y2="261.7923">
			<stop  offset="0" style="stop-color:#00BAC7"/>
			<stop  offset="0.9951" style="stop-color:#3E008B"/>
		</linearGradient>
		<path class="st1" d="M70.9,105.7c0,0,28.8-14.3,59,25.1c8.5,11.2,20.4,28.1,32.4,42.3c-26,6.1-50.2,9.1-66.7,3.4
			c-43.5-14.9-62.9-49.9-49.4-89.1c13.5-39.2,50.2-54.9,93.7-40c1.6,0.6,3.3,1.2,5,2c-3.1-2.4,28.6,11.2,25.5,9.4
			c0,0,56.4,33.4,56.8,33.9c26.1,35.7,58.7,72.3,85.9,81.3c16.3,5.4,31.6,6.6,45.1,3.9c-11.5,0.9-24-0.8-37.1-5.3
			c-27.1-9.3-56.3-50-82-85.9c-0.4-0.6-1-1.4-1.7-2.4c-1.3-1.8-2.7-3.5-4-5.1c-23.4-31.8-49-61-79.7-71.6
			C84.3-16,26.2,16.3,6.4,73.9c-19.8,57.6,6.3,118.7,75.5,142.5c41,14.1,96.9-3.2,147.6-18.2c3.3-0.9,5.4-1.6,5.4-1.6
			s-30.1-32.4-54.7-64.8C155.5,99.3,105.3,73.1,70.9,105.7z"/>
	</g>
	<linearGradient id="SVGID_4_" gradientUnits="userSpaceOnUse" x1="93.4316" y1="206.4756" x2="239.9653" y2="59.9419">
		<stop  offset="0" style="stop-color:#FFFFFF;stop-opacity:0"/>
		<stop  offset="1" style="stop-color:#FFFFFF"/>
	</linearGradient>
	<path class="st2" d="M321,172.8c-27.1-9.3-56.3-50-82-85.9c-0.4-0.6-1-1.4-1.7-2.4c-1.3-1.8-2.7-3.5-4-5.1
		c-23.4-31.8-49-61-79.7-71.6C84.3-16,26.2,16.3,6.4,73.9c-4.5,13-6.6,26.3-6.4,39.2c35.3-55.8,74.8-69.8,103.6-70.9
		c8.2-0.5,16.9,0.3,26,2.4c0.7,0.2,1.3,0.3,1.9,0.5c0.1,0,0.2,0.1,0.4,0.1c3,0.8,5.6,1.6,7.6,2.3c0.1,0,0.2,0.1,0.4,0.1
		c1,0.3,2,0.7,3,1.2c1.3,0.5,2,0.9,2,0.9c-3.1-2.4,28.6,11.2,25.5,9.4c0,0,56.4,33.4,56.8,33.9c26.1,35.7,58.7,72.3,85.9,81.3
		c16.3,5.4,31.6,6.6,45.1,3.9C346.7,179,334.2,177.3,321,172.8z"/>
	<linearGradient id="SVGID_5_" gradientUnits="userSpaceOnUse" x1="93.4316" y1="206.4756" x2="239.9653" y2="59.9419">
		<stop  offset="0" style="stop-color:#FFFFFF;stop-opacity:0"/>
		<stop  offset="0.8529" style="stop-color:#FFFFFF;stop-opacity:0.8529"/>
		<stop  offset="1" style="stop-color:#FFFFFF"/>
	</linearGradient>
	<path class="st3" d="M321,172.8c-27.1-9.3-56.3-50-82-85.9c-0.4-0.6-1-1.4-1.7-2.4c-1.3-1.8-2.7-3.5-4-5.1
		c-23.4-31.8-49-61-79.7-71.6C84.3-16,26.2,16.3,6.4,73.9c-4.5,13-6.6,26.3-6.4,39.2c35.3-55.8,74.8-69.8,103.6-70.9
		c8.2-0.5,16.9,0.3,26,2.4c0.7,0.2,1.3,0.3,1.9,0.5c0.1,0,0.2,0.1,0.4,0.1c3,0.8,5.6,1.6,7.6,2.3c0.1,0,0.2,0.1,0.4,0.1
		c1,0.3,2,0.7,3,1.2c1.3,0.5,2,0.9,2,0.9c-3.1-2.4,28.6,11.2,25.5,9.4c0,0,56.4,33.4,56.8,33.9c26.1,35.7,58.7,72.3,85.9,81.3
		c16.3,5.4,31.6,6.6,45.1,3.9C346.7,179,334.2,177.3,321,172.8z"/>
	<linearGradient id="SVGID_6_" gradientUnits="userSpaceOnUse" x1="236.2738" y1="166.1516" x2="394.0038" y2="8.4217">
		<stop  offset="0" style="stop-color:#700877"/>
		<stop  offset="1" style="stop-color:#FF2759"/>
	</linearGradient>
	<path class="st4" d="M369.5,4.9C328.4-8.8,272.7,9,222.1,24.4c-3.3,0.9-5.3,1.6-5.3,1.6s30.4,32.1,55.3,64.3
		c24.9,32.2,75.4,58,109.5,25.1c0,0-28.7,14.6-59.2-24.6c-8.6-11.1-20.6-27.9-32.8-42.1c25.9-6.3,50.1-9.6,66.7-4
		c43.6,14.5,63.3,49.3,50.2,88.7c-13.1,39.3-49.8,55.4-93.4,40.8c-21.2-7.1-43.9-33.2-65.2-61.3c-1.8-2.2-4.2-5.5-7.5-10
		c0,0,0,0,0,0c-0.8-1.1-1.6-2.2-2.4-3.2c-41.5-55-93.2-50-93.2-50l0,0c46.5,37.2,89.8,142.8,154.9,164.5
		c69.4,23.1,127.3-9.6,146.5-67.4C465.6,88.9,439,28,369.5,4.9z"/>
	<linearGradient id="SVGID_7_" gradientUnits="userSpaceOnUse" x1="144.8485" y1="116.2372" x2="358.1443" y2="116.2372">
		<stop  offset="0" style="stop-color:#000000"/>
		<stop  offset="1" style="stop-color:#000000;stop-opacity:0"/>
	</linearGradient>
	<path class="st5" d="M205.5,124.1L205.5,124.1c0,0,86.5,79,152.6,54l0,0c-13.5,2.7-28.8,1.6-45.1-3.9
		c-21.2-7.1-43.9-33.2-65.2-61.3c-1.8-2.2-4.2-5.5-7.5-10c0,0,0,0,0,0c-0.8-1.1-1.6-2.2-2.4-3.2c-41.5-55-93.2-50-93.2-50
		C165,65.7,184.6,94.7,205.5,124.1z"/>
	<linearGradient id="SVGID_8_" gradientUnits="userSpaceOnUse" x1="144.8485" y1="116.2372" x2="358.1443" y2="116.2372">
		<stop  offset="0" style="stop-color:#000000"/>
		<stop  offset="0.1413" style="stop-color:#000000;stop-opacity:0.8587"/>
		<stop  offset="1" style="stop-color:#000000;stop-opacity:0"/>
	</linearGradient>
	<path class="st6" d="M205.5,124.1L205.5,124.1c0,0,86.5,79,152.6,54l0,0c-13.5,2.7-28.8,1.6-45.1-3.9
		c-21.2-7.1-43.9-33.2-65.2-61.3c-1.8-2.2-4.2-5.5-7.5-10c0,0,0,0,0,0c-0.8-1.1-1.6-2.2-2.4-3.2c-41.5-55-93.2-50-93.2-50
		C165,65.7,184.6,94.7,205.5,124.1z"/>
	<g class="st0">
		<defs>
			<path id="SVGID_9_" d="M369.5,4.9C328.4-8.8,272.7,9,222.1,24.4c-3.3,0.9-5.3,1.6-5.3,1.6s30.4,32.1,55.3,64.3
				c24.9,32.2,75.4,58,109.5,25.1c0,0-28.7,14.6-59.2-24.6c-8.6-11.1-20.6-27.9-32.8-42.1c25.9-6.3,50.1-9.6,66.7-4
				c43.6,14.5,63.3,49.3,50.2,88.7c-8.2,24.6-25.7,40.1-48.3,44.7c-11.5,0.9-24-0.8-37.1-5.3c-27.1-9.3-56.3-50-82-85.9
				c-0.4-0.6-1-1.4-1.7-2.4c-1.3-1.8-2.7-3.5-4-5.1c-23.4-31.8-49-61-79.7-71.6C84.3-16,26.2,16.3,6.4,73.9
				c-19.8,57.6,6.3,118.7,75.5,142.5c41,14.1,96.9-3.2,147.6-18.2c3.3-0.9,5.4-1.6,5.4-1.6s-30.1-32.4-54.7-64.8
				c-24.6-32.5-74.9-58.7-109.3-26.1c0,0,28.8-14.3,59,25.1c8.5,11.2,20.4,28.1,32.4,42.3c-26,6.1-50.2,9.1-66.7,3.4
				c-43.5-14.9-62.9-49.9-49.4-89.1c13.5-39.2,50.2-54.9,93.7-40c1.6,0.6,3.3,1.2,5,2c-0.5-0.4-0.1-0.4,0.9-0.1
				c-0.6,0-0.9,0.1-0.9,0.1c46.5,37.2,89.8,142.8,154.9,164.5c69.4,23.1,127.3-9.6,146.5-67.4C465.6,88.9,439,28,369.5,4.9z
				 M352.2,179c-0.4,0-0.9,0.1-1.3,0.1C351.3,179.1,351.7,179.1,352.2,179z M355.3,178.6c-0.4,0.1-0.8,0.1-1.2,0.2
				C354.5,178.7,354.9,178.7,355.3,178.6z M311,173.5c0.7,0.3,1.4,0.5,2.1,0.7C312.4,174,311.7,173.8,311,173.5z M321.6,176.7
				c-0.4-0.1-0.7-0.2-1.1-0.3C320.9,176.5,321.2,176.6,321.6,176.7z M317.8,175.7c-0.4-0.1-0.7-0.2-1.1-0.3
				C317.1,175.5,317.5,175.6,317.8,175.7z M325.1,177.5c0.1,0,0.2,0,0.3,0.1C325.3,177.6,325.2,177.5,325.1,177.5z M328.6,178.2
				c0.4,0.1,0.8,0.1,1.2,0.2C329.4,178.3,329,178.3,328.6,178.2z M332.2,178.7c0.4,0.1,0.8,0.1,1.1,0.2
				C333,178.8,332.6,178.8,332.2,178.7z M336.7,179.2c0.2,0,0.4,0,0.6,0C337.1,179.3,336.9,179.3,336.7,179.2z M340,179.4
				c0.4,0,0.8,0,1.2,0C340.8,179.5,340.4,179.5,340,179.4z M343.4,179.5c0.4,0,0.8,0,1.2,0C344.2,179.5,343.8,179.5,343.4,179.5z
				 M348.6,179.4c-0.3,0-0.6,0-1,0.1C348,179.4,348.3,179.4,348.6,179.4z"/>
		</defs>
		<clipPath id="SVGID_10_">
			<use xlink:href="#SVGID_9_"  style="overflow:visible;"/>
		</clipPath>
		<linearGradient id="SVGID_11_" gradientUnits="userSpaceOnUse" x1="312.1922" y1="105.5196" x2="341.897" y2="75.8148">
			<stop  offset="0" style="stop-color:#000000"/>
			<stop  offset="1" style="stop-color:#000000;stop-opacity:0"/>
		</linearGradient>
		<path class="st7" d="M289.6,48.8c0,0,17.3,108.8,92,66.7L289.6,48.8z"/>
		
			<linearGradient id="SVGID_12_" gradientUnits="userSpaceOnUse" x1="81.5653" y1="252.7605" x2="111.2701" y2="223.0557" gradientTransform="matrix(-1 0 0 -1 220.9663 368.112)">
			<stop  offset="0" style="stop-color:#000000"/>
			<stop  offset="1" style="stop-color:#000000;stop-opacity:0"/>
		</linearGradient>
		<path class="st8" d="M162,172.1c0,0-17.3-108.8-92-66.7L162,172.1z"/>
	</g>
	<linearGradient id="SVGID_13_" gradientUnits="userSpaceOnUse" x1="216.7409" y1="50.6981" x2="466.9156" y2="50.6981">
		<stop  offset="0" style="stop-color:#FFFFFF;stop-opacity:0"/>
		<stop  offset="0.8529" style="stop-color:#FFFFFF;stop-opacity:0.8529"/>
		<stop  offset="1" style="stop-color:#FFFFFF"/>
	</linearGradient>
	<path class="st9" d="M216.7,26.1c0,0,209.3-55.2,234.5,99.9h15.7V-21.2C466.9-21.2,300.6-43.5,216.7,26.1z"/>
	
		<linearGradient id="SVGID_14_" gradientUnits="userSpaceOnUse" x1="-164.1168" y1="72.7338" x2="86.0579" y2="72.7338" gradientTransform="matrix(-1 0 0 -1 70.4635 243.3195)">
		<stop  offset="0" style="stop-color:#FFFFFF;stop-opacity:0"/>
		<stop  offset="0.8529" style="stop-color:#FFFFFF;stop-opacity:0.8529"/>
		<stop  offset="1" style="stop-color:#FFFFFF"/>
	</linearGradient>
	<path class="st10" d="M234.6,195.2c0,0-209.3,55.2-234.5-99.9h-15.7v147.2C-15.6,242.5,150.7,264.8,234.6,195.2z"/>
</g>
</svg>
