<?xml version="1.0" encoding="utf-8"?>
<!-- Generator: Adobe Illustrator 16.0.0, SVG Export Plug-In . SVG Version: 6.00 Build 0)  -->
<!DOCTYPE svg PUBLIC "-//W3C//DTD SVG 1.1//EN" "http://www.w3.org/Graphics/SVG/1.1/DTD/svg11.dtd">
<svg version="1.1" id="Capa_1" xmlns="http://www.w3.org/2000/svg" xmlns:xlink="http://www.w3.org/1999/xlink" x="0px" y="0px"
	 width="1048.402px" height="379.6px" viewBox="0 0 1048.402 379.6" enable-background="new 0 0 1048.402 379.6"
	 xml:space="preserve">
<g>
	<rect x="408.693" y="23.852" fill="none" width="383.979" height="158.992"/>
	<path fill="#FFFDFD" d="M448.111,156.149l-12.419-83.155l-0.722-5.58h-1.08v88.734h-18V23.854h23.762l11.52,60.479l0.899,7.02
		h0.358l0.9-7.02l11.52-60.479h23.761v132.294h-17.999V67.413h-1.08l-0.723,5.58l-12.419,83.155H448.111L448.111,156.149z"/>
	<path fill="#FFFDFD" d="M498.692,174.868c0.18,0.18,0.54,0.18,1.079,0.18c0.898,0.18,5.398,0.54,8.278-1.62s4.86-5.22,5.94-9
		c0.539-1.8,0.72-3.6,0.72-5.4L497.973,57.693h17.819l7.199,60.479l0.358,5.04h0.722l0.358-5.04l7.199-60.479h17.819L531.99,163.529
		c-0.9,7.021-3.602,13.859-7.92,19.079c-4.319,5.222-10.079,8.82-17.279,8.82c-0.54,0-1.26,0-2.16,0c-1.62,0-3.779-0.18-5.938-0.36
		V174.868L498.692,174.868z"/>
	<path fill="#FFFDFD" d="M603.271,108.631c-0.54,9.18-3.78,15.659-10.08,20.519c-3.239,2.521-7.739,3.78-13.319,3.78
		c-0.54,0-1.08,0-1.62,0s-1.26,0-1.8-0.18c-1.62,1.438-2.521,2.88-2.521,4.5c0,2.16,1.802,3.42,4.5,4.14
		c2.699,0.9,5.939,1.44,9.359,1.98c5.76,0.72,11.879,2.16,16.919,5.58c4.86,3.42,8.28,8.64,8.28,17.277
		c0,9.54-4.143,16.021-9.9,19.799c-5.938,3.78-13.858,5.4-21.238,5.4c-8.641-0.18-16.02-1.44-21.06-4.32
		c-5.22-2.88-8.1-7.56-8.1-14.759c0-3.42,1.8-6.3,4.5-8.819c2.697-2.52,6.3-4.5,9.72-6.118c-5.94-1.62-10.98-5.399-10.98-13.141
		c0-2.88,1.62-5.76,3.78-8.46s4.86-4.857,7.562-6.3c-5.222-3.419-7.739-8.819-8.999-13.319c-0.723-2.698-1.263-5.397-1.44-8.1
		v-26.82c0.72-9.18,3.6-15.839,9.899-21.059c3.061-2.7,7.56-3.96,13.14-3.96c9.18,0,14.76,4.14,18.18,9
		c1.261-1.26,3.42-3.419,6.3-5.399c2.699-1.979,5.762-3.6,8.642-3.6v16.199c-4.86,0-8.46,0.898-10.62,2.159
		c0.18,0.899,0.36,1.801,0.54,2.341c0,0.72,0,1.438,0.18,1.979c0.183,0.54,0.183,1.26,0.183,1.8v27.898h-0.004V108.631z
		 M576.991,160.649c-3.78,2.16-6.659,4.86-6.659,8.642c0,3.778,3.419,6.839,11.879,6.839c3.062,0,6.479-0.54,9.18-1.62
		c2.701-1.08,4.682-2.7,4.682-5.04c0-1.62-0.182-2.88-1.439-4.14c-1.438-1.262-3.779-2.16-8.279-2.88L576.991,160.649z
		 M585.451,81.992c0-3.42-0.721-5.58-2.16-7.562c-0.72-0.898-1.8-1.438-3.42-1.438c-2.88,0-4.319,2.34-4.859,4.5
		c-0.358,1.26-0.54,2.88-0.358,4.5v26.999c-0.182,3.42,0.358,5.578,1.979,7.38c0.722,0.898,1.801,1.438,3.24,1.438
		c3.06,0,4.32-2.16,5.04-4.318c0.357-1.262,0.54-2.882,0.54-4.5L585.451,81.992L585.451,81.992z"/>
	<path fill="#FFFDFD" d="M665.012,120.87v11.34c-0.54,9.54-3.42,16.199-9.898,21.419c-3.239,2.7-7.739,3.96-13.681,3.96
		c-11.698,0-17.64-6.479-20.52-12.959c-1.62-3.78-2.7-8.1-2.88-12.959V82.172c0.54-9.54,3.6-16.561,10.08-21.959
		c3.06-2.7,7.56-3.96,13.499-3.96c11.698,0,17.64,6.479,20.52,12.779c1.619,3.778,2.699,7.92,2.88,12.6v28.619h-30.06v21.419
		c0.181,3.78,1.261,6.479,2.88,8.459c0.9,0.898,2.16,1.438,3.78,1.438c3.42,0,5.04-2.158,5.76-4.857c0.54-1.44,0.72-3.062,0.72-5.04
		v-10.8H665.012z M634.952,96.031h13.14V82.172c0-3.78-0.72-6.479-2.52-8.64c-0.9-0.9-2.34-1.44-3.96-1.44
		c-3.42,0-4.86,2.34-5.762,5.04c-0.538,1.44-0.72,3.06-0.898,5.04V96.031L634.952,96.031z"/>
	<path fill="#FFFDFD" d="M677.072,156.149V23.854h18.179v132.294L677.072,156.149L677.072,156.149z"/>
</g>
<g>
	<path fill="#FFFDFD" d="M415.893,322.337V190.042h17.102c11.52,0,20.52,2.16,26.459,7.739c5.938,5.578,9,14.22,9,27.357
		c0,6.299-0.54,10.979-2.521,15.299c-1.979,4.32-5.039,7.919-9.539,12.061c4.859,2.7,8.46,7.74,11.341,16.2
		c1.438,4.14,2.158,9.54,2.158,16.197c0,9.899-1.8,18.721-6.3,25.561c-4.499,6.84-12.239,11.339-23.759,11.879h-23.939
		L415.893,322.337L415.893,322.337z M435.332,244.58c1.62,0,5.4,0.18,8.64-1.98c3.24-2.16,5.762-6.479,5.762-15.659
		c0-9.18-2.521-13.5-5.762-15.658c-3.237-2.16-7.02-1.98-8.64-1.98V244.58z M435.332,303.078c1.62,0,5.4,0.358,8.64-1.98
		c3.24-2.34,5.762-7.56,5.762-18.359c0-10.799-2.521-16.02-5.762-18.357c-3.237-2.34-7.02-1.98-8.64-1.98V303.078z"/>
	<path fill="#FFFDFD" d="M526.951,287.058v11.34c-0.54,9.54-3.42,16.199-9.9,21.419c-3.239,2.7-7.739,3.96-13.679,3.96
		c-11.7,0-17.64-6.479-20.521-12.959c-1.618-3.778-2.698-8.1-2.88-12.959V248.36c0.54-9.54,3.602-16.559,10.08-21.959
		c3.062-2.698,7.562-3.96,13.499-3.96c11.699,0,17.642,6.48,20.521,12.779c1.619,3.78,2.697,7.92,2.88,12.6v28.619H496.89v21.419
		c0.183,3.78,1.263,6.479,2.882,8.459c0.898,0.9,2.158,1.44,3.778,1.44c3.42,0,5.04-2.16,5.76-4.859
		c0.54-1.438,0.722-3.06,0.722-5.04v-10.8H526.951z M496.892,262.219h13.142V248.36c0-3.778-0.721-6.479-2.521-8.64
		c-0.898-0.9-2.34-1.438-3.96-1.438c-3.42,0-4.858,2.34-5.76,5.038c-0.54,1.44-0.72,3.062-0.9,5.04V262.219L496.892,262.219z"/>
	<path fill="#FFFDFD" d="M575.37,242.6c-1.62-0.54-3.42-0.72-5.04-0.72c-2.88,0-6.3,0.36-9.18,3.06c-3.42,2.88-3.96,5.94-3.96,9
		v68.397H539.01v-98.456h18.181v10.979c0.18-1.26,1.438-4.318,4.318-7.198c2.88-2.7,7.199-5.222,13.859-5.222L575.37,242.6
		L575.37,242.6z"/>
	<path fill="#FFFDFD" d="M627.747,274.819c-0.54,9.182-3.78,15.659-10.08,20.521c-3.239,2.52-7.739,3.78-13.319,3.78
		c-0.54,0-1.08,0-1.619,0s-1.261,0-1.801-0.182c-1.62,1.44-2.52,2.88-2.52,4.5c0,2.16,1.8,3.42,4.5,4.142
		c2.699,0.898,5.938,1.438,9.357,1.979c5.762,0.72,11.88,2.16,16.919,5.58c4.86,3.42,8.28,8.64,8.28,17.279
		c0,9.54-4.141,16.02-9.898,19.799c-5.939,3.779-13.859,5.4-21.238,5.4c-8.641-0.183-16.021-1.441-21.062-4.32
		c-5.22-2.881-8.1-7.563-8.1-14.76c0-3.421,1.8-6.302,4.5-8.819c2.699-2.521,6.3-4.5,9.72-6.12
		c-5.938-1.62-10.979-5.398-10.979-13.139c0-2.88,1.62-5.761,3.78-8.46c2.158-2.7,4.858-4.859,7.56-6.301
		c-5.22-3.42-7.739-8.818-8.999-13.318c-0.721-2.7-1.261-5.399-1.44-8.101V247.46c0.722-9.18,3.602-15.839,9.899-21.061
		c3.062-2.698,7.56-3.96,13.14-3.96c9.182,0,14.762,4.142,18.182,9c1.26-1.26,3.42-3.419,6.3-5.397
		c2.699-1.98,5.76-3.602,8.64-3.602v16.199c-4.858,0-8.46,0.9-10.62,2.16c0.182,0.9,0.36,1.8,0.54,2.34c0,0.72,0,1.44,0.182,1.98
		c0.181,0.54,0.181,1.26,0.181,1.8v27.896h-0.004V274.819z M601.468,326.837c-3.78,2.16-6.659,4.858-6.659,8.64
		s3.42,6.839,11.881,6.839c3.06,0,6.479-0.539,9.18-1.617c2.701-1.08,4.68-2.7,4.68-5.04c0-1.62-0.18-2.882-1.438-4.142
		c-1.44-1.26-3.78-2.16-8.28-2.88L601.468,326.837z M609.928,248.18c0-3.42-0.721-5.58-2.16-7.56c-0.72-0.9-1.8-1.44-3.42-1.44
		c-2.88,0-4.317,2.34-4.857,4.5c-0.36,1.26-0.54,2.88-0.36,4.5v26.999c-0.18,3.42,0.36,5.58,1.979,7.38
		c0.721,0.9,1.801,1.44,3.238,1.44c3.062,0,4.32-2.16,5.04-4.32c0.359-1.26,0.54-2.88,0.54-4.5V248.18L609.928,248.18z"/>
	<path fill="#FFFDFD" d="M671.667,249.08c0-2.34,0-5.222-0.72-7.562c-0.9-2.16-2.34-3.959-5.222-3.959c-2.34,0-3.778,1.8-4.5,3.959
		c-0.897,2.16-1.078,5.222-1.078,7.562c0,3.06,1.618,6.299,3.96,9.179c2.158,2.88,5.04,5.76,7.92,8.46
		c3.777,3.78,8.277,8.1,11.34,12.959c3.06,5.04,5.397,10.62,5.397,17.099c0,6.302-1.438,12.959-5.038,18
		c-3.779,5.222-9.539,9-18.181,9c-10.979,0-17.46-5.04-21.06-11.158c-3.602-6.12-4.319-13.681-4.319-18.899h16.919
		c0,2.7,0.182,6.479,1.439,9.359c1.261,3.06,3.238,5.58,7.021,5.58c5.222,0,6.3-6.12,6.3-11.882c0-5.938-5.76-11.879-11.34-17.459
		c-4.318-4.14-8.46-7.92-11.697-12.778c-3.24-4.86-5.58-10.261-5.58-17.459c0-5.762,1.08-12.419,4.5-17.642
		c3.42-5.04,8.999-8.817,17.639-9c10.62-0.18,16.56,3.78,19.619,9c3.061,5.222,3.601,12.062,3.601,17.642H671.667L671.667,249.08z"
		/>
	<path fill="#FFFDFD" d="M719.91,199.582v24.299h12.419v16.379H719.91v48.958c0,3.06,0,7.02,0.72,10.26s2.16,5.939,5.04,5.939
		c1.439,0,3.239-0.182,4.499-0.36c0.721-0.18,1.44-0.18,2.16-0.358v17.817c-0.899,0.18-1.8,0.54-2.7,0.72
		c-1.8,0.36-4.14,0.54-7.02,0.54c-10.619,0-15.659-5.398-18.181-12.237c-2.521-6.84-2.7-15.12-2.7-20.879V240.26h-9.18v-16.379h9.18
		v-24.299H719.91z"/>
	<path fill="#FFFDFD" d="M778.408,242.6c-1.62-0.54-3.42-0.72-5.04-0.72c-2.88,0-6.3,0.36-9.18,3.06c-3.422,2.88-3.96,5.94-3.96,9
		v68.397h-18.182v-98.456h18.182v10.979c0.18-1.26,1.438-4.318,4.318-7.198c2.88-2.7,7.199-5.222,13.859-5.222L778.408,242.6
		L778.408,242.6z"/>
	<path fill="#FFFDFD" d="M831.146,287.058v11.34c-0.54,9.54-3.422,16.199-9.9,21.419c-3.239,2.7-7.739,3.96-13.679,3.96
		c-11.7,0-17.642-6.479-20.521-12.959c-1.62-3.778-2.7-8.1-2.88-12.959V248.36c0.54-9.54,3.6-16.559,10.08-21.959
		c3.06-2.698,7.56-3.96,13.499-3.96c11.699,0,17.64,6.48,20.52,12.779c1.619,3.78,2.699,7.92,2.882,12.6v28.619h-30.062v21.419
		c0.181,3.78,1.261,6.479,2.88,8.459c0.9,0.9,2.16,1.44,3.78,1.44c3.42,0,5.04-2.16,5.76-4.859c0.54-1.438,0.72-3.06,0.72-5.04
		v-10.8H831.146z M801.087,262.219h13.14V248.36c0-3.778-0.72-6.479-2.52-8.64c-0.9-0.9-2.34-1.438-3.96-1.438
		c-3.42,0-4.86,2.34-5.76,5.038c-0.54,1.44-0.722,3.062-0.9,5.04V262.219L801.087,262.219z"/>
	<path fill="#FFFDFD" d="M870.385,249.08c0-2.34,0-5.222-0.72-7.562c-0.899-2.16-2.34-3.959-5.22-3.959c-2.34,0-3.78,1.8-4.5,3.959
		c-0.899,2.16-1.08,5.222-1.08,7.562c0,3.06,1.62,6.299,3.96,9.179c2.16,2.88,5.04,5.76,7.92,8.46c3.78,3.78,8.279,8.1,11.34,12.959
		c3.062,5.04,5.399,10.62,5.399,17.099c0,6.302-1.439,12.959-5.04,18c-3.779,5.222-9.539,9-18.181,9
		c-10.979,0-17.46-5.04-21.06-11.158c-3.6-6.12-4.319-13.681-4.319-18.899h16.919c0,2.7,0.182,6.479,1.44,9.359
		c1.26,3.06,3.239,5.58,7.021,5.58c5.22,0,6.3-6.12,6.3-11.882c0-5.938-5.762-11.879-11.341-17.459
		c-4.319-4.14-8.461-7.92-11.698-12.778c-3.24-4.86-5.58-10.261-5.58-17.459c0-5.762,1.08-12.419,4.5-17.642
		c3.42-5.04,8.999-8.817,17.639-9c10.62-0.18,16.562,3.78,19.619,9c3.061,5.222,3.601,12.062,3.601,17.642H870.385L870.385,249.08z"
		/>
	<path fill="#FFFDFD" d="M925.825,249.08c0-2.34,0-5.222-0.72-7.562c-0.9-2.16-2.342-3.959-5.222-3.959c-2.34,0-3.778,1.8-4.5,3.959
		c-0.897,2.16-1.08,5.222-1.08,7.562c0,3.06,1.62,6.299,3.96,9.179c2.16,2.88,5.04,5.76,7.922,8.46
		c3.777,3.78,8.277,8.1,11.34,12.959c3.06,5.04,5.397,10.62,5.397,17.099c0,6.302-1.438,12.959-5.04,18
		c-3.777,5.222-9.539,9-18.179,9c-10.979,0-17.46-5.04-21.06-11.158c-3.602-6.12-4.319-13.681-4.319-18.899h16.919
		c0,2.7,0.18,6.479,1.439,9.359c1.261,3.06,3.238,5.58,7.021,5.58c5.22,0,6.3-6.12,6.3-11.882c0-5.938-5.76-11.879-11.34-17.459
		c-4.32-4.14-8.46-7.92-11.699-12.778c-3.238-4.86-5.58-10.261-5.58-17.459c0-5.762,1.08-12.419,4.5-17.642
		c3.42-5.04,8.999-8.817,17.641-9c10.62-0.18,16.56,3.78,19.619,9c3.061,5.222,3.601,12.062,3.601,17.642H925.825L925.825,249.08z"
		/>
	<path fill="#FFFDFD" d="M999.265,287.058v11.34c-0.54,9.54-3.42,16.199-9.898,21.419c-3.239,2.7-7.739,3.96-13.681,3.96
		c-11.698,0-17.64-6.479-20.52-12.959c-1.62-3.778-2.7-8.1-2.88-12.959V248.36c0.54-9.54,3.6-16.559,10.079-21.959
		c3.061-2.698,7.561-3.96,13.5-3.96c11.697,0,17.64,6.48,20.52,12.779c1.619,3.78,2.699,7.92,2.88,12.6v28.619h-30.06v21.419
		c0.181,3.78,1.261,6.479,2.88,8.459c0.9,0.9,2.16,1.44,3.78,1.44c3.42,0,5.04-2.16,5.76-4.859c0.54-1.438,0.72-3.06,0.72-5.04
		v-10.8H999.265z M969.205,262.219h13.14V248.36c0-3.778-0.72-6.479-2.52-8.64c-0.9-0.9-2.34-1.438-3.96-1.438
		c-3.42,0-4.859,2.34-5.76,5.038c-0.54,1.44-0.722,3.062-0.9,5.04V262.219L969.205,262.219z"/>
	<path fill="#FFFDFD" d="M1047.684,242.6c-1.619-0.54-3.42-0.72-5.04-0.72c-2.88,0-6.3,0.36-9.18,3.06c-3.42,2.88-3.96,5.94-3.96,9
		v68.397h-18.18v-98.456h18.18v10.979c0.18-1.26,1.439-4.318,4.32-7.198c2.88-2.7,7.197-5.222,13.857-5.222L1047.684,242.6
		L1047.684,242.6z"/>
</g>
<g>
	
		<linearGradient id="SVGID_1_" gradientUnits="userSpaceOnUse" x1="154.1606" y1="-140.1379" x2="154.1606" y2="-352.7112" gradientTransform="matrix(0.5106 -0.8598 0.8598 0.5106 236.2509 451.8666)">
		<stop  offset="0" style="stop-color:#868686"/>
		<stop  offset="0.0769" style="stop-color:#72706F"/>
		<stop  offset="0.2067" style="stop-color:#54504D"/>
		<stop  offset="0.3143" style="stop-color:#433D38"/>
		<stop  offset="0.3858" style="stop-color:#3C3631"/>
		<stop  offset="0.5177" style="stop-color:#45403B"/>
		<stop  offset="0.743" style="stop-color:#5B5957"/>
		<stop  offset="0.9036" style="stop-color:#6F6F6E"/>
		<stop  offset="0.9193" style="stop-color:#6A6A69"/>
		<stop  offset="0.9391" style="stop-color:#5B5B59"/>
		<stop  offset="0.961" style="stop-color:#434240"/>
		<stop  offset="0.9842" style="stop-color:#211F1C"/>
		<stop  offset="1" style="stop-color:#060300"/>
	</linearGradient>
	<path fill="url(#SVGID_1_)" d="M2.344,154.998L75.638,31.57c0,0-9.122,17.5-0.998,34.327l106.641,204.086l-48.61,64.979
		c0,0-25.141,16.714-39.583-4.955L3.054,172.879C3.054,172.879-1.489,161.452,2.344,154.998z"/>
	<g>
		
			<linearGradient id="SVGID_2_" gradientUnits="userSpaceOnUse" x1="105.0088" y1="-140.1379" x2="105.0088" y2="-223.2903" gradientTransform="matrix(0.5106 -0.8598 0.8598 0.5106 236.2509 451.8666)">
			<stop  offset="0" style="stop-color:#1D1D1B"/>
			<stop  offset="1" style="stop-color:#1D1D1B;stop-opacity:0"/>
		</linearGradient>
		<path fill="url(#SVGID_2_)" d="M93.44,329.414c14.443,21.669,39.583,4.955,39.583,4.955l48.609-64.979l-45.264-86.626
			L71.757,291.573L93.44,329.414z"/>
	</g>
	
		<linearGradient id="SVGID_3_" gradientUnits="userSpaceOnUse" x1="31.5586" y1="-99.4558" x2="321.2749" y2="-99.4558" gradientTransform="matrix(0.5106 -0.8598 0.8598 0.5106 236.2509 451.8666)">
		<stop  offset="0" style="stop-color:#868686"/>
		<stop  offset="0.0769" style="stop-color:#72706F"/>
		<stop  offset="0.2067" style="stop-color:#54504D"/>
		<stop  offset="0.3143" style="stop-color:#433D38"/>
		<stop  offset="0.3858" style="stop-color:#3C3631"/>
		<stop  offset="0.5212" style="stop-color:#433F3B"/>
		<stop  offset="0.7485" style="stop-color:#575756"/>
		<stop  offset="0.7962" style="stop-color:#525251"/>
		<stop  offset="0.8559" style="stop-color:#434341"/>
		<stop  offset="0.922" style="stop-color:#2B2A28"/>
		<stop  offset="0.9922" style="stop-color:#0A0704"/>
		<stop  offset="1" style="stop-color:#060300"/>
	</linearGradient>
	<path fill="url(#SVGID_3_)" d="M250.195,343.498l-138.701-2.423c0,0,16.626-0.278,27.275-15.632L257.437,125.74l85.267,15.735
		c0,0,26.923,13.656,15.17,36.895l-92.463,155.712C265.411,334.082,257.699,343.66,250.195,343.498z"/>
	<g>
		
			<linearGradient id="SVGID_4_" gradientUnits="userSpaceOnUse" x1="305.2271" y1="-41.4983" x2="305.2271" y2="-352.7834" gradientTransform="matrix(0.5106 -0.8598 0.8598 0.5106 236.2509 451.8666)">
			<stop  offset="0.2473" style="stop-color:#F7941D"/>
			<stop  offset="0.7143" style="stop-color:#F8BB49"/>
		</linearGradient>
		<path fill="url(#SVGID_4_)" d="M276.317,17.296C247.669,9.622,95.91,17.048,95.91,17.048
			c-14.984,2.519-22.439,18.169-22.439,18.169l0.071,0.196c-1.371,3.69-5.631,17.603,1.845,31.909l33.23,63.596l-0.051-0.141
			c17.945-3.863,160.935,1.492,160.935,1.492c71.335,5.532,87.176,25.299,90.731,29.551l-51.742-125.42
			C300.246,16.978,276.317,17.296,276.317,17.296z"/>
	</g>
	<g>
		
			<linearGradient id="SVGID_5_" gradientUnits="userSpaceOnUse" x1="165.6104" y1="213.7151" x2="288.5191" y2="-143.2379" gradientTransform="matrix(0.5106 -0.8598 0.8598 0.5106 236.2509 451.8666)">
			<stop  offset="0" style="stop-color:#1D1D1B"/>
			<stop  offset="0.0776" style="stop-color:#1D1D1B;stop-opacity:0.9224"/>
			<stop  offset="1" style="stop-color:#1D1D1B;stop-opacity:0"/>
		</linearGradient>
		<path fill="url(#SVGID_5_)" d="M342.704,141.475l-83.749-9.58l-30.626,51.575l93.534,55.541l36.011-60.642
			C369.626,155.132,342.704,141.475,342.704,141.475z"/>
	</g>
	
		<linearGradient id="SVGID_6_" gradientUnits="userSpaceOnUse" x1="242.688" y1="-41.4905" x2="242.688" y2="-352.7847" gradientTransform="matrix(0.5106 -0.8598 0.8598 0.5106 236.2509 451.8666)">
		<stop  offset="0.2473" style="stop-color:#F7941D"/>
		<stop  offset="0.7143" style="stop-color:#F8BB49"/>
	</linearGradient>
	<path fill="url(#SVGID_6_)" d="M75.389,67.32l33.229,63.597l-0.05-0.142c5.053-1.086,20.021-1.444,38.919-1.394L73.402,35.809
		C71.914,39.986,68.141,53.456,75.389,67.32z"/>
	
		<linearGradient id="SVGID_7_" gradientUnits="userSpaceOnUse" x1="356.1831" y1="-41.4983" x2="356.1831" y2="-352.7925" gradientTransform="matrix(0.5106 -0.8598 0.8598 0.5106 236.2509 451.8666)">
		<stop  offset="0.2473" style="stop-color:#F7941D"/>
		<stop  offset="0.7143" style="stop-color:#F8BB49"/>
	</linearGradient>
	<path fill="url(#SVGID_7_)" d="M360.236,161.819L308.493,36.397c-2.882-6.791-7.686-11.164-12.71-13.985l50.244,128.038
		C355.056,155.505,358.741,160.035,360.236,161.819z"/>
	
		<linearGradient id="SVGID_8_" gradientUnits="userSpaceOnUse" x1="362.6733" y1="-99.5369" x2="349.9183" y2="-109.8657" gradientTransform="matrix(0.5106 -0.8598 0.8598 0.5106 236.2509 451.8666)">
		<stop  offset="0" style="stop-color:#1D1D1B"/>
		<stop  offset="0.0776" style="stop-color:#1D1D1B;stop-opacity:0.9224"/>
		<stop  offset="1" style="stop-color:#1D1D1B;stop-opacity:0"/>
	</linearGradient>
	<path fill="url(#SVGID_8_)" d="M360.236,161.819L308.493,36.397c-2.882-6.791-7.686-11.164-12.71-13.985l50.244,128.038
		C355.056,155.505,358.741,160.035,360.236,161.819z"/>
	
		<linearGradient id="SVGID_9_" gradientUnits="userSpaceOnUse" x1="218.2544" y1="-309.4861" x2="259.7421" y2="-294.3858" gradientTransform="matrix(0.5106 -0.8598 0.8598 0.5106 236.2509 451.8666)">
		<stop  offset="0" style="stop-color:#1D1D1B"/>
		<stop  offset="0.0776" style="stop-color:#1D1D1B;stop-opacity:0.9224"/>
		<stop  offset="1" style="stop-color:#1D1D1B;stop-opacity:0"/>
	</linearGradient>
	<path fill="url(#SVGID_9_)" d="M75.37,67.322l33.229,63.597l-0.05-0.142c5.053-1.086,20.021-1.443,38.92-1.396L73.384,35.809
		C71.895,39.988,68.123,53.456,75.37,67.322z"/>
</g>
</svg>
