<?xml version="1.0" encoding="utf-8"?>
<!-- Generator: Adobe Illustrator 16.0.0, SVG Export Plug-In . SVG Version: 6.00 Build 0)  -->
<!DOCTYPE svg PUBLIC "-//W3C//DTD SVG 1.1//EN" "http://www.w3.org/Graphics/SVG/1.1/DTD/svg11.dtd">
<svg version="1.1" id="Layer_1" xmlns="http://www.w3.org/2000/svg" xmlns:xlink="http://www.w3.org/1999/xlink" x="0px" y="0px"
	 width="326.573px" height="285.713px" viewBox="0 0 326.573 285.713" enable-background="new 0 0 326.573 285.713"
	 xml:space="preserve">
<g>
	<path fill="#427CAE" d="M60.705,98.222c1.173,0.001,2.354,0.067,3.537,0.201l1.601-5.266l11.104,3.376l-1.601,5.266
		c4.027,2.083,7.474,4.961,10.198,8.377l4.853-2.59l5.465,10.238l-4.853,2.59c1.322,4.164,1.793,8.628,1.284,13.136l5.264,1.601
		l-3.375,11.104l-5.264-1.6c-2.086,4.028-4.962,7.474-8.377,10.198l2.59,4.854l-10.239,5.464l-2.59-4.853
		c-3.07,0.975-6.304,1.487-9.596,1.485v-8.314c10.066,0.003,19.377-6.52,22.457-16.649c3.771-12.403-3.229-25.514-15.63-29.284
		c-2.272-0.691-4.568-1.02-6.826-1.02V98.222z M40.867,105.172l-2.59-4.853l10.237-5.465l2.593,4.853
		c3.069-0.975,6.303-1.488,9.597-1.485v8.313c-10.067-0.004-19.377,6.52-22.457,16.65c-3.77,12.402,3.227,25.513,15.629,29.282l0,0
		c2.273,0.691,4.569,1.02,6.828,1.021v8.314c-1.174-0.001-2.355-0.067-3.539-0.201l-1.601,5.265L44.46,163.49l1.601-5.265
		c-4.029-2.084-7.473-4.961-10.197-8.377l-4.855,2.59l-5.463-10.239l4.853-2.592c-1.322-4.162-1.794-8.626-1.285-13.134l-5.264-1.6
		l3.376-11.106l5.264,1.601C34.576,111.342,37.452,107.896,40.867,105.172z"/>
	<path fill="#427CAE" d="M276.422,158.425c1.596,0.001,3.203,0.091,4.813,0.273l2.179-7.165l15.112,4.594l-2.179,7.166
		c5.48,2.835,10.171,6.752,13.878,11.399l6.604-3.524l7.438,13.935l-6.604,3.524c1.799,5.666,2.44,11.741,1.748,17.875l7.163,2.178
		l-4.594,15.112l-7.163-2.178c-2.84,5.481-6.753,10.172-11.4,13.879l3.523,6.605l-13.934,7.436l-3.525-6.604
		c-4.177,1.325-8.578,2.023-13.059,2.021v-11.315c13.698,0.005,26.369-8.872,30.561-22.657c5.131-16.88-4.393-34.722-21.271-39.853
		c-3.092-0.94-6.217-1.387-9.289-1.388V158.425z M249.426,167.883l-3.525-6.604l13.932-7.438l3.529,6.604
		c4.178-1.327,8.577-2.024,13.061-2.021v11.313c-13.699-0.005-26.37,8.872-30.562,22.659c-5.132,16.879,4.392,34.72,21.27,39.851
		l0,0c3.093,0.94,6.218,1.387,9.292,1.388v11.315c-1.598-0.002-3.205-0.092-4.816-0.274l-2.178,7.166l-15.111-4.594l2.178-7.166
		c-5.482-2.836-10.17-6.752-13.877-11.399l-6.607,3.523l-7.436-13.934l6.605-3.527c-1.801-5.664-2.441-11.738-1.749-17.873
		l-7.163-2.178l4.594-15.113l7.164,2.178C240.863,176.279,244.777,171.59,249.426,167.883z"/>
	<g>
		<g>
			<path fill-rule="evenodd" clip-rule="evenodd" fill="#053D5C" d="M58.622,122.165h196.299c4.013,0,7.295,3.283,7.295,7.295
				v124.014c0,4.012-3.282,7.295-7.295,7.295H58.622c-4.012,0-7.295-3.283-7.295-7.295V129.46
				C51.327,125.448,54.609,122.165,58.622,122.165z"/>
			<rect x="62.269" y="136.638" fill-rule="evenodd" clip-rule="evenodd" fill="#EF6459" width="189.004" height="101.465"/>
			<circle fill-rule="evenodd" clip-rule="evenodd" fill="#6A7674" cx="156.771" cy="129.66" r="2.652"/>
			<rect x="152.287" y="244.419" fill-rule="evenodd" clip-rule="evenodd" fill="#6A7674" width="8.968" height="8.969"/>
			<polygon fill-rule="evenodd" clip-rule="evenodd" fill="#6A7674" points="51.327,260.769 262.216,260.769 298.844,276.352 
				14.699,276.352 			"/>
			<path fill-rule="evenodd" clip-rule="evenodd" fill="#053D5C" d="M14.699,276.352h284.145v4.09c0,2.898-2.373,5.271-5.272,5.271
				h-273.6c-2.899,0-5.272-2.372-5.272-5.271V276.352z"/>
			<rect x="128.073" y="279.231" fill-rule="evenodd" clip-rule="evenodd" fill="#EF6459" width="57.396" height="3.659"/>
		</g>
		<g>
			<path fill-rule="evenodd" clip-rule="evenodd" fill="#FFFFFF" d="M56.389,262.017c6.555,0,13.133,0,19.712,0
				c-1.01,0.605-1.996,1.211-2.981,1.814c-6.825,0-13.625,0-20.426,0C53.925,263.228,55.158,262.622,56.389,262.017z"/>
			<path fill-rule="evenodd" clip-rule="evenodd" fill="#FFFFFF" d="M92.535,262.017c6.555,0,13.133,0,19.712,0
				c-0.542,0.605-1.084,1.211-1.626,1.814c-6.825,0-13.65,0-20.451,0C90.958,263.228,91.747,262.622,92.535,262.017z"/>
			<path fill-rule="evenodd" clip-rule="evenodd" fill="#FFFFFF" d="M128.682,262.017c6.579,0,13.158,0,19.736,0
				c-0.074,0.605-0.172,1.211-0.271,1.814c-6.825,0-13.65,0-20.475,0C128.017,263.228,128.362,262.622,128.682,262.017z"/>
			<path fill-rule="evenodd" clip-rule="evenodd" fill="#FFFFFF" d="M164.853,262.017c6.579,0,13.157,0,19.736,0
				c0.345,0.605,0.715,1.211,1.06,1.814c-6.825,0-13.65,0-20.475,0C165.074,263.228,164.977,262.622,164.853,262.017z"/>
			<path fill-rule="evenodd" clip-rule="evenodd" fill="#FFFFFF" d="M201.023,262.017c6.555,0,13.133,0,19.712,0
				c0.813,0.605,1.626,1.211,2.415,1.814c-6.826,0-13.65,0-20.451,0C202.157,263.228,201.59,262.622,201.023,262.017z"/>
			<path fill-rule="evenodd" clip-rule="evenodd" fill="#FFFFFF" d="M237.194,262.017c6.579,0,13.158,0,19.736,0
				c1.257,0.605,2.514,1.211,3.745,1.814c-6.825,0-13.65,0-20.475,0C239.215,263.228,238.205,262.622,237.194,262.017z"/>
			<path fill-rule="evenodd" clip-rule="evenodd" fill="#FFFFFF" d="M50.032,265.142c6.973,0,13.971,0,20.968,0
				c-0.985,0.604-1.996,1.21-2.981,1.813c-7.244,0-14.488,0-21.683,0C47.543,266.352,48.8,265.746,50.032,265.142z"/>
			<path fill-rule="evenodd" clip-rule="evenodd" fill="#FFFFFF" d="M88.495,265.142c6.972,0,13.97,0,20.968,0
				c-0.542,0.604-1.109,1.21-1.626,1.813c-7.244,0-14.488,0-21.708,0C86.893,266.352,87.707,265.746,88.495,265.142z"/>
			<path fill-rule="evenodd" clip-rule="evenodd" fill="#FFFFFF" d="M126.957,265.142c6.998,0,13.995,0,20.993,0
				c-0.099,0.604-0.197,1.21-0.296,1.813c-7.244,0-14.488,0-21.732,0C126.267,266.352,126.612,265.746,126.957,265.142z"/>
			<path fill-rule="evenodd" clip-rule="evenodd" fill="#FFFFFF" d="M165.42,265.142c6.997,0,13.994,0,20.992,0
				c0.346,0.604,0.69,1.21,1.06,1.813c-7.243,0-14.487,0-21.731,0C165.617,266.352,165.518,265.746,165.42,265.142z"/>
			<path fill-rule="evenodd" clip-rule="evenodd" fill="#FFFFFF" d="M203.906,265.142c6.973,0,13.971,0,20.969,0
				c0.789,0.604,1.602,1.21,2.39,1.813c-7.244,0-14.487,0-21.708,0C205.016,266.352,204.449,265.746,203.906,265.142z"/>
			<path fill-rule="evenodd" clip-rule="evenodd" fill="#FFFFFF" d="M242.369,265.142c6.997,0,13.995,0,21.018,0
				c1.232,0.604,2.488,1.21,3.721,1.813c-7.244,0-14.488,0-21.732,0C244.389,266.352,243.379,265.746,242.369,265.142z"/>
			<path fill-rule="evenodd" clip-rule="evenodd" fill="#FFFFFF" d="M43.65,268.266c7.392,0,14.809,0,22.225,0
				c-1.01,0.605-1.971,1.21-2.981,1.814c-7.663,0-15.326,0-22.94,0C41.187,269.476,42.394,268.871,43.65,268.266z"/>
			<path fill-rule="evenodd" clip-rule="evenodd" fill="#FFFFFF" d="M84.404,268.266c7.417,0,14.833,0,22.25,0
				c-0.567,0.605-1.084,1.21-1.626,1.814c-7.663,0-15.326,0-22.964,0C82.852,269.476,83.616,268.871,84.404,268.266z"/>
			<path fill-rule="evenodd" clip-rule="evenodd" fill="#FFFFFF" d="M125.183,268.266c7.441,0,14.857,0,22.274,0
				c-0.123,0.605-0.197,1.21-0.295,1.814c-7.663,0-15.326,0-22.989,0C124.518,269.476,124.838,268.871,125.183,268.266z"/>
			<path fill-rule="evenodd" clip-rule="evenodd" fill="#FFFFFF" d="M165.961,268.266c7.417,0,14.858,0,22.274,0
				c0.321,0.605,0.69,1.21,1.035,1.814c-7.663,0-15.325,0-22.989,0C166.184,269.476,166.061,268.871,165.961,268.266z"/>
			<path fill-rule="evenodd" clip-rule="evenodd" fill="#FFFFFF" d="M206.765,268.266c7.392,0,14.833,0,22.249,0
				c0.765,0.605,1.578,1.21,2.366,1.814c-7.663,0-15.326,0-22.964,0C207.873,269.476,207.307,268.871,206.765,268.266z"/>
			<path fill-rule="evenodd" clip-rule="evenodd" fill="#FFFFFF" d="M247.543,268.266c7.416,0,14.834,0,22.274,0
				c1.231,0.605,2.489,1.21,3.721,1.814c-7.663,0-15.325,0-22.989,0C249.563,269.476,248.529,268.871,247.543,268.266z"/>
			<path fill-rule="evenodd" clip-rule="evenodd" fill="#FFFFFF" d="M37.294,271.39c39.792,0,79.635,0,119.452,0
				c39.793,0,79.66,0,119.502,0c1.257,0.605,2.488,1.209,3.721,1.813c-41.074,0-82.173,0-123.223,0c-41.049,0-82.124,0-123.173,0
				C34.83,272.599,36.062,271.995,37.294,271.39z"/>
		</g>
	</g>
	<polygon fill-rule="evenodd" clip-rule="evenodd" fill="#EF5043" points="251.272,136.638 62.269,238.103 251.272,238.103 	"/>
	<g>
		<path fill="#B6D774" d="M157.502,86.667c1.596,0.002,3.203,0.092,4.813,0.274l2.179-7.166l15.111,4.594l-2.178,7.166
			c5.48,2.835,10.171,6.752,13.878,11.399l6.604-3.523l7.438,13.934l-6.604,3.524c1.798,5.667,2.439,11.741,1.747,17.875
			l7.164,2.178l-4.594,15.112l-7.164-2.178c-2.839,5.482-6.753,10.172-11.4,13.879l3.523,6.605l-13.934,7.436l-3.524-6.604
			c-4.178,1.326-8.579,2.023-13.06,2.021v-11.315c13.699,0.005,26.37-8.872,30.561-22.657c5.132-16.88-4.393-34.722-21.271-39.853
			c-3.093-0.94-6.217-1.387-9.29-1.388V86.667z M130.506,96.125l-3.524-6.604l13.932-7.438l3.529,6.604
			c4.177-1.326,8.577-2.024,13.06-2.021V97.98c-13.699-0.005-26.37,8.872-30.561,22.659c-5.131,16.879,4.391,34.72,21.27,39.852l0,0
			c3.093,0.939,6.218,1.386,9.291,1.387v11.315c-1.597-0.001-3.205-0.091-4.815-0.273l-2.178,7.165l-15.112-4.594l2.178-7.166
			c-5.483-2.836-10.17-6.751-13.876-11.399l-6.608,3.524l-7.435-13.935l6.604-3.526c-1.799-5.665-2.441-11.739-1.748-17.874
			l-7.164-2.178l4.595-15.113l7.164,2.178C121.944,104.521,125.858,99.832,130.506,96.125z"/>
		<path fill="#B5D6F1" d="M124.077,207.778l3.92,3.29l-8.149,9.706l-3.92-3.293c-2.77,2.14-5.851,3.747-9.188,4.787l0.442,5.099
			l-9.267,0.81v-14.288c5.754,0.001,11.328-2.513,15.157-7.073c7.01-8.359,5.92-20.862-2.437-27.876l0,0
			c-2.064-1.73-4.404-3.002-6.954-3.776c-1.904-0.579-3.845-0.86-5.767-0.86v-14.289l3.354-0.293l0.445,5.098
			c3.443,0.446,6.805,1.506,9.884,3.12l3.291-3.922l9.707,8.145l-3.291,3.922c2.137,2.77,3.744,5.853,4.783,9.192l5.1-0.447
			l1.104,12.623l-5.104,0.443C126.747,201.364,125.7,204.681,124.077,207.778z M97.917,228.177l-3.356,0.293l-0.447-5.099
			c-3.443-0.447-6.802-1.505-9.877-3.118l-3.293,3.922l-9.705-8.145l3.291-3.923c-2.14-2.768-3.745-5.853-4.786-9.192l-5.098,0.447
			l-1.104-12.622l5.098-0.445c0.449-3.471,1.498-6.784,3.12-9.882l-3.92-3.293l8.143-9.705l3.922,3.291
			c2.767-2.138,5.854-3.743,9.191-4.783l-0.446-5.1l9.268-0.81v14.289c-5.754-0.002-11.328,2.511-15.156,7.071
			c-7.013,8.36-5.919,20.864,2.436,27.877c2.062,1.729,4.402,3.002,6.953,3.777c1.904,0.579,3.846,0.859,5.767,0.86V228.177z"/>
	</g>
	<g>
		
			<path fill-rule="evenodd" clip-rule="evenodd" fill="#FFFFFF" stroke="#010101" stroke-width="0.5669" stroke-miterlimit="22.9256" d="
			M223.717,230.037c11.127,0,20.203-9.076,20.203-20.203s-9.076-20.202-20.203-20.202s-20.202,9.075-20.202,20.202
			S212.59,230.037,223.717,230.037z"/>
		<g>
			<path fill-rule="evenodd" clip-rule="evenodd" fill="#FBAD18" d="M223.717,191.568c10.088,0,18.266,8.178,18.266,18.267
				c0,10.088-8.178,18.266-18.266,18.266v4.187c12.4,0,22.453-10.053,22.453-22.452c0-12.4-10.053-22.453-22.453-22.453V191.568z
				 M223.717,191.568L223.717,191.568v-4.187l0,0c-12.4,0-22.453,10.053-22.453,22.453c0,12.399,10.053,22.452,22.453,22.452l0,0
				v-4.187l0,0c-10.089,0-18.267-8.178-18.267-18.266C205.45,199.746,213.628,191.568,223.717,191.568z"/>
			<path fill-rule="evenodd" clip-rule="evenodd" fill="#FBAD18" d="M223.717,196.533L223.717,196.533
				c0.576,0,1.048,0.472,1.048,1.048v11.205c0,0.577-0.472,1.048-1.048,1.048l0,0c-0.576,0-1.049-0.471-1.049-1.048v-11.205
				C222.668,197.005,223.141,196.533,223.717,196.533z"/>
			<path fill-rule="evenodd" clip-rule="evenodd" fill="#FBAD18" d="M215.34,202.359L215.34,202.359
				c0.385-0.43,1.051-0.468,1.48-0.084l6.813,6.079c0.43,0.384,0.468,1.05,0.084,1.48l0,0c-0.385,0.43-1.05,0.468-1.48,0.084
				l-6.812-6.079C214.994,203.456,214.957,202.79,215.34,202.359z"/>
			<circle fill-rule="evenodd" clip-rule="evenodd" fill="#FBAD18" cx="223.717" cy="194.291" r="1.158"/>
			<circle fill-rule="evenodd" clip-rule="evenodd" fill="#FBAD18" cx="239.866" cy="210.284" r="1.159"/>
			<circle fill-rule="evenodd" clip-rule="evenodd" fill="#FBAD18" cx="223.873" cy="226.434" r="1.158"/>
			<circle fill-rule="evenodd" clip-rule="evenodd" fill="#FBAD18" cx="207.724" cy="210.44" r="1.159"/>
			<path fill-rule="evenodd" clip-rule="evenodd" fill="#FBAD18" d="M223.717,212.544c1.492,0,2.709-1.218,2.709-2.71
				s-1.217-2.709-2.709-2.709s-2.709,1.217-2.709,2.709S222.225,212.544,223.717,212.544z"/>
		</g>
	</g>
	<g>
		<path fill-rule="evenodd" clip-rule="evenodd" fill="#FFFFFF" d="M241.211,48.664c7.929,1.624,13.86,7.659,13.86,14.804l0,0
			c0,7.343-6.147,14.93-14.529,14.93h-36.846c-8.972,0-15.888-7.189-15.888-14.93l0,0c0-7.145,5.933-13.18,13.861-14.804
			c-0.005-0.143-0.008-0.286-0.008-0.431c0-9.179,8.855-16.619,19.777-16.619c10.923,0,19.778,7.44,19.778,16.619
			C241.218,48.378,241.215,48.521,241.211,48.664z"/>
		<path fill-rule="evenodd" clip-rule="evenodd" fill="#92BDE3" d="M211.707,42.616c5.541,1.136,9.686,5.353,9.686,10.345l0,0
			c0,5.132-4.295,10.433-10.152,10.433h-25.748c-6.27,0-11.102-5.023-11.102-10.433l0,0c0-4.992,4.146-9.209,9.686-10.344
			c-0.002-0.1-0.004-0.2-0.004-0.301c0-6.414,6.188-11.613,13.819-11.613c7.633,0,13.821,5.199,13.821,11.613
			C211.713,42.417,211.711,42.518,211.707,42.616z"/>
	</g>
	<path fill="#427CAE" d="M22.351,163.73c0.711,0.001,1.427,0.041,2.145,0.122l0.971-3.193l6.734,2.048l-0.971,3.192
		c2.442,1.264,4.533,3.01,6.185,5.081l2.943-1.571l3.314,6.21l-2.943,1.57c0.801,2.525,1.087,5.232,0.779,7.966l3.192,0.971
		l-2.047,6.734l-3.192-0.971c-1.266,2.442-3.01,4.533-5.081,6.185l1.57,2.943l-6.209,3.314l-1.571-2.943
		c-1.861,0.591-3.823,0.901-5.819,0.9v-5.042c6.104,0.002,11.751-3.954,13.619-10.097c2.287-7.522-1.958-15.474-9.479-17.76
		c-1.378-0.419-2.771-0.618-4.14-0.618V163.73z M10.32,167.945l-1.571-2.942l6.208-3.314l1.573,2.942
		c1.861-0.591,3.822-0.901,5.82-0.9v5.042c-6.105-0.003-11.751,3.953-13.619,10.098c-2.287,7.521,1.957,15.472,9.479,17.759l0,0
		c1.378,0.419,2.771,0.617,4.141,0.618v5.042c-0.712,0-1.428-0.041-2.146-0.122l-0.971,3.193l-6.734-2.048l0.971-3.192
		c-2.443-1.264-4.532-3.009-6.184-5.08l-2.944,1.57l-3.313-6.209l2.943-1.572c-0.802-2.524-1.087-5.231-0.779-7.965L0,179.894
		l2.047-6.734l3.193,0.971C6.504,171.688,8.249,169.598,10.32,167.945z"/>
	<g>
		<path fill="#CBE3F6" d="M173.771,199.118c0.256-0.025,0.465-0.1,0.676-0.246c1.128-0.833,0.486-2.57-0.9-2.478l-0.13,0.012
			l-0.532,0.04l-0.526,0.032l-0.518,0.025l-0.511,0.016l-0.412,0.007c-0.279,0-0.564,0.097-0.789,0.26
			c-1.072,0.793-0.518,2.474,0.813,2.474l0.454-0.008l0.553-0.018l0.559-0.026l0.563-0.035l0.571-0.043L173.771,199.118z"/>
		<path fill="#CBE3F6" d="M190.031,195.31c1.445-0.517,1.087-2.657-0.471-2.657c-0.15,0.006-0.287,0.025-0.429,0.076l-0.288,0.102
			l-0.686,0.236l-0.681,0.228l-0.675,0.221l-0.221,0.07c-1.417,0.44-1.213,2.563,0.344,2.67c0.166,0.006,0.316-0.013,0.473-0.062
			l0.242-0.077l0.696-0.228l0.7-0.235l0.705-0.242L190.031,195.31z"/>
		<path fill="#CBE3F6" d="M205.23,188.732c1.451-0.752,0.629-2.94-0.966-2.542c-0.095,0.027-0.171,0.057-0.259,0.099l-0.547,0.276
			l-0.767,0.382l-0.763,0.375l-0.352,0.17c-1.371,0.66-0.787,2.754,0.748,2.589c0.156-0.021,0.291-0.056,0.436-0.126l0.365-0.177
			l0.777-0.382l0.779-0.388L205.23,188.732z"/>
		<path fill="#CBE3F6" d="M219.592,180.567c1.248-0.799,0.533-2.719-0.932-2.509c-0.196,0.035-0.347,0.087-0.517,0.192l-0.435,0.272
			l-0.811,0.504l-0.809,0.497l-0.253,0.154c-1.346,0.828-0.462,2.924,1.116,2.474c0.106-0.036,0.203-0.077,0.299-0.135l0.265-0.162
			l0.819-0.504l0.822-0.511L219.592,180.567z"/>
		<path fill="#CBE3F6" d="M233.2,171.244c0.476-0.357,0.676-0.966,0.487-1.531c-0.281-0.876-1.373-1.221-2.107-0.671l-0.746,0.553
			l-0.826,0.604l-0.621,0.451c-1.137,0.853-0.438,2.614,0.966,2.464c0.229-0.034,0.444-0.106,0.633-0.248l0.632-0.458l0.837-0.612
			L233.2,171.244z"/>
		<path fill="#CBE3F6" d="M246.086,160.948c1.203-1.047-0.044-2.987-1.534-2.243c-0.091,0.052-0.161,0.1-0.242,0.167l-0.272,0.233
			l-0.82,0.699l-0.822,0.693l-0.154,0.129c-1.127,0.931-0.178,2.787,1.286,2.354c0.176-0.059,0.319-0.135,0.462-0.252l0.163-0.138
			l0.832-0.701l0.83-0.707L246.086,160.948z"/>
		<path fill="#CBE3F6" d="M258.222,149.784c1.116-1.116-0.226-2.95-1.659-2.147c-0.099,0.062-0.172,0.118-0.258,0.2l-0.12,0.118
			l-0.797,0.781l-0.8,0.776l-0.227,0.218c-0.411,0.392-0.531,0.988-0.318,1.513c0.375,0.885,1.512,1.126,2.207,0.462l0.236-0.228
			l0.81-0.785l0.806-0.79L258.222,149.784z"/>
		<path fill="#CBE3F6" d="M269.548,137.804c0.216-0.247,0.343-0.561,0.343-0.891c0-1.27-1.535-1.86-2.389-0.921l-0.431,0.488
			l-0.758,0.853l-0.62,0.689c-0.969,1.066,0.186,2.751,1.568,2.165c0.18-0.082,0.324-0.184,0.459-0.333l0.63-0.7l0.767-0.862
			L269.548,137.804z"/>
		<path fill="#CBE3F6" d="M279.982,125.03c0.908-1.212-0.523-2.792-1.83-1.976c-0.131,0.087-0.248,0.19-0.344,0.319l-0.516,0.679
			l-0.703,0.918l-0.435,0.561c-0.93,1.24,0.532,2.793,1.809,1.995c0.14-0.093,0.241-0.181,0.348-0.315l0.443-0.572l0.712-0.93
			L279.982,125.03z"/>
		<path fill="#CBE3F6" d="M289.401,111.48c0.382-0.598,0.247-1.381-0.312-1.818c-0.63-0.492-1.557-0.333-1.988,0.341l-0.475,0.744
			l-0.633,0.979l-0.366,0.559c-0.224,0.328-0.282,0.761-0.171,1.139c0.344,1.118,1.795,1.333,2.452,0.366l0.376-0.573l0.641-0.991
			L289.401,111.48z"/>
		<path fill="#CBE3F6" d="M297.649,97.176c0.698-1.346-0.995-2.672-2.142-1.635c-0.113,0.109-0.206,0.228-0.278,0.366l-0.38,0.732
			l-0.547,1.032l-0.341,0.636c-0.671,1.294,0.813,2.586,1.996,1.763c0.173-0.128,0.306-0.272,0.407-0.462l0.35-0.652l0.555-1.049
			L297.649,97.176z"/>
		<path fill="#CBE3F6" d="M304.541,82.157c0.313-0.798-0.148-1.671-0.986-1.851c-0.641-0.133-1.307,0.212-1.547,0.824l-0.27,0.673
			l-0.443,1.082l-0.316,0.756c-0.574,1.341,1.122,2.55,2.213,1.511c0.136-0.136,0.23-0.272,0.305-0.448l0.324-0.773l0.451-1.101
			L304.541,82.157z"/>
		<path fill="#CBE3F6" d="M309.86,66.5c0.426-1.543-1.705-2.471-2.526-1.005c-0.041,0.083-0.077,0.167-0.102,0.258l-0.158,0.563
			l-0.324,1.126l-0.272,0.914c-0.423,1.363,1.329,2.408,2.339,1.293c0.129-0.15,0.218-0.311,0.277-0.504l0.278-0.935l0.331-1.147
			L309.86,66.5z"/>
		<path fill="#CBE3F6" d="M313.391,50.331c0.234-1.403-1.629-2.205-2.486-0.974c-0.111,0.181-0.176,0.331-0.212,0.543l-0.054,0.349
			l-0.191,1.165l-0.201,1.158c-0.253,1.521,1.79,2.244,2.548,0.89c0.068-0.136,0.118-0.26,0.144-0.411l0.205-1.182l0.194-1.189
			L313.391,50.331z"/>
		<polygon fill="#CBE3F6" points="302.065,45.19 314.857,27.474 322.973,47.764 		"/>
		<path fill="#CBE3F6" d="M157.979,190.828c-0.656-1.266-2.625-0.773-2.573,0.699c0.016,0.217,0.057,0.383,0.158,0.578l0.208,0.378
			l0.221,0.369l0.232,0.358l0.245,0.349l0.255,0.339l0.267,0.328l0.278,0.317l0.063,0.066c0.994,1.093,2.825,0.043,2.278-1.433
			c-0.064-0.152-0.143-0.281-0.254-0.404l-0.063-0.066l-0.213-0.244l-0.205-0.251l-0.196-0.26l-0.188-0.269l-0.18-0.276
			l-0.171-0.285L157.979,190.828z"/>
	</g>
	<g>
		<path fill="#CBE3F6" d="M175.992,191.85c1.438-0.396,1.295-2.514-0.241-2.679c-0.17-0.012-0.319-0.001-0.483,0.044l-0.586,0.165
			l-0.638,0.172l-0.633,0.162l-0.628,0.153l-0.097,0.022c-1.515,0.365-1.368,2.534,0.181,2.694c0.152,0.011,0.271,0.002,0.418-0.028
			l0.131-0.03l0.659-0.161l0.663-0.17l0.668-0.18L175.992,191.85z"/>
		<path fill="#CBE3F6" d="M191.416,185.591c1.438-0.746,0.632-2.939-0.977-2.538c-0.09,0.025-0.178,0.058-0.259,0.1l-0.431,0.221
			l-0.723,0.362l-0.719,0.354l-0.548,0.265c-1.347,0.648-0.827,2.705,0.712,2.595c0.166-0.017,0.316-0.056,0.468-0.129l0.567-0.274
			l0.736-0.363l0.74-0.371L191.416,185.591z"/>
		<path fill="#CBE3F6" d="M205.643,177.125c1.157-0.787,0.529-2.596-0.867-2.496c-0.244,0.025-0.45,0.087-0.656,0.228l-0.232,0.157
			l-0.76,0.506l-0.758,0.501l-0.51,0.331c-1.194,0.765-0.555,2.661,0.905,2.505c0.216-0.03,0.394-0.092,0.579-0.21l0.522-0.34
			l0.771-0.509l0.772-0.517L205.643,177.125z"/>
		<path fill="#CBE3F6" d="M218.887,167.259c0.395-0.325,0.571-0.812,0.482-1.313c-0.188-1.011-1.412-1.463-2.205-0.808l-0.249,0.203
			l-0.769,0.621l-0.77,0.615l-0.327,0.26c-1.211,0.958-0.14,2.896,1.334,2.35c0.129-0.05,0.249-0.117,0.357-0.203l0.339-0.269
			l0.779-0.624l0.779-0.63L218.887,167.259z"/>
		<path fill="#CBE3F6" d="M231.25,156.333c0.994-0.948,0.122-2.615-1.242-2.323c-0.254,0.066-0.45,0.161-0.641,0.344l-0.243,0.231
			l-0.755,0.716l-0.757,0.709l-0.22,0.205c-1.072,1.023-0.029,2.763,1.384,2.291c0.185-0.068,0.327-0.153,0.472-0.285l0.229-0.213
			l0.766-0.719l0.765-0.724L231.25,156.333z"/>
		<path fill="#CBE3F6" d="M242.752,144.514c1.027-1.131-0.314-2.876-1.702-2.099c-0.119,0.071-0.224,0.154-0.319,0.259l-0.511,0.563
			l-0.724,0.792l-0.602,0.651c-0.992,1.091,0.18,2.761,1.555,2.179c0.18-0.082,0.311-0.175,0.448-0.319l0.611-0.662l0.731-0.8
			L242.752,144.514z"/>
		<path fill="#CBE3F6" d="M253.356,131.881c0.735-0.98-0.024-2.33-1.232-2.2c-0.376,0.054-0.68,0.212-0.919,0.515l-0.508,0.652
			l-0.674,0.854l-0.501,0.629c-0.974,1.23,0.558,2.872,1.859,1.967c0.105-0.074,0.19-0.158,0.274-0.26l0.51-0.639l0.682-0.866
			L253.356,131.881z"/>
		<path fill="#CBE3F6" d="M262.974,118.473c0.29-0.426,0.295-0.96,0.061-1.41c-0.506-0.903-1.756-0.957-2.338-0.101l-0.414,0.628
			l-0.605,0.907l-0.489,0.725c-0.827,1.216,0.61,2.756,1.928,1.878c0.131-0.098,0.238-0.205,0.332-0.342l0.498-0.736l0.614-0.92
			L262.974,118.473z"/>
		<path fill="#CBE3F6" d="M271.453,104.306c0.716-1.33-0.941-2.683-2.109-1.674c-0.118,0.106-0.217,0.228-0.291,0.367l-0.348,0.644
			l-0.52,0.947l-0.439,0.79c-0.69,1.195,0.697,2.589,1.935,1.814c0.194-0.129,0.331-0.274,0.448-0.479l0.448-0.804l0.528-0.963
			L271.453,104.306z"/>
		<path fill="#CBE3F6" d="M278.569,89.391c0.572-1.335-1.112-2.555-2.218-1.505c-0.133,0.133-0.227,0.273-0.3,0.442l-0.356,0.854
			l-0.416,0.977l-0.29,0.667c-0.247,0.576-0.085,1.243,0.413,1.628c0.695,0.544,1.742,0.28,2.09-0.531l0.297-0.684l0.424-0.994
			L278.569,89.391z"/>
		<path fill="#CBE3F6" d="M284.008,73.754c0.395-1.431-1.443-2.374-2.377-1.233c-0.116,0.151-0.201,0.301-0.253,0.489l-0.107,0.386
			l-0.286,0.994l-0.295,0.993l-0.066,0.219c-0.449,1.449,1.483,2.462,2.417,1.199c0.085-0.12,0.149-0.248,0.193-0.391l0.073-0.24
			l0.301-1.015l0.293-1.016L284.008,73.754z"/>
		<path fill="#CBE3F6" d="M287.337,57.511c0.192-1.438-1.733-2.152-2.521-0.89c-0.101,0.174-0.161,0.335-0.188,0.535l-0.035,0.288
			l-0.136,0.998l-0.146,0.998l-0.061,0.382c-0.239,1.438,1.704,2.228,2.525,0.913c0.09-0.159,0.144-0.298,0.174-0.479l0.063-0.408
			l0.15-1.024l0.139-1.024L287.337,57.511z"/>
		<path fill="#CBE3F6" d="M288.05,40.917c-0.046-1.381-1.929-1.823-2.581-0.569c-0.109,0.228-0.158,0.426-0.149,0.68l0.023,0.514
			l0.034,0.988l0.023,0.99l0.002,0.193c0,0.313,0.108,0.597,0.297,0.841c0.827,1.011,2.436,0.434,2.436-0.859l-0.002-0.224
			l-0.023-1.021l-0.036-1.02L288.05,40.917z"/>
		<path fill="#CBE3F6" d="M285.676,24.453c-0.344-1.426-2.411-1.396-2.68,0.106c-0.025,0.179-0.021,0.351,0.021,0.526l0.195,0.799
			l0.224,0.968l0.188,0.862c0.126,0.61,0.663,1.062,1.285,1.083c0.894,0.031,1.569-0.775,1.39-1.648l-0.196-0.896l-0.231-1.002
			L285.676,24.453z"/>
		<polygon fill="#CBE3F6" points="271.49,22.349 274.367,0 291.703,14.396 		"/>
		<path fill="#CBE3F6" d="M157.161,190.157c-0.385-0.106-0.761-0.064-1.104,0.145c-1.006,0.629-0.808,2.123,0.324,2.475l0.51,0.146
			l0.516,0.132l0.522,0.122l0.528,0.109l0.534,0.098l0.211,0.034c0.465,0.078,0.929-0.081,1.247-0.432
			c0.719-0.795,0.273-2.086-0.783-2.262l-0.21-0.034l-0.474-0.087l-0.466-0.097l-0.459-0.106l-0.452-0.116L157.161,190.157z"/>
	</g>
</g>
<g>
</g>
<g>
</g>
<g>
</g>
<g>
</g>
<g>
</g>
<g>
</g>
</svg>
